<?xml version="1.0" encoding="UTF-8"?>
<svg id="Layer_1" data-name="Layer 1" xmlns="http://www.w3.org/2000/svg" xmlns:xlink="http://www.w3.org/1999/xlink" viewBox="0 0 1344 756">
  <defs>
    <style>
      .cls-1, .cls-2 {
        fill: none;
      }

      .cls-2 {
        stroke: #20afef;
        stroke-linecap: round;
        stroke-miterlimit: 10;
        stroke-width: 1.96px;
      }

      .cls-3 {
        fill: url(#radial-gradient-6);
      }

      .cls-4 {
        fill: url(#radial-gradient-5);
      }

      .cls-5 {
        fill: url(#radial-gradient-4);
      }

      .cls-6 {
        fill: url(#radial-gradient-3);
      }

      .cls-7 {
        fill: url(#radial-gradient-2);
      }

      .cls-8 {
        fill: #a2b1ba;
      }

      .cls-9 {
        fill: url(#radial-gradient);
      }

      .cls-10 {
        fill: #b4ccde;
      }

      .cls-11 {
        fill: #f0fcf5;
      }

      .cls-12 {
        fill: #ccc;
      }

      .cls-13, .cls-14, .cls-15, .cls-16, .cls-17 {
        isolation: isolate;
      }

      .cls-18 {
        mix-blend-mode: multiply;
      }

      .cls-19 {
        clip-path: url(#clippath-1);
      }

      .cls-14 {
        font-size: 28.33px;
      }

      .cls-14, .cls-15, .cls-16 {
        font-family: Avenir-Black, Avenir;
        font-weight: 800;
      }

      .cls-14, .cls-16, .cls-20 {
        fill: #063e63;
      }

      .cls-21 {
        fill: #fff;
      }

      .cls-15 {
        fill: #1a3d60;
        font-size: 23.92px;
      }

      .cls-22 {
        fill: #20afef;
      }

      .cls-16 {
        font-size: 20.61px;
      }

      .cls-23 {
        fill: #54abe8;
      }

      .cls-24 {
        clip-path: url(#clippath);
      }

      .cls-17 {
        fill: #333;
        font-family: Avenir-Medium, Avenir;
        font-size: 13.14px;
        font-weight: 500;
      }
    </style>
    <clipPath id="clippath">
      <rect class="cls-1" x="35.85" y="-35.25" width="1292.89" height="861.92"/>
    </clipPath>
    <radialGradient id="radial-gradient" cx="857.85" cy="-289.38" fx="857.85" fy="-289.38" r="43.65" gradientTransform="translate(0 285.43) scale(1 -1)" gradientUnits="userSpaceOnUse">
      <stop offset="0" stop-color="#00ad6f"/>
      <stop offset="1" stop-color="#035e54"/>
    </radialGradient>
    <radialGradient id="radial-gradient-2" cx="514.82" cy="-175.58" fx="514.82" fy="-175.58" r="43.65" xlink:href="#radial-gradient"/>
    <radialGradient id="radial-gradient-3" cx="427.76" cy="206.58" fx="427.76" fy="206.58" r="43.65" xlink:href="#radial-gradient"/>
    <radialGradient id="radial-gradient-4" cx="764.61" cy="101.52" fx="764.61" fy="101.52" r="43.65" xlink:href="#radial-gradient"/>
    <radialGradient id="radial-gradient-5" cx="898.02" cy="-107.62" fx="898.02" fy="-107.62" xlink:href="#radial-gradient"/>
    <clipPath id="clippath-1">
      <rect class="cls-1" x="8.04" y="-.1" width="1344" height="756"/>
    </clipPath>
    <radialGradient id="radial-gradient-6" cx="407.77" cy="27.66" fx="407.77" fy="27.66" r="43.65" xlink:href="#radial-gradient"/>
  </defs>
  <rect class="cls-11" width="1344" height="756"/>
  <g class="cls-13">
    <g class="cls-24">
      <g>
        <g class="cls-18">
          <path class="cls-10" d="M879.05,704.59l142.18,22.06v-7.83l-38.53-82.29-27.97,16.25-21.6-12.47-36-20.79-2.26-1.3c-.53-.31-.91-.54-1.37-.82-.86-.55-1.69-1.08-2.47-1.65-1.58-1.13-2.98-2.33-4.23-3.58-2.49-2.5-4.3-5.23-5.38-8.06-.27-.72-.49-1.45-.67-2.18.58-2.44,1.69-4.82,3.32-7.07,1.92-2.66,4.53-5.16,7.79-7.36.82-.55,1.67-1.09,2.56-1.62l4.39-2.55,8.94-5.2,35.78-20.79,17.88-10.4,2.6-1.53c1.05-.61,2.04-1.25,3.02-1.88,1.98-1.27,3.87-2.61,5.68-3.97,3.62-2.73,6.87-5.65,9.73-8.67,9.32-9.88,14.16-21.09,14.16-32.3v-7.83,7.81-7.81c0-2.57-.27-5.13-.78-7.7-2.69-13.68-12.89-26.96-28.76-37.29-1.59-1.03-3.22-2.04-4.91-3.01-6.72-3.89-14.28-7.31-22.48-10.16-10.25-3.57-21.46-6.21-33.06-7.81-2.36-.33-4.75-.61-7.14-.85-21.07-2.11-43.08-.82-63.01,3.76-11.07,2.55-21.49,6.09-30.68,10.46-2.29,1.09-4.52,2.23-6.67,3.41-2.4,1.33-3.51,2.02-5.08,2.92l-8.95,5.2-35.77,20.79-71.57,41.59-35.77,20.79-8.95,5.2c-1.75,1.02-2.34,1.35-3.33,1.88-.93.49-1.9.97-2.88,1.41-3.94,1.8-8.34,3.17-13.02,4.17-8.01,1.71-16.93,2.16-25.41,1.31-1.41-.14-2.8-.31-4.18-.54-8.31-1.27-15.9-3.81-22.03-7.35-1.03-.59-2.01-1.22-2.95-1.86-5.96-4.08-9.83-9.1-11.09-14.41.87-3.63,2.93-7.14,6.08-10.28,1.25-1.24,2.66-2.44,4.24-3.56.79-.57,1.61-1.11,2.47-1.64l3.78-2.22,17.88-10.4,35.77-20.79,71.57-41.59,143.12-83.17,17.88-10.4,2.24-1.3,2.76-1.63c2.04-1.25,4-2.53,5.88-3.87,3.75-2.67,7.17-5.5,10.18-8.47,10.47-10.31,15.97-22.22,15.96-34.13v-7.83c0-1.87-.14-3.75-.41-5.61-1-6.86-3.78-13.66-8.31-20.07s-10.79-12.42-18.44-17.71c-2.31-1.61-4.75-3.14-7.31-4.62-5.87-3.38-12.35-6.43-19.36-9.04-10.05-3.75-21.12-6.59-32.62-8.4-3.52-.56-7.07-1.01-10.66-1.38-19.9-2-40.59-.98-59.61,3-11.21,2.34-21.81,5.7-31.25,9.9-2.36,1.05-4.66,2.14-6.86,3.3-1.1.58-2.19,1.15-3.24,1.76l-2.68,1.53-8.95,5.2-71.56,41.58-71.56,41.58-8.95,5.2-2.24,1.3-1.8,1.03c-.91.49-1.85,1-2.81,1.45-3.87,1.83-8.16,3.34-12.77,4.42-8.37,1.96-17.8,2.53-26.75,1.64-.92-.09-1.85-.2-2.76-.33-8.89-1.2-17.02-3.8-23.54-7.57-.66-.38-1.3-.78-1.93-1.18-6.54-4.21-10.76-9.47-12.1-15.08.79-3.34,2.58-6.58,5.32-9.51,1.19-1.27,2.53-2.49,4.03-3.63.76-.58,1.55-1.12,2.38-1.68.41-.27.86-.55,1.27-.81l1.71-1.01,17.88-10.4,35.78-20.79,8.94-5.2,4.48-2.6c1.96-1.15,4.07-2.46,5.99-3.74,7.74-5.22,14.13-11.15,18.8-17.5,6.13-8.37,9.26-17.41,9.26-26.46v-7.83c0-4.73-.86-9.45-2.56-14.09-2.48-6.75-6.76-13.29-12.68-19.32-2.95-3-6.3-5.88-10.01-8.6-1.85-1.35-3.8-2.66-5.82-3.94-1-.63-2.03-1.25-3.08-1.87l-2.34-1.35L-57.28-179.65l-3.29,1.91-1.06.61,1.06-.61s-1.03.6-1.06.61l-.06.04h-.02l-13.1,7.62-25.73,14.95-.2.12-.84.48.84-.48-.84.48-3.41,1.98v7.82L471.21,188.56l2.16,1.25c.44.26.89.54,1.3.8.86.56,1.68,1.09,2.46,1.66,1.56,1.14,2.96,2.34,4.2,3.6,2.46,2.51,4.24,5.24,5.29,8.09.25.67.45,1.34.62,2.03-.59,2.49-1.74,4.92-3.42,7.21-1.95,2.66-4.6,5.11-7.88,7.32-.84.57-1.64,1.05-2.61,1.64l-4.48,2.6-8.94,5.2-35.78,20.79-17.88,10.4-2.74,1.62c-1.01.62-2.03,1.26-3,1.9-1.96,1.3-3.85,2.61-5.65,3.99-3.59,2.74-6.81,5.67-9.63,8.7-6.96,7.5-11.37,15.71-13.06,24.12-.53,2.6-.79,5.23-.79,7.84v7.83c0,2.7.28,5.39.84,8.06,1.42,6.85,4.67,13.58,9.6,19.89s11.57,12.18,19.54,17.3c1.44.93,2.93,1.84,4.46,2.72,6.89,3.98,14.64,7.48,23.06,10.37,10.29,3.54,21.53,6.12,33.13,7.69,23.23,3.13,48,2.04,70.12-3.14,11.06-2.58,21.41-6.21,30.58-10.57,2.3-1.09,4.49-2.25,6.63-3.43l2.71-1.55,2.24-1.3,8.95-5.2,71.56-41.58,71.56-41.58,8.95-5.2,1.82-1.05c.45-.26.92-.5,1.39-.75.92-.49,1.91-.96,2.9-1.4,3.96-1.77,8.36-3.15,13.05-4.13,9.37-1.96,19.94-2.2,29.6-.68,8.19,1.29,15.7,3.81,21.78,7.32,1.08.63,2.12,1.29,3.12,1.97,5.88,4.06,9.66,9.04,10.9,14.3-.88,3.68-2.98,7.23-6.21,10.4-1.27,1.24-2.69,2.43-4.27,3.55-.79.56-1.63,1.1-2.49,1.64l-3.92,2.29-17.88,10.4-143.1,83.17-71.57,41.59-35.77,20.79-17.88,10.4-2.24,1.3-2.88,1.72c-2.03,1.25-3.97,2.54-5.84,3.89-3.74,2.68-7.12,5.53-10.11,8.53-10.25,10.25-15.62,22.01-15.62,33.79v7.83c0,2.01.16,4,.46,6,1.06,6.86,3.92,13.64,8.52,20.04,4.59,6.38,10.91,12.38,18.61,17.65,2.19,1.5,4.49,2.95,6.9,4.35,6.01,3.48,12.67,6.57,19.9,9.23,10.08,3.72,21.18,6.52,32.72,8.3,23.06,3.54,47.85,2.9,70.25-1.87,11.19-2.38,21.77-5.75,31.15-10,2.34-1.06,4.61-2.17,6.81-3.32,2.14-1.12,4.54-2.51,5.76-3.22l8.95-5.2,35.77-20.79,71.57-41.59,35.77-20.79,8.95-5.2c3.5-2.05,4.65-2.72,6.72-3.7,3.86-1.84,8.2-3.3,12.83-4.37,9.24-2.13,19.77-2.57,29.54-1.22,8.79,1.21,16.82,3.81,23.27,7.54.72.42,1.43.85,2.11,1.29,6.44,4.19,10.6,9.42,11.91,14.97-.81,3.38-2.67,6.66-5.46,9.64-.6.63-1.23,1.25-1.9,1.86-.67.6-1.4,1.19-2.16,1.76-.76.58-1.54,1.13-2.4,1.68-.42.26-.84.55-1.28.81l-1.84,1.08-17.88,10.4-35.78,20.79-8.94,5.2-4.56,2.65c-2.08,1.22-4.07,2.49-6.01,3.8-7.7,5.24-14.03,11.2-18.63,17.57-5.97,8.26-9,17.17-9,26.08v7.83c0,4.86.9,9.72,2.71,14.48,2.55,6.74,6.91,13.27,12.86,19.29,2.98,3,6.36,5.87,10.09,8.57,1.86,1.34,3.82,2.64,5.85,3.91.99.62,2.09,1.26,3.05,1.83l2.26,1.3,36,20.79,14.84,8.57-21.2,12.33v7.83l-.06-.03Z"/>
        </g>
        <path class="cls-12" d="M879.05,704.59l142.18,22.06v-7.83l-38.53-82.29-27.97,16.25-21.6-12.47-36-20.79-2.26-1.3c-.53-.31-.91-.54-1.37-.82-.86-.55-1.69-1.08-2.47-1.65-1.58-1.13-2.98-2.33-4.23-3.58-2.49-2.5-4.3-5.23-5.38-8.06-.27-.72-.49-1.45-.67-2.18.58-2.44,1.69-4.82,3.32-7.07,1.92-2.66,4.53-5.16,7.79-7.36.82-.55,1.67-1.09,2.56-1.62l4.39-2.55,8.94-5.2,35.78-20.79,17.88-10.4,2.6-1.53c1.05-.61,2.04-1.25,3.02-1.88,1.98-1.27,3.87-2.61,5.68-3.97,3.62-2.73,6.87-5.65,9.73-8.67,9.32-9.88,14.16-21.09,14.16-32.3v-7.83,7.81-7.81c0-2.57-.27-5.13-.78-7.7-2.69-13.68-12.89-26.96-28.76-37.29-1.59-1.03-3.22-2.04-4.91-3.01-6.72-3.89-14.28-7.31-22.48-10.16-10.25-3.57-21.46-6.21-33.06-7.81-2.36-.33-4.75-.61-7.14-.85-21.07-2.11-43.08-.82-63.01,3.76-11.07,2.55-21.49,6.09-30.68,10.46-2.29,1.09-4.52,2.23-6.67,3.41-2.4,1.33-3.51,2.02-5.08,2.92l-8.95,5.2-35.77,20.79-71.57,41.59-35.77,20.79-8.95,5.2c-1.75,1.02-2.34,1.35-3.33,1.88-.93.49-1.9.97-2.88,1.41-3.94,1.8-8.34,3.17-13.02,4.17-8.01,1.71-16.93,2.16-25.41,1.31-1.41-.14-2.8-.31-4.18-.54-8.31-1.27-15.9-3.81-22.03-7.35-1.03-.59-2.01-1.22-2.95-1.86-5.96-4.08-9.83-9.1-11.09-14.41.87-3.63,2.93-7.14,6.08-10.28,1.25-1.24,2.66-2.44,4.24-3.56.79-.57,1.61-1.11,2.47-1.64l3.78-2.22,17.88-10.4,35.77-20.79,71.57-41.59,143.12-83.17,17.88-10.4,2.24-1.3,2.76-1.63c2.04-1.25,4-2.53,5.88-3.87,3.75-2.67,7.17-5.5,10.18-8.47,10.47-10.31,15.97-22.22,15.96-34.13v-7.83c0-1.87-.14-3.75-.41-5.61-1-6.86-3.78-13.66-8.31-20.07s-10.79-12.42-18.44-17.71c-2.31-1.61-4.75-3.14-7.31-4.62-5.87-3.38-12.35-6.43-19.36-9.04-10.05-3.75-21.12-6.59-32.62-8.4-3.52-.56-7.07-1.01-10.66-1.38-19.9-2-40.59-.98-59.61,3-11.21,2.34-21.81,5.7-31.25,9.9-2.36,1.05-4.66,2.14-6.86,3.3-1.1.58-2.19,1.15-3.24,1.76l-2.68,1.53-8.95,5.2-71.56,41.58-71.56,41.58-8.95,5.2-2.24,1.3-1.8,1.03c-.91.49-1.85,1-2.81,1.45-3.87,1.83-8.16,3.34-12.77,4.42-8.37,1.96-17.8,2.53-26.75,1.64-.92-.09-1.85-.2-2.76-.33-8.89-1.2-17.02-3.8-23.54-7.57-.66-.38-1.3-.78-1.93-1.18-6.54-4.21-10.76-9.47-12.1-15.08.79-3.34,2.58-6.58,5.32-9.51,1.19-1.27,2.53-2.49,4.03-3.63.76-.58,1.55-1.12,2.38-1.68.41-.27.86-.55,1.27-.81l1.71-1.01,17.88-10.4,35.78-20.79,8.94-5.2,4.48-2.6c1.96-1.15,4.07-2.46,5.99-3.74,7.74-5.22,14.13-11.15,18.8-17.5,6.13-8.37,9.26-17.41,9.26-26.46v-7.83c0-4.73-.86-9.45-2.56-14.09-2.48-6.75-6.76-13.29-12.68-19.32-2.95-3-6.3-5.88-10.01-8.6-1.85-1.35-3.8-2.66-5.82-3.94-1-.63-2.03-1.25-3.08-1.87l-2.34-1.35L-57.28-179.65l-3.29,1.91-1.06.61,1.06-.61s-1.03.6-1.06.61l-.06.04h-.02l-13.1,7.62-25.73,14.95-.2.12-.84.48.84-.48-.84.48-3.41,1.98v7.82L471.21,188.56l2.16,1.25c.44.26.89.54,1.3.8.86.56,1.68,1.09,2.46,1.66,1.56,1.14,2.96,2.34,4.2,3.6,2.46,2.51,4.24,5.24,5.29,8.09.25.67.45,1.34.62,2.03-.59,2.49-1.74,4.92-3.42,7.21-1.95,2.66-4.6,5.11-7.88,7.32-.84.57-1.64,1.05-2.61,1.64l-4.48,2.6-8.94,5.2-35.78,20.79-17.88,10.4-2.74,1.62c-1.01.62-2.03,1.26-3,1.9-1.96,1.3-3.85,2.61-5.65,3.99-3.59,2.74-6.81,5.67-9.63,8.7-6.96,7.5-11.37,15.71-13.06,24.12-.53,2.6-.79,5.23-.79,7.84v7.83c0,2.7.28,5.39.84,8.06,1.42,6.85,4.67,13.58,9.6,19.89s11.57,12.18,19.54,17.3c1.44.93,2.93,1.84,4.46,2.72,6.89,3.98,14.64,7.48,23.06,10.37,10.29,3.54,21.53,6.12,33.13,7.69,23.23,3.13,48,2.04,70.12-3.14,11.06-2.58,21.41-6.21,30.58-10.57,2.3-1.09,4.49-2.25,6.63-3.43l2.71-1.55,2.24-1.3,8.95-5.2,71.56-41.58,71.56-41.58,8.95-5.2,1.82-1.05c.45-.26.92-.5,1.39-.75.92-.49,1.91-.96,2.9-1.4,3.96-1.77,8.36-3.15,13.05-4.13,9.37-1.96,19.94-2.2,29.6-.68,8.19,1.29,15.7,3.81,21.78,7.32,1.08.63,2.12,1.29,3.12,1.97,5.88,4.06,9.66,9.04,10.9,14.3-.88,3.68-2.98,7.23-6.21,10.4-1.27,1.24-2.69,2.43-4.27,3.55-.79.56-1.63,1.1-2.49,1.64l-3.92,2.29-17.88,10.4-143.1,83.17-71.57,41.59-35.77,20.79-17.88,10.4-2.24,1.3-2.88,1.72c-2.03,1.25-3.97,2.54-5.84,3.89-3.74,2.68-7.12,5.53-10.11,8.53-10.25,10.25-15.62,22.01-15.62,33.79v7.83c0,2.01.16,4,.46,6,1.06,6.86,3.92,13.64,8.52,20.04,4.59,6.38,10.91,12.38,18.61,17.65,2.19,1.5,4.49,2.95,6.9,4.35,6.01,3.48,12.67,6.57,19.9,9.23,10.08,3.72,21.18,6.52,32.72,8.3,23.06,3.54,47.85,2.9,70.25-1.87,11.19-2.38,21.77-5.75,31.15-10,2.34-1.06,4.61-2.17,6.81-3.32,2.14-1.12,4.54-2.51,5.76-3.22l8.95-5.2,35.77-20.79,71.57-41.59,35.77-20.79,8.95-5.2c3.5-2.05,4.65-2.72,6.72-3.7,3.86-1.84,8.2-3.3,12.83-4.37,9.24-2.13,19.77-2.57,29.54-1.22,8.79,1.21,16.82,3.81,23.27,7.54.72.42,1.43.85,2.11,1.29,6.44,4.19,10.6,9.42,11.91,14.97-.81,3.38-2.67,6.66-5.46,9.64-.6.63-1.23,1.25-1.9,1.86-.67.6-1.4,1.19-2.16,1.76-.76.58-1.54,1.13-2.4,1.68-.42.26-.84.55-1.28.81l-1.84,1.08-17.88,10.4-35.78,20.79-8.94,5.2-4.56,2.65c-2.08,1.22-4.07,2.49-6.01,3.8-7.7,5.24-14.03,11.2-18.63,17.57-5.97,8.26-9,17.17-9,26.08v7.83c0,4.86.9,9.72,2.71,14.48,2.55,6.74,6.91,13.27,12.86,19.29,2.98,3,6.36,5.87,10.09,8.57,1.86,1.34,3.82,2.64,5.85,3.91.99.62,2.09,1.26,3.05,1.83l2.26,1.3,36,20.79,14.84,8.57-21.2,12.33v7.83l-.06-.03Z"/>
        <path class="cls-8" d="M1021.23,718.82l-38.53-82.29-27.97,16.25-21.6-12.47-36-20.79-2.26-1.3c-.53-.31-.91-.54-1.37-.82-.86-.55-1.69-1.08-2.47-1.65-1.58-1.13-2.98-2.33-4.23-3.58-2.49-2.51-4.3-5.23-5.38-8.06-2.15-5.67-1.22-11.77,2.64-17.07,1.92-2.66,4.55-5.13,7.79-7.36.82-.55,1.67-1.09,2.56-1.62l4.39-2.55,8.94-5.2,35.78-20.79,17.88-10.4,2.6-1.53c1.05-.61,2.04-1.25,3.02-1.88,1.98-1.28,3.87-2.61,5.68-3.97,3.62-2.74,6.88-5.64,9.73-8.67,11.47-12.14,16.15-26.3,13.39-39.99-2.63-13.7-12.88-26.99-28.76-37.29-1.59-1.03-3.22-2.04-4.91-3.01-6.72-3.89-14.28-7.31-22.48-10.16-10.25-3.57-21.46-6.22-33.06-7.81-23.18-3.21-47.95-2.2-70.14,2.91-11.08,2.54-21.48,6.09-30.68,10.46-2.29,1.09-4.52,2.24-6.67,3.41-2.4,1.34-3.51,2.02-5.08,2.92l-8.95,5.2-35.77,20.79-71.57,41.59-35.77,20.79-8.95,5.2c-1.75,1.02-2.34,1.35-3.33,1.88-.93.48-1.9.96-2.88,1.41-3.95,1.77-8.34,3.17-13.02,4.17-9.33,2.01-19.91,2.28-29.59.79-8.31-1.27-15.9-3.81-22.03-7.35-1.03-.59-2.01-1.21-2.95-1.86-6.49-4.44-10.49-9.99-11.36-15.8-.91-5.82,1.37-11.75,6.34-16.72,1.24-1.25,2.67-2.44,4.24-3.56.79-.56,1.61-1.11,2.47-1.64l3.78-2.22,17.88-10.4,35.77-20.79,71.57-41.59,143.1-83.17,17.88-10.4,2.24-1.3,2.76-1.63c2.04-1.25,4-2.53,5.88-3.87,3.76-2.66,7.17-5.5,10.18-8.47,12.12-11.93,17.58-26.01,15.55-39.74-.99-6.87-3.79-13.66-8.31-20.07-4.53-6.4-10.79-12.41-18.44-17.71-2.31-1.61-4.75-3.14-7.31-4.62-5.87-3.38-12.35-6.42-19.36-9.04-10.05-3.75-21.12-6.59-32.62-8.4-23.04-3.63-47.83-3.08-70.27,1.63-11.21,2.34-21.81,5.7-31.25,9.9-2.36,1.05-4.66,2.15-6.86,3.3-1.1.58-2.19,1.15-3.24,1.76l-2.68,1.53-8.95,5.2-71.56,41.58-71.56,41.58-8.95,5.2-2.24,1.3-1.8,1.03c-.91.49-1.84,1-2.81,1.45-3.85,1.86-8.16,3.34-12.77,4.42-9.23,2.16-19.76,2.64-29.53,1.3-8.89-1.19-17.02-3.8-23.54-7.57-.66-.38-1.3-.78-1.93-1.18-6.74-4.34-11.01-9.79-12.21-15.59-1.21-5.79.71-11.77,5.44-16.83,1.19-1.27,2.53-2.49,4.03-3.63.76-.58,1.54-1.13,2.38-1.68.41-.28.86-.55,1.27-.81l1.71-1.01,17.88-10.4,35.78-20.79,8.94-5.2,4.48-2.6c1.96-1.15,4.07-2.45,5.99-3.74,7.75-5.21,14.14-11.15,18.8-17.5,9.36-12.73,11.69-27.05,6.7-40.55-2.47-6.75-6.75-13.29-12.68-19.32-2.95-3.01-6.29-5.89-10.01-8.6-1.85-1.35-3.79-2.67-5.82-3.94-1-.63-2.03-1.25-3.08-1.87l-2.34-1.35L-57.28-179.65l-4.35,2.53,1.06-.61-1.14.66.08-.05-39.11,22.73.2-.12,25.73-14.95-26.76,15.55.84-.48-4.24,2.47L471.21,180.74l2.16,1.25c.44.26.89.53,1.3.8.86.55,1.69,1.08,2.46,1.66,1.56,1.14,2.96,2.34,4.2,3.6,2.46,2.51,4.25,5.24,5.29,8.09,2.11,5.69,1.1,11.77-2.8,17.07-1.95,2.66-4.59,5.12-7.88,7.32-.84.57-1.64,1.05-2.61,1.64l-4.48,2.6-8.94,5.2-35.78,20.79-17.88,10.4-2.74,1.62c-1.01.62-2.04,1.25-3,1.9-1.97,1.28-3.84,2.63-5.65,3.99-3.58,2.75-6.81,5.66-9.63,8.7-11.36,12.18-15.89,26.35-13.01,40.04,1.41,6.85,4.67,13.58,9.6,19.89s11.57,12.18,19.54,17.3c1.44.93,2.93,1.84,4.46,2.72,6.89,3.98,14.64,7.48,23.06,10.37,10.29,3.54,21.53,6.13,33.13,7.69,23.23,3.15,48,2.05,70.12-3.14,11.06-2.57,21.43-6.17,30.58-10.57,2.3-1.08,4.49-2.25,6.63-3.43l2.71-1.55,2.24-1.3,8.95-5.2,71.56-41.58,71.56-41.58,8.95-5.2,1.82-1.05c.45-.26.92-.5,1.39-.75.92-.49,1.91-.96,2.9-1.4,3.97-1.76,8.36-3.15,13.05-4.13,9.37-1.98,19.94-2.22,29.6-.68,8.19,1.29,15.7,3.81,21.78,7.32,1.08.63,2.13,1.28,3.12,1.97,6.46,4.45,10.37,10.02,11.18,15.83.87,5.82-1.46,11.74-6.49,16.7-1.27,1.24-2.69,2.43-4.27,3.55-.79.56-1.63,1.1-2.49,1.64l-3.92,2.29-17.88,10.4-143.1,83.17-71.57,41.59-35.77,20.79-17.88,10.4-2.24,1.3-2.88,1.72c-2.03,1.25-3.97,2.55-5.84,3.89-3.74,2.68-7.13,5.52-10.11,8.53-12,11.96-17.31,26.06-15.16,39.78,1.05,6.87,3.91,13.65,8.52,20.04,4.58,6.38,10.91,12.38,18.61,17.65,2.19,1.5,4.49,2.95,6.9,4.35,6.01,3.46,12.67,6.57,19.9,9.23,10.08,3.72,21.18,6.53,32.72,8.3,23.06,3.55,47.85,2.91,70.25-1.87,11.19-2.37,21.76-5.76,31.15-10,2.34-1.06,4.61-2.16,6.81-3.32,2.14-1.12,4.54-2.51,5.76-3.22l8.95-5.2,35.77-20.79,71.57-41.59,35.77-20.79,8.95-5.2c3.5-2.05,4.65-2.72,6.72-3.7,3.86-1.84,8.2-3.31,12.83-4.37,9.24-2.14,19.77-2.58,29.54-1.22,8.79,1.2,16.82,3.81,23.27,7.54.72.42,1.43.85,2.11,1.29,6.7,4.35,10.93,9.83,12.04,15.62,1.18,5.79-.82,11.76-5.6,16.81-1.19,1.27-2.53,2.48-4.06,3.62-.76.58-1.54,1.13-2.4,1.68-.42.26-.84.55-1.28.81l-1.84,1.08-17.88,10.4-35.78,20.79-8.94,5.2-4.56,2.65c-2.08,1.22-4.07,2.49-6.01,3.8-7.7,5.23-14.03,11.19-18.63,17.57-9.25,12.76-11.41,27.08-6.3,40.57,2.54,6.74,6.9,13.28,12.86,19.28,2.97,3,6.36,5.87,10.09,8.57,1.86,1.34,3.81,2.66,5.85,3.91.98.62,2.09,1.26,3.05,1.83l2.26,1.3,36,20.79,21.6,12.47-27.96,16.25,142.18,22.06-.05-.05Z"/>
        <path class="cls-20" d="M1012.28,713.65l-32.8-70.06-24.72,14.36-26.08-15.06-36-20.79-2.26-1.3c-.56-.35-1.02-.6-1.51-.91-.98-.6-1.91-1.23-2.79-1.86-1.77-1.28-3.37-2.64-4.77-4.05-2.81-2.82-4.88-5.91-6.08-9.1-2.44-6.4-1.4-13.27,2.98-19.27,2.17-3.01,5.15-5.81,8.8-8.31.92-.62,1.88-1.23,2.88-1.81l4.4-2.57,8.94-5.2,35.78-20.79,17.88-10.4,2.54-1.49c.99-.58,1.92-1.19,2.87-1.79,1.87-1.21,3.65-2.47,5.37-3.76,3.42-2.59,6.51-5.33,9.21-8.2,10.85-11.48,15.27-24.87,12.66-37.83-2.48-12.97-12.17-25.53-27.21-35.27-1.5-.98-3.07-1.93-4.67-2.87-6.36-3.68-13.5-6.92-21.25-9.61-9.69-3.37-20.29-5.88-31.26-7.38-21.95-3.05-45.39-2.1-66.36,2.74-10.49,2.4-20.33,5.76-29.02,9.9-2.16,1.03-4.26,2.12-6.3,3.23-1.11.63-1.97,1.11-2.74,1.56s-1.45.85-2.23,1.3l-8.95,5.2-35.77,20.79-71.57,41.59-35.77,20.79-8.95,5.2-.16.09c-1.6.92-2.34,1.34-3.4,1.91-1.04.55-2.12,1.07-3.24,1.58-4.45,2.01-9.42,3.6-14.69,4.73-10.55,2.27-22.45,2.57-33.37.88-9.39-1.43-17.99-4.32-24.91-8.31-1.15-.66-2.26-1.35-3.31-2.08-7.32-5-11.84-11.29-12.82-17.84-1.03-6.55,1.52-13.25,7.16-18.87,1.41-1.41,3-2.75,4.79-4.03.89-.63,1.81-1.26,2.78-1.86l1.67-.99,2.24-1.3,17.88-10.4,35.77-20.79,71.57-41.59,143.1-83.17,17.88-10.4,2.24-1.3,2.67-1.58c1.93-1.18,3.79-2.39,5.57-3.65,3.55-2.52,6.78-5.21,9.64-8.02,11.46-11.28,16.61-24.6,14.7-37.59-.92-6.5-3.58-12.93-7.86-18.98-4.28-6.06-10.2-11.74-17.43-16.76-2.19-1.52-4.5-2.98-6.93-4.39-5.54-3.2-11.67-6.07-18.29-8.55-9.5-3.55-19.96-6.24-30.86-7.95-21.79-3.44-45.27-2.91-66.48,1.54-10.6,2.22-20.63,5.4-29.56,9.37-2.23,1-4.4,2.03-6.49,3.12-1.03.55-2.07,1.1-3.07,1.66l-2.59,1.49-8.95,5.2-71.56,41.58-71.56,41.58-8.95,5.2-2.24,1.3-1.88,1.07c-1.02.57-2.07,1.13-3.16,1.65-4.36,2.09-9.21,3.77-14.44,5-10.43,2.44-22.29,2.97-33.32,1.48-10.02-1.33-19.21-4.29-26.55-8.54-.75-.43-1.48-.88-2.18-1.33-7.61-4.89-12.45-11.07-13.79-17.6-1.36-6.52.8-13.27,6.14-18.98,1.32-1.44,2.86-2.8,4.55-4.11.86-.65,1.75-1.29,2.69-1.9.46-.31.97-.61,1.44-.9l1.81-1.07,17.88-10.4,35.78-20.79,8.94-5.2,4.48-2.6c1.89-1.1,3.86-2.31,5.67-3.54,7.34-4.94,13.38-10.55,17.79-16.57,8.85-12.02,11.06-25.58,6.33-38.37-2.34-6.38-6.39-12.58-11.98-18.28-2.8-2.85-5.97-5.56-9.47-8.13-1.74-1.28-3.6-2.52-5.5-3.72-.95-.6-1.93-1.19-2.91-1.76l-2.33-1.34L-61.73-177.06l-1.13.65-.76.44-3.83,2.23-.38.22-.38.22-12.26,7.13-1.3.76-12.69,7.38-.72.42-1.14.67-.59.34-3.6,2.09,3.53-2.05-.11.06-3.07,1.78-.36.21L475.66,178.15l2.17,1.27c.5.28,1,.59,1.48.89.97.61,1.89,1.23,2.76,1.88,1.76,1.28,3.35,2.65,4.74,4.06,2.79,2.82,4.81,5.92,5.99,9.12,2.39,6.42,1.26,13.27-3.16,19.26-2.2,3-5.19,5.8-8.88,8.27-.95.64-1.85,1.2-2.93,1.84l-4.48,2.6-8.94,5.2-35.78,20.79-17.88,10.4-2.64,1.55c-.97.6-1.93,1.18-2.86,1.8-1.86,1.22-3.64,2.48-5.33,3.78-3.39,2.59-6.46,5.35-9.12,8.23-10.73,11.52-15.01,24.93-12.3,37.87,1.33,6.48,4.42,12.85,9.08,18.82,4.66,5.96,10.95,11.52,18.48,16.36.77.49,1.55.99,2.35,1.47.57.34,1.13.68,1.7,1.01l.18.1c.2.12.41.23.61.35,2.46,1.4,5.04,2.73,7.72,4,.45.21.89.42,1.34.63,2.57,1.18,5.24,2.29,7.99,3.33,1.35.51,2.74,1.02,4.14,1.49,9.72,3.34,20.35,5.81,31.34,7.28,21.97,2.98,45.39,1.93,66.33-2.96,10.46-2.44,20.25-5.84,28.92-10,2.17-1.04,4.24-2.13,6.27-3.24l2.61-1.5,2.24-1.3,8.95-5.2,71.56-41.58,71.56-41.58,8.95-5.2,1.91-1.08c.5-.29,1.03-.57,1.54-.84,1.05-.56,2.15-1.07,3.27-1.56,4.47-2,9.45-3.57,14.74-4.67,10.58-2.24,22.48-2.5,33.39-.78.44.07.89.15,1.32.22,8.45,1.46,16.23,4.11,22.62,7.68.22.13.43.24.65.37.05.03.1.06.15.08,1.17.68,2.29,1.39,3.35,2.13,7.29,5.03,11.73,11.33,12.65,17.88.97,6.54-1.66,13.23-7.35,18.84-1.44,1.41-3.05,2.74-4.82,4.02-.89.63-1.84,1.24-2.81,1.84l-4.01,2.35-17.88,10.4-143.1,83.17-71.56,41.58-35.78,20.79-17.88,10.4-2.24,1.3-2.76,1.64c-1.92,1.19-3.76,2.41-5.52,3.68-3.53,2.53-6.73,5.23-9.55,8.05-11.35,11.31-16.37,24.64-14.34,37.64,1.92,12.99,11.03,25.67,25.65,35.65,1.17.8,2.37,1.59,3.6,2.35.87.54,1.75,1.07,2.65,1.6.09.05.19.12.28.17.08.05.18.1.26.16,5.41,3.1,11.36,5.88,17.78,8.3.25.09.51.19.77.28,9.53,3.52,20.02,6.17,30.93,7.85,19.1,2.94,39.45,2.85,58.42-.26,2.71-.44,5.4-.95,8.04-1.51,10.57-2.24,20.58-5.45,29.46-9.45,2.23-1.01,4.38-2.06,6.45-3.15,1.65-.86,3.43-1.88,4.73-2.63.29-.17.57-.34.81-.47l8.95-5.2,35.77-20.79,71.57-41.59,35.77-20.79,8.95-5.2.32-.18,1.15-.67.67-.39c-.14.08-.26.15-.41.23,2.26-1.31,3.6-2.05,5.47-2.94,4.37-2.07,9.25-3.74,14.49-4.94.7-.17,1.42-.3,2.13-.45.33-.06.65-.14.98-.2.6-.12,1.21-.21,1.81-.31.51-.08,1.03-.18,1.55-.25.57-.08,1.14-.16,1.71-.23.57-.07,1.13-.15,1.71-.21.56-.06,1.12-.12,1.68-.17.6-.05,1.2-.1,1.8-.15.55-.04,1.1-.07,1.65-.1.62-.03,1.24-.06,1.87-.08.54-.02,1.07-.04,1.62-.05.66-.01,1.32-.01,1.98-.01h1.5c1.11.02,2.22.05,3.32.1,1.28.06,2.56.16,3.84.27,1.4.13,2.79.28,4.17.48.42.05.84.12,1.25.18,1.71.26,3.4.57,5.06.92,7.31,1.56,14,4.02,19.61,7.21.12.06.23.13.35.2.06.04.14.08.2.12.34.2.67.4,1.01.6.4.24.79.49,1.17.75,7.55,4.91,12.34,11.11,13.61,17.65,1.31,6.52-.95,13.26-6.34,18.96-1.33,1.43-2.88,2.79-4.59,4.1-.86.64-1.75,1.28-2.71,1.89-.47.3-.95.62-1.44.9l-1.92,1.12-17.88,10.4-35.78,20.79-8.94,5.2-4.54,2.64c-1.97,1.14-3.87,2.35-5.69,3.59-7.28,4.96-13.26,10.59-17.62,16.62-8.74,12.05-10.79,25.62-5.95,38.38,2.4,6.38,6.53,12.57,12.18,18.24,2.81,2.85,6.01,5.55,9.54,8.11,1.76,1.28,3.61,2.51,5.53,3.7.95.59,1.98,1.19,2.9,1.73l2.26,1.3,36,20.79,26.08,15.06-24.71,14.36,121.05,18.78-.03-.05Z"/>
        <path class="cls-21" d="M1014.58,714.97l-34.28-73.23-25.56,14.86-24.92-14.39-36-20.79-2.26-1.3c-.56-.34-1.01-.59-1.48-.89-.96-.58-1.85-1.19-2.71-1.81-1.71-1.24-3.27-2.55-4.63-3.93-2.72-2.74-4.74-5.73-5.89-8.84-2.37-6.22-1.34-12.88,2.9-18.7,2.1-2.91,4.98-5.63,8.53-8.05.89-.6,1.82-1.2,2.79-1.76l4.41-2.56,8.94-5.2,35.78-20.79,17.88-10.4,2.55-1.5c1.01-.59,1.95-1.2,2.91-1.81,1.9-1.23,3.71-2.51,5.46-3.82,3.47-2.63,6.59-5.41,9.32-8.33,11.03-11.65,15.51-25.25,12.86-38.39-2.52-13.15-12.36-25.9-27.63-35.78-1.53-1-3.12-1.97-4.76-2.92-6.45-3.73-13.68-7.01-21.54-9.73-9.85-3.43-20.6-5.97-31.74-7.5-22.26-3.09-46.05-2.12-67.34,2.79-10.64,2.45-20.63,5.86-29.45,10.05-2.2,1.05-4.34,2.14-6.39,3.29-2.28,1.28-3.43,1.97-5.01,2.88l-8.95,5.2-35.77,20.79-71.57,41.59-35.77,20.79-8.95,5.2c-1.71,1-2.43,1.41-3.5,1.97-1.02.53-2.08,1.05-3.15,1.53-4.33,1.94-9.13,3.49-14.27,4.58-10.25,2.19-21.79,2.5-32.39.85-9.09-1.39-17.44-4.18-24.15-8.05-1.12-.64-2.19-1.32-3.21-2.03-7.1-4.85-11.49-10.94-12.43-17.3-1.01-6.35,1.48-12.85,6.95-18.3,1.37-1.38,2.93-2.68,4.64-3.91.86-.62,1.76-1.23,2.72-1.81l1.63-.97,2.24-1.3,17.88-10.4,35.77-20.79,71.57-41.59,143.1-83.17,17.88-10.4,2.24-1.3,2.69-1.59c1.94-1.2,3.84-2.44,5.65-3.72,3.61-2.56,6.88-5.29,9.79-8.15,11.62-11.45,16.86-24.96,14.93-38.14-.95-6.6-3.63-13.13-7.98-19.27-4.35-6.15-10.34-11.92-17.69-17-2.23-1.54-4.57-3.02-7.01-4.44-5.63-3.25-11.85-6.16-18.58-8.67-9.64-3.6-20.27-6.34-31.31-8.07-22.11-3.49-45.93-2.95-67.46,1.56-10.76,2.25-20.95,5.47-30,9.5-2.26,1.01-4.46,2.06-6.57,3.16-1.05.56-2.1,1.11-3.12,1.69l-2.61,1.5-8.95,5.2-71.56,41.58-71.56,41.58-8.95,5.2-2.24,1.3-1.85,1.06c-1.01.55-2.02,1.09-3.08,1.6-4.23,2.03-8.94,3.66-14,4.84-10.11,2.37-21.64,2.89-32.33,1.44-9.74-1.3-18.67-4.18-25.8-8.3-.71-.42-1.42-.84-2.1-1.28-7.37-4.75-12.06-10.73-13.37-17.07-1.33-6.33.77-12.88,5.96-18.43,1.28-1.4,2.76-2.73,4.4-3.99.84-.63,1.7-1.25,2.6-1.85.46-.3.93-.59,1.4-.88l1.79-1.05,17.88-10.4,35.78-20.79,8.94-5.2,4.48-2.6c1.9-1.11,3.92-2.35,5.75-3.59,7.43-5,13.58-10.71,18.05-16.81,8.98-12.21,11.22-25.96,6.43-38.93-2.37-6.48-6.49-12.77-12.16-18.54-2.84-2.89-6.06-5.65-9.62-8.25-1.77-1.3-3.64-2.56-5.58-3.77-.97-.61-1.95-1.21-2.95-1.8l-2.33-1.34L-60.58-177.74l-1.16.67L514.46,155.6l2.33,1.34c.98.58,1.97,1.16,2.91,1.76,1.9,1.2,3.76,2.44,5.5,3.72,3.5,2.56,6.67,5.28,9.47,8.13,5.59,5.7,9.64,11.9,11.98,18.28,4.74,12.78,2.52,26.33-6.33,38.37-4.41,6.02-10.45,11.63-17.79,16.57-1.81,1.22-3.79,2.44-5.67,3.54l-4.48,2.6-8.94,5.2-35.78,20.79-17.88,10.4-1.81,1.07c-.47.3-.99.6-1.44.9-.93.61-1.83,1.25-2.69,1.9-1.69,1.3-3.22,2.67-4.55,4.11-5.35,5.72-7.51,12.47-6.14,18.98,1.33,6.53,6.17,12.72,13.79,17.6.7.46,1.44.9,2.18,1.33,7.33,4.23,16.54,7.2,26.55,8.54,11.01,1.5,22.88.97,33.32-1.48,5.23-1.22,10.08-2.91,14.44-5,1.1-.51,2.14-1.07,3.16-1.65l1.88-1.07,2.24-1.3,8.95-5.2,71.56-41.58,71.56-41.58,8.95-5.2,2.59-1.49c1.01-.56,2.04-1.11,3.07-1.66,2.09-1.09,4.26-2.13,6.49-3.12,8.93-3.97,18.95-7.15,29.56-9.37,21.21-4.45,44.69-4.98,66.48-1.54,10.89,1.71,21.35,4.4,30.86,7.95,6.63,2.48,12.75,5.34,18.29,8.55,2.43,1.4,4.74,2.87,6.93,4.39,7.23,5.01,13.15,10.69,17.43,16.76,4.28,6.06,6.94,12.48,7.86,18.98,1.91,12.99-3.25,26.31-14.7,37.59-2.86,2.8-6.08,5.5-9.64,8.02-1.78,1.26-3.64,2.48-5.57,3.65l-2.67,1.58-2.24,1.3-17.88,10.4-143.1,83.17-71.57,41.59-35.77,20.79-17.88,10.4-2.24,1.3-1.67.99c-.98.6-1.89,1.22-2.78,1.86-1.78,1.27-3.37,2.63-4.79,4.03-5.65,5.62-8.19,12.32-7.16,18.87.98,6.55,5.5,12.83,12.82,17.84,1.05.72,2.15,1.42,3.31,2.08,6.92,3.99,15.52,6.88,24.91,8.31,10.92,1.69,22.82,1.39,33.37-.88,5.28-1.12,10.24-2.72,14.69-4.73,1.12-.5,2.2-1.03,3.24-1.58,1.07-.57,1.82-.99,3.4-1.91.05-.03.1-.06.16-.09l8.95-5.2,35.77-20.79,71.57-41.59,35.77-20.79,8.95-5.2c.78-.45,1.46-.85,2.23-1.3s1.63-.93,2.74-1.56c2.04-1.11,4.14-2.2,6.3-3.23,8.7-4.14,18.53-7.49,29.02-9.9,20.98-4.84,44.42-5.8,66.36-2.74,10.98,1.5,21.57,4.01,31.26,7.38,7.75,2.69,14.89,5.93,21.25,9.61,1.61.92,3.16,1.88,4.67,2.87,15.04,9.74,24.73,22.3,27.21,35.27,2.6,12.96-1.82,26.35-12.66,37.83-2.69,2.87-5.79,5.61-9.21,8.2-1.71,1.29-3.5,2.55-5.37,3.76-.96.6-1.89,1.2-2.87,1.79l-2.54,1.49-17.88,10.4-35.78,20.79-8.94,5.2-4.4,2.57c-1.01.59-1.95,1.2-2.88,1.81-3.65,2.5-6.64,5.29-8.8,8.31-4.37,6.01-5.42,12.86-2.98,19.27,1.2,3.19,3.27,6.28,6.08,9.1,1.4,1.42,2.99,2.77,4.77,4.05.88.63,1.82,1.26,2.79,1.86.49.31.96.57,1.51.91l2.26,1.3,36,20.79,26.08,15.06,24.72-14.36,32.8,70.06-121.05-18.78,24.71-14.36-26.08-15.06-36-20.79-2.26-1.3c-.92-.55-1.96-1.14-2.9-1.73-1.92-1.19-3.77-2.43-5.53-3.7-3.53-2.55-6.73-5.26-9.54-8.11-5.65-5.67-9.78-11.86-12.18-18.24-4.84-12.76-2.77-26.31,5.95-38.38,4.36-6.03,10.34-11.67,17.62-16.62,1.82-1.24,3.72-2.45,5.69-3.59l4.54-2.64,8.94-5.2,35.78-20.79,17.88-10.4,1.92-1.12c.49-.28.97-.61,1.44-.9.96-.61,1.85-1.25,2.71-1.89,1.71-1.3,3.25-2.67,4.59-4.1,5.4-5.7,7.65-12.44,6.34-18.96-1.27-6.54-6.06-12.74-13.61-17.65-.39-.25-.78-.49-1.17-.75-.33-.2-.66-.4-1.01-.6-.06-.04-.14-.08-.2-.12-.12-.06-.23-.13-.35-.2-5.62-3.19-12.32-5.65-19.61-7.21-1.66-.36-3.35-.66-5.06-.92-.42-.06-.83-.13-1.25-.18-11-1.52-22.87-1.05-33.33,1.39-5.24,1.2-10.12,2.87-14.49,4.94-1.93.92-3.31,1.68-5.73,3.09-.36.21-.75.43-1.15.67-.1.06-.21.13-.32.18l-8.95,5.2-35.77,20.79-71.57,41.59-35.77,20.79-8.95,5.2c-.24.14-.5.29-.81.47-1.29.75-3.08,1.76-4.73,2.63-2.08,1.09-4.23,2.14-6.45,3.15-8.87,4-18.88,7.21-29.46,9.45-21.18,4.53-44.65,5.13-66.47,1.77-10.91-1.68-21.4-4.34-30.93-7.85-.26-.09-.51-.19-.77-.28-6.43-2.4-12.38-5.2-17.78-8.3-.08-.05-.18-.1-.26-.16-.09-.05-.19-.1-.28-.17-.9-.53-1.79-1.05-2.65-1.6-1.23-.77-2.44-1.55-3.6-2.35-14.62-9.98-23.73-22.67-25.65-35.65-2.03-12.99,2.99-26.32,14.34-37.64,2.82-2.82,6.03-5.52,9.55-8.05,1.77-1.27,3.61-2.5,5.52-3.68l2.76-1.64,2.24-1.3,17.88-10.4,35.77-20.79,71.57-41.59,143.1-83.17,17.88-10.4,4.01-2.35c.98-.6,1.92-1.21,2.81-1.84,1.78-1.27,3.38-2.61,4.82-4.02,5.69-5.61,8.32-12.29,7.35-18.84-.92-6.56-5.37-12.85-12.65-17.88-1.06-.75-2.18-1.45-3.35-2.13-.05-.03-.1-.06-.15-.08-.21-.13-.43-.24-.65-.37-6.39-3.57-14.16-6.22-22.62-7.68-.44-.07-.88-.15-1.32-.22-10.91-1.72-22.81-1.46-33.39.78-5.3,1.1-10.27,2.68-14.74,4.67-1.11.49-2.22,1.01-3.27,1.56-.51.27-1.04.55-1.54.84l-1.91,1.08-8.95,5.2-71.56,41.58-71.56,41.58-8.95,5.2-2.24,1.3-2.61,1.5c-2.03,1.12-4.1,2.22-6.27,3.24-8.66,4.16-18.46,7.56-28.92,10-20.94,4.9-44.36,5.94-66.33,2.96-10.98-1.47-21.62-3.94-31.34-7.28-1.4-.48-2.78-.98-4.14-1.49-2.75-1.04-5.42-2.15-7.99-3.33-.45-.21-.9-.42-1.34-.63-2.68-1.26-5.25-2.59-7.72-4-.21-.12-.41-.23-.61-.35-.06-.03-.12-.07-.18-.1-.58-.34-1.14-.67-1.7-1.01-.8-.48-1.59-.98-2.35-1.47-7.53-4.84-13.81-10.4-18.48-16.36-4.66-5.96-7.75-12.34-9.08-18.82-2.71-12.95,1.58-26.35,12.3-37.87,2.67-2.88,5.73-5.64,9.12-8.23,1.69-1.3,3.48-2.56,5.33-3.78.92-.62,1.89-1.2,2.86-1.8l2.64-1.55,17.88-10.4,35.78-20.79,8.94-5.2,4.48-2.6c1.08-.64,1.98-1.2,2.93-1.84,3.7-2.48,6.68-5.27,8.88-8.27,4.42-5.99,5.55-12.84,3.16-19.26-1.17-3.2-3.19-6.3-5.99-9.12-1.39-1.42-2.96-2.78-4.74-4.06-.87-.65-1.81-1.27-2.76-1.88-.48-.3-.98-.6-1.48-.89l-2.17-1.27L-100.54-154.51l-1.16.67L474.49,178.82l2.17,1.26c.48.28.97.57,1.43.87.95.59,1.85,1.19,2.7,1.82,1.71,1.25,3.23,2.57,4.59,3.95,2.71,2.75,4.67,5.74,5.81,8.85,2.32,6.23,1.22,12.88-3.07,18.69-2.12,2.92-5.04,5.62-8.62,8.03-.91.62-1.8,1.15-2.86,1.79l-4.48,2.6-8.94,5.2-35.78,20.79-17.88,10.4-2.67,1.58c-.98.6-1.94,1.2-2.88,1.83-1.89,1.23-3.69,2.52-5.42,3.83-3.44,2.64-6.54,5.44-9.25,8.36-10.9,11.68-15.25,25.28-12.48,38.43,1.35,6.57,4.47,13.04,9.21,19.09,4.74,6.05,11.11,11.69,18.76,16.61,1.4.9,2.85,1.79,4.33,2.65,6.59,3.81,14.03,7.16,22.09,9.92,9.87,3.39,20.65,5.89,31.8,7.39,22.3,3.01,46.07,1.96,67.3-3.01,10.62-2.48,20.57-5.92,29.36-10.14,2.19-1.05,4.3-2.16,6.36-3.3l2.64-1.51,2.24-1.3,8.95-5.2,71.56-41.58,71.56-41.58,8.95-5.2,1.88-1.08c.48-.28,1.01-.55,1.51-.82,1.02-.54,2.09-1.03,3.17-1.52,4.34-1.93,9.18-3.45,14.3-4.54,10.27-2.16,21.83-2.43,32.4-.75,8.99,1.41,17.23,4.19,23.89,8.03,1.19.68,2.31,1.4,3.39,2.14,7.06,4.87,11.36,10.98,12.26,17.35.93,6.36-1.61,12.84-7.14,18.28-1.38,1.35-2.94,2.66-4.66,3.9-.87.61-1.8,1.21-2.73,1.8l-3.99,2.33-17.88,10.4-143.1,83.17-71.57,41.59-35.77,20.79-17.88,10.4-2.24,1.3-2.78,1.66c-1.95,1.2-3.81,2.45-5.62,3.73-3.58,2.57-6.84,5.31-9.7,8.18-11.52,11.48-16.62,25.01-14.54,38.19,1.94,13.18,11.18,26.06,26.02,36.18,2.1,1.44,4.32,2.84,6.63,4.17,5.78,3.34,12.17,6.31,19.1,8.87,9.67,3.56,20.32,6.27,31.39,7.96,22.13,3.41,45.96,2.8,67.44-1.8,10.74-2.28,20.9-5.53,29.89-9.6,2.26-1.02,4.44-2.08,6.55-3.18,2.06-1.08,4.33-2.39,5.59-3.14l8.95-5.2,35.77-20.79,71.57-41.59,35.77-20.79,8.95-5.2c3.42-2.01,4.83-2.81,7.07-3.89,4.24-2.02,8.98-3.62,14.05-4.79,10.13-2.35,21.67-2.81,32.35-1.33,9.61,1.31,18.43,4.18,25.47,8.24.8.46,1.58.93,2.32,1.43,7.32,4.76,11.98,10.77,13.21,17.13,1.28,6.33-.91,12.87-6.14,18.41-1.3,1.38-2.79,2.72-4.45,3.97-.85.63-1.71,1.25-2.63,1.84-.47.29-.92.6-1.41.88l-1.9,1.11-17.88,10.4-35.78,20.79-8.94,5.2-4.55,2.65c-2,1.18-3.92,2.38-5.76,3.64-7.39,5.03-13.46,10.75-17.87,16.86-8.89,12.24-10.98,26-6.06,38.94,2.44,6.47,6.63,12.75,12.36,18.51,2.86,2.88,6.11,5.64,9.69,8.22,1.78,1.29,3.66,2.54,5.62,3.75.95.6,2,1.21,2.93,1.76l2.26,1.3,36,20.79,24.92,14.39-25.56,14.86,126.53,19.61-.04-.04Z"/>
        <path class="cls-23" d="M278.16,42.41l10.89,6.29,1.3-.76-10.89-6.29-1.3.76ZM295.59,52.48l10.89,6.29,1.3-.76-10.89-6.29-1.3.76ZM260.74,32.35l10.89,6.29,1.3-.76-10.89-6.29-1.3.76ZM243.31,22.29l10.89,6.29,1.3-.76-10.89-6.29-1.3.76ZM330.43,72.58l10.89,6.29,1.3-.76-10.89-6.29-1.3.76ZM365.28,92.71l10.89,6.29,1.3-.76-10.89-6.29-1.3.76ZM313.01,62.53l10.89,6.29,1.3-.76-10.89-6.29-1.3.76ZM225.9,12.23l10.9,6.29,1.3-.76-10.9-6.29-1.3.76ZM347.86,82.64l10.89,6.29,1.3-.76-10.89-6.29-1.3.76ZM208.48,2.17l10.89,6.29,1.3-.76-10.89-6.29-1.3.76ZM103.94-58.18l10.89,6.29,1.3-.76-10.89-6.29-1.3.76ZM138.79-38.06l10.89,6.29,1.3-.76-10.89-6.29-1.3.76ZM86.52-68.24l10.89,6.29,1.3-.76-10.89-6.29-1.3.76ZM121.37-48.12l10.89,6.29,1.3-.76-10.89-6.29-1.3.76ZM156.21-28.01l10.89,6.29,1.3-.76-10.89-6.29-1.3.76ZM191.06-7.89l10.89,6.29,1.3-.76-10.89-6.29-1.3.76ZM173.63-17.95l10.89,6.29,1.3-.76-10.89-6.29-1.3.76ZM69.09-78.3l10.9,6.29,1.3-.76-10.9-6.29-1.3.76ZM382.7,102.76l10.9,6.29,1.3-.76-10.9-6.29-1.3.76ZM447.46,351.88c4.53,1.47,9.27,2.69,14.19,3.64l.58-1.01c-4.8-.93-9.45-2.13-13.87-3.56l-.89.92h0ZM434.97,132.94l10.89,6.29,1.3-.76-10.89-6.29-1.3.76ZM431.12,273.74l1.31.76,10.81-6.29-1.31-.76-10.81,6.29ZM470.63,356.95c5.06.64,10.23,1,15.39,1.08l.04-1.07c-5.06-.08-10.1-.43-15.05-1.05l-.39,1.04h0ZM452.4,143.01l10.89,6.29,1.3-.76-10.89-6.29-1.3.76ZM429.16,342.38l-1.33.75c.42.24.82.48,1.25.74,3.25,1.88,6.78,3.6,10.51,5.15l1.06-.86c-3.65-1.51-7.09-3.19-10.28-5.03-.41-.24-.81-.48-1.21-.71v-.02ZM476.55,247.35l-10.81,6.29,1.31.76,10.81-6.29-1.31-.76ZM459.24,257.41l-10.81,6.29,1.31.76,10.81-6.29-1.31-.76ZM405.57,317.83c.89,2.95,2.29,5.86,4.12,8.67l1.72-.38c-1.79-2.74-3.15-5.59-4.02-8.47l-1.82.18ZM406.74,303.64l-1.83-.13c-.62,2.97-.76,5.99-.44,8.98l1.84-.06c-.31-2.93-.17-5.86.43-8.78h0ZM415.69,284.9l1.6.54c2.54-2.52,5.51-4.9,8.83-7.12l-1.39-.7c-3.38,2.27-6.42,4.69-9.03,7.29h-.01ZM412.31,118.35l-10.89-6.29-1.3.76,10.89,6.29,1.3-.76ZM408.34,298.45h0ZM415.09,330.96l-1.65.48c2.35,2.68,5.13,5.22,8.3,7.6l1.45-.65c-3.09-2.32-5.8-4.82-8.1-7.43ZM406.54,298.2l1.8.25c1.15-2.85,2.76-5.64,4.81-8.32l-1.68-.43c-2.09,2.74-3.73,5.59-4.91,8.49h-.01ZM-52.87-148.71l10.89,6.29,1.3-.76-10.89-6.29-1.3.76ZM655.83,280.93l-1.31-.76-10.82,6.29,1.31.76,10.82-6.29ZM673.13,270.87l-1.31-.76-10.82,6.29,1.31.76,10.82-6.29ZM631.42,295.11l7.1-4.13-1.31-.76-7.1,4.13-3.72,2.16,1.31.76,3.72-2.16ZM51.67-88.36l10.89,6.29,1.3-.76-10.89-6.29-1.3.76ZM743.16,236.54c1.6-.33,3.2-.63,4.83-.91l-.53-1.03c-1.66.28-3.31.6-4.93.93-3.23.67-6.39,1.47-9.46,2.36l.85.96c2.99-.88,6.09-1.65,9.25-2.32h-.01ZM559.86,336.69l9.42-5.47-1.31-.76-9.42,5.47-1.41.82,1.31.76,1.41-.82ZM621.2,301.04l-1.31-.76-10.82,6.29,1.31.76,10.82-6.29ZM586.58,321.16l-1.31-.76-10.82,6.29,1.31.76,10.82-6.29ZM948.97,465.14l1.55-.57c-2.38-2.16-5.07-4.23-8.02-6.14-.49-.31-.99-.64-1.49-.96l-1.34.72c.49.3.97.62,1.46.93,2.89,1.88,5.51,3.9,7.84,6.01h0ZM541.64,346.96c2.61-1.23,5.01-2.59,7.36-3.96.63-.37,1.27-.75,1.91-1.11l1.05-.61-1.31-.76-1.05.61c-.63.37-1.27.75-1.9,1.11-2.34,1.35-4.7,2.69-7.23,3.89-.3.14-.6.28-.88.42l1.14.83c.31-.15.61-.28.91-.43h0ZM960.61,477.67c-1.4-2.89-3.23-5.7-5.52-8.39l-1.66.46c2.24,2.64,4.05,5.39,5.41,8.21l1.77-.28ZM934.26,453.73c-3.94-1.95-8.18-3.7-12.66-5.2l-.92.92c4.39,1.47,8.55,3.17,12.39,5.08l1.2-.81ZM850.39,446.2c4.73-1.04,9.61-1.83,14.6-2.35l-.33-1.05c-5.08.53-10.08,1.33-14.92,2.4l.66.99h-.01ZM852.94,277.53l1.83-.08v-.12c-.43-2.95-1.31-5.87-2.66-8.73l-1.77.27c1.3,2.79,2.19,5.65,2.58,8.54l.03.12h-.01ZM851.31,291.52l1.81.23c1.1-2.93,1.73-5.91,1.89-8.9l-1.85-.04c-.15,2.93-.78,5.85-1.86,8.7h.01ZM818.64,241.27c-4.26-1.7-8.79-3.18-13.52-4.4l-.73.98c4.62,1.2,9.05,2.65,13.22,4.3l1.04-.88h0ZM690.45,260.81l-1.31-.76-10.83,6.29,1.31.76,10.83-6.29ZM-35.44-138.65l10.89,6.29,1.3-.76-10.89-6.29-1.3.76ZM493.86,237.28c-.25.15-.5.29-.76.44-.3.18-.6.35-.89.53l-8.94,5.2-.22.13,1.31.76.22-.13,8.94-5.2h0c.28-.18.58-.35.87-.53.25-.15.5-.29.77-.44l-1.31-.76h.01ZM-18.02-128.6l10.89,6.29,1.3-.76-10.89-6.29-1.3.76ZM518.71,353.62l.68.99.33-.07c4.69-1.09,9.2-2.44,13.47-4.01l-.99-.9c-4.17,1.54-8.58,2.86-13.17,3.92l-.31.08h-.01ZM16.82-108.48l10.89,6.29,1.3-.76-10.89-6.29-1.3.76ZM34.25-98.42l10.89,6.29,1.3-.76-10.89-6.29-1.3.76ZM-81.79-165.41l4.97,2.87,1.3-.76-4.97-2.87-1.3.76ZM-.6-118.54l10.89,6.29,1.3-.76-10.89-6.29-1.3.76ZM-70.29-158.77l10.89,6.29,1.3-.76-10.89-6.29-1.3.76ZM519.95,208.27l1.83.14c.67-2.97.85-5.99.58-8.98l-1.84.05c.27,2.93.08,5.87-.57,8.78h0ZM513.6,512.57l1.84.14c.64-2.9,1.73-5.78,3.29-8.56l-1.75-.34c-1.59,2.86-2.71,5.79-3.37,8.76ZM519.5,194.24l1.82-.17c-.21-.69-.43-1.39-.68-2.08-.82-2.24-1.92-4.45-3.28-6.6l-1.73.36c1.33,2.11,2.41,4.27,3.21,6.47.25.67.47,1.34.67,2.03h-.01ZM482.01,158.59l-10.89-6.29-1.3.76,10.89,6.29,1.3-.76ZM515.03,222.18c.27-.35.54-.69.8-1.05,1.76-2.39,3.18-4.88,4.25-7.42l-1.79-.25c-1.04,2.48-2.44,4.91-4.17,7.26-.24.35-.5.69-.78,1.03l1.68.44h0ZM429.74,128.41l-10.89-6.29-1.3.76,10.89,6.29,1.3-.76ZM494.42,167.26c.49.27.98.55,1.47.83.75.43,1.48.86,2.19,1.31l1.33-.74c-.72-.45-1.48-.9-2.24-1.33-.5-.28-.99-.57-1.49-.85l-7.15-4.13-1.3.76,7.17,4.14h.01ZM603.9,311.1l-1.31-.76-10.82,6.29,1.31.76,10.82-6.29ZM834.16,250.9c.39.27.78.55,1.15.83l1.44-.67c-.39-.28-.8-.56-1.2-.84-1.66-1.15-3.4-2.27-5.25-3.33-1.4-.81-2.82-1.58-4.3-2.31l-1.21.81c1.45.72,2.85,1.48,4.2,2.27,1.8,1.04,3.52,2.12,5.15,3.25h.02ZM828.22,452.24l1.13.84c3.99-1.81,8.25-3.39,12.75-4.74l-.85-.95c-4.59,1.36-8.96,2.99-13.03,4.84h0ZM829.32,316.34c2.42-1.41,4.81-2.84,6.99-4.4,1.04-.75,2.05-1.5,3-2.28l-1.49-.62c-.95.76-1.93,1.5-2.96,2.23-2.1,1.51-4.45,2.93-6.86,4.33l-.13.07,1.3.76.13-.07h.01ZM810.57,325.72l1.31.76,10.82-6.29-1.31-.76-10.82,6.29ZM848.89,296.59c-1.62,2.78-3.69,5.47-6.16,8.01l1.62.53c2.53-2.6,4.64-5.35,6.29-8.19l-1.74-.35ZM847.57,601.28l-1.85.07c.27,2.35.86,4.68,1.73,6.99.25.63.5,1.25.78,1.87l1.78-.26c-.27-.61-.53-1.22-.77-1.83-.85-2.25-1.42-4.55-1.69-6.85h.01ZM849.18,263.48c-1.91-2.79-4.26-5.48-7.02-8.02l-1.55.57c2.69,2.48,4.99,5.11,6.86,7.83l1.72-.39h0ZM817.4,457.99l-7.02,4.08,1.31.76,7.02-4.08,3.81-2.2-1.29-.76-3.82,2.2h-.01ZM849.41,587.32l-1.78-.24c-1.15,2.92-1.84,5.9-2.04,8.89l1.84.04c.21-2.93.87-5.85,2-8.69h-.01ZM793.25,335.78l1.31.76,10.82-6.29-1.31-.76-10.82,6.29ZM756.85,234.44c4.98-.49,10.04-.74,15.1-.7v-1.06c-5.16-.04-10.33.2-15.41.71l.32,1.05ZM758.63,355.9l1.31.76,10.82-6.29-1.31-.76-10.82,6.29ZM775.77,482.18l1.31.76,10.82-6.29-1.31-.76-10.82,6.29ZM775.94,345.84l1.31.76,10.83-6.29-1.31-.76-10.83,6.29ZM793.08,472.12l1.31.76,10.82-6.29-1.31-.76-10.82,6.29ZM796.4,234.95c-1.12-.21-2.26-.4-3.4-.58-3.85-.61-7.78-1.05-11.75-1.33l-.22,1.06c3.87.27,7.72.71,11.51,1.3,1.11.17,2.22.36,3.32.56l.55-1.01h0ZM963.13,485.17c-.15-.75-.33-1.49-.54-2.24l-1.82.17c.2.72.37,1.45.51,2.17.43,2.19.61,4.39.51,6.58l1.84.03c.09-2.25-.07-4.49-.53-6.73h.01ZM925.2,533.11l-1.31-.76-5.02,2.92-5.8,3.37,1.31.76,5.8-3.37,5.02-2.92ZM897.73,648.27l10.89,6.29,1.3-.76-10.89-6.29-1.3.76ZM939.1,525.04c1.14-.67,2.26-1.35,3.35-2.06l-1.38-.71c-1.06.68-2.16,1.35-3.29,2.02-.34.2-.68.4-1.03.59h0l-6.36,3.71,1.31.76,6.36-3.7c.35-.2.71-.4,1.05-.6h-.02ZM899.09,443.35c-.18-.02-.36-.05-.54-.07l-.41,1.04c.19.03.36.05.54.07,4.76.65,9.41,1.55,13.88,2.69l.72-.98c-4.57-1.15-9.32-2.09-14.19-2.74h-.01ZM758.46,492.24l1.31.76,10.82-6.29-1.31-.76-10.82,6.29ZM956.01,511.02l-1.67-.45c-.76.96-1.56,1.88-2.44,2.8-1.55,1.65-3.28,3.25-5.16,4.78l1.5.62c1.92-1.56,3.7-3.19,5.28-4.89.88-.93,1.71-1.89,2.49-2.87h-.01ZM957.67,505.68l1.76.34c1.62-2.85,2.78-5.78,3.48-8.75l-1.82-.15c-.68,2.91-1.83,5.78-3.42,8.55h0ZM873.9,633h0c-.56-.3-1.1-.62-1.65-.93-2.67-1.54-5.2-3.17-7.51-4.88l-1.45.65c2.37,1.75,4.95,3.41,7.65,4.99.55.31,1.11.63,1.68.95l1.15.67,1.3-.76-1.17-.67h-.02ZM872.42,563.76c.27-.16.56-.33.85-.48l-1.31-.76c-.28.17-.57.33-.84.48-1.98,1.15-3.96,2.32-5.79,3.59-1.26.85-2.46,1.73-3.61,2.64l1.49.63c1.12-.88,2.3-1.74,3.53-2.57,1.77-1.22,3.7-2.37,5.67-3.53h.01ZM906.57,542.42l-10.82,6.29,1.31.76,10.82-6.29-1.31-.76ZM858.28,621.64c-2.12-2.13-3.95-4.36-5.48-6.66l-1.72.38c1.56,2.35,3.43,4.63,5.61,6.81.41.42.84.84,1.28,1.25l1.56-.56c-.42-.4-.84-.81-1.24-1.21h0v-.02ZM853.68,579.62c1.32-1.84,2.85-3.61,4.55-5.33l-1.6-.54c-1.74,1.75-3.31,3.58-4.66,5.45-.65.89-1.24,1.79-1.8,2.7l1.74.35c.54-.89,1.12-1.76,1.75-2.64h.01ZM889.38,442.35c-5.15-.35-10.34-.42-15.5-.21l.15,1.06c5.04-.2,10.12-.13,15.15.21l.2-1.06ZM880.3,638.21l10.89,6.29,1.3-.76-10.89-6.29-1.3.76ZM890.57,553.23l-1.31-.76-6.18,3.59-4.63,2.7,1.31.76,4.63-2.7,6.18-3.59ZM637.46,426.31l1.31.76,10.82-6.29-1.31-.76-10.82,6.29ZM620.15,436.38l1.31.76,10.83-6.29-1.31-.76-10.83,6.29ZM597.67,450.96l-1.31-.76-2.64,1.53-8.18,4.76,1.31.76,8.18-4.76,2.64-1.53ZM564.72,562.51l-.72.98c3.71.92,7.53,1.69,11.45,2.28,1.1.18,2.22.34,3.34.47l.4-1.04c-1.08-.14-2.18-.3-3.27-.46-3.81-.58-7.55-1.32-11.18-2.23h-.01ZM542.9,555.96c3.97,1.93,8.24,3.65,12.75,5.13l.89-.92c-4.4-1.45-8.58-3.14-12.45-5.03l-1.19.82h0ZM557.95,472.53l-7.02,4.08,1.31.76,7.02-4.08,3.79-2.2-1.31-.76-3.79,2.2ZM625.26,563.44c-4.2.9-8.54,1.59-12.95,2.07l.35,1.05c4.5-.49,8.94-1.2,13.23-2.12.56-.12,1.09-.24,1.65-.37l-.68-.99c-.54.12-1.07.24-1.61.36h.01ZM613.67,440.14l-10.82,6.29,1.31.76,10.82-6.29-1.31-.76ZM588.13,566.06l-.19,1.06c5.15.31,10.33.36,15.5.14l-.15-1.06c-5.05.22-10.13.18-15.16-.14ZM568.23,466.54l1.31.76,10.82-6.29-1.31-.76-10.82,6.29ZM514.78,517.96l-1.84-.02c-.05,1.7.06,3.38.34,5.07h0c.2,1.29.47,2.59.86,3.87l1.82-.17c-.37-1.26-.65-2.53-.84-3.8-.25-1.65-.37-3.31-.33-4.96h-.01ZM511.54,178.14c-1.82-1.86-3.86-3.65-6.1-5.34l-1.46.64c2.18,1.66,4.18,3.4,5.96,5.22.72.74,1.42,1.48,2.07,2.24l1.64-.47c-.66-.78-1.36-1.53-2.1-2.29h-.01ZM500.94,232.98c-.24.17-.48.33-.74.48l1.39.71c.25-.17.5-.34.76-.51,3.12-2.09,5.92-4.35,8.37-6.73l-1.59-.56c-2.39,2.33-5.15,4.54-8.19,6.58v.02ZM534.11,549.38c-2.19-1.5-4.24-3.09-6.08-4.75l-1.54.58c1.89,1.69,3.98,3.31,6.23,4.85,1.09.76,2.23,1.49,3.39,2.2l1.33-.75c-1.14-.69-2.26-1.42-3.33-2.14h0ZM741.33,365.95l1.31.76,10.82-6.29-1.31-.76-10.82,6.29ZM516.21,532.16c1.43,2.89,3.33,5.69,5.65,8.37l1.64-.47c-2.27-2.63-4.13-5.37-5.52-8.19l-1.75.29h-.01ZM527.95,490.99c-1.35,1.12-2.64,2.28-3.82,3.46-1.4,1.41-2.69,2.85-3.83,4.33l1.68.44c1.12-1.45,2.36-2.87,3.75-4.23,1.15-1.15,2.4-2.29,3.73-3.38l-1.51-.62h.01ZM544.43,480.37l-4.37,2.54c-.5.29-1.01.59-1.51.88-1.66.97-3.3,1.94-4.86,2.96l1.39.7c1.53-.99,3.14-1.95,4.78-2.92.49-.28,1.01-.58,1.51-.86h0l4.37-2.55-1.31-.76h.01ZM706.7,386.07l1.31.76,10.82-6.29-1.31-.76-10.82,6.29ZM725.03,240.62c-1.67.64-3.32,1.31-4.9,2.02-2.51,1.11-4.89,2.32-7.17,3.59l1.28.77c2.23-1.24,4.57-2.41,7.01-3.5,1.55-.69,3.16-1.35,4.8-1.98l-1.02-.89h0ZM706.53,522.41l1.31.76,10.82-6.29-1.31-.76-10.82,6.29ZM689.4,396.13l1.31.76,10.82-6.29-1.31-.76-10.82,6.29ZM706.44,249.99l-4.78,2.78-6.04,3.51,1.31.76,6.04-3.51,4.78-2.78-1.31-.76ZM647.09,556.42c-3.74,1.69-7.75,3.18-11.96,4.46l.87.95c4.29-1.31,8.39-2.84,12.21-4.57.25-.12.49-.22.75-.34l-1.14-.83c-.24.1-.47.22-.72.33h0ZM723.84,512.37l1.31.76,10.83-6.29-1.31-.76-10.83,6.29ZM724.02,376.01l1.31.76,10.82-6.29-1.31-.76-10.82,6.29ZM741.15,502.31l1.31.76,10.82-6.29-1.31-.76-10.82,6.29ZM671.91,542.54l1.31.76,10.82-6.29-1.31-.76-10.82,6.29ZM665.29,410.15l-10.51,6.1,1.31.76,10.51-6.1.32-.18-1.31-.76-.32.18ZM689.22,532.47l1.31.76,10.82-6.29-1.31-.76-10.82,6.29ZM665.35,546.35l-8.95,5.2c-.3.19-.6.36-.9.54-.29.17-.59.34-.88.5l1.3.77c.29-.17.59-.34.88-.51.29-.18.61-.36.91-.54l8.95-5.2.06-.04-1.31-.76-.06.04ZM672.09,406.19l1.31.76,10.82-6.29-1.31-.76-10.82,6.29ZM495.17,356.81l.16,1.06c5.15-.24,10.26-.77,15.25-1.55l-.49-1.03c-4.88.77-9.88,1.28-14.92,1.51h.01ZM949.98,678.43l10.89,6.29,1.3-.76-10.89-6.29-1.3.76ZM915.14,658.32l10.89,6.29,1.3-.76-10.89-6.29-1.3.76ZM932.56,668.38l10.89,6.29,1.3-.76-10.89-6.29-1.3.76ZM968.71,687.74l-1.3.76,10.89,6.29,1.3-.76-10.89-6.29Z"/>
      </g>
    </g>
    <g id="Layer_1-2" data-name="Layer 1">
      <g>
        <g>
          <g>
            <path class="cls-9" d="M857.86,524.25c-19.56,0-35.42,15.84-35.42,35.41,0,.37,0,.74.03,1.11.76,24.56,35.38,64.6,35.38,64.6,0,0,34.63-40.05,35.37-64.6.02-.38.03-.75.03-1.11,0-19.56-15.85-35.41-35.41-35.41h0ZM857.86,587.24c-15.24,0-27.59-12.36-27.59-27.59,0-12.99,10.24-27.58,27.59-27.58,15.24,0,27.58,12.35,27.58,27.58,0,12.99-10.23,27.59-27.58,27.59Z"/>
            <path class="cls-21" d="M885.43,559.66c0,12.99-10.23,27.59-27.58,27.59-15.24,0-27.59-12.36-27.59-27.59,0-12.99,10.24-27.58,27.59-27.58,15.24,0,27.58,12.35,27.58,27.58Z"/>
          </g>
          <g class="cls-13">
            <text class="cls-16" transform="translate(834.16 566.45)"><tspan x="0" y="0">2024</tspan></text>
          </g>
        </g>
        <g>
          <g class="cls-13">
            <text class="cls-14" transform="translate(607.47 654.46)"><tspan x="0" y="0">Solar</tspan></text>
            <text class="cls-14" transform="translate(675.12 654.46)"><tspan x="0" y="0">V</tspan></text>
            <text class="cls-14" transform="translate(695.35 654.46)"><tspan x="0" y="0">ision.AI</tspan></text>
          </g>
          <g class="cls-13">
            <text class="cls-17" transform="translate(597.3 673.91)"><tspan x="0" y="0">Intelligent Diagnostic </tspan></text>
            <text class="cls-17" transform="translate(727.71 673.91)"><tspan x="0" y="0">T</tspan></text>
            <text class="cls-17" transform="translate(733.8 673.91)"><tspan x="0" y="0">ool for Solar</tspan></text>
          </g>
        </g>
        <g>
          <path class="cls-2" d="M806.32,561.01h-81.65c-11.17,0-20.23,6.29-20.23,14.05v48.54"/>
          <path class="cls-22" d="M856.76,507.65c-27.99,0-50.77,22.77-50.77,50.76,0,4.64.63,9.15,1.8,13.42h2.05c-1.22-4.26-1.88-8.77-1.88-13.42,0-26.9,21.89-48.79,48.8-48.79,9.27,0,17.94,2.6,25.34,7.11l1.56-1.32c-7.8-4.91-17.02-7.75-26.9-7.75h0Z"/>
          <circle class="cls-22" cx="809.25" cy="572.59" r="3.35"/>
          <circle class="cls-22" cx="882.4" cy="516.53" r="3.35"/>
        </g>
      </g>
      <g>
        <g>
          <g class="cls-13">
            <text class="cls-14" transform="translate(268.66 424.82)"><tspan x="0" y="0">Pulse</tspan></text>
          </g>
          <g class="cls-13">
            <text class="cls-17" transform="translate(202.37 444.26)"><tspan x="0" y="0">360° Renewable Insights – Drive</tspan></text>
            <text class="cls-17" transform="translate(229.56 462.22)"><tspan x="0" y="0">Performance with Data</tspan></text>
          </g>
        </g>
        <g>
          <g>
            <path class="cls-7" d="M514.82,410.45c-19.56,0-35.42,15.84-35.42,35.41,0,.37,0,.74.03,1.11.76,24.56,35.39,64.6,35.39,64.6,0,0,34.63-40.05,35.37-64.6.02-.38.03-.75.03-1.11,0-19.56-15.85-35.41-35.41-35.41h0ZM514.82,473.44c-15.24,0-27.59-12.36-27.59-27.59,0-12.99,10.24-27.58,27.59-27.58,15.24,0,27.58,12.35,27.58,27.58,0,12.99-10.23,27.59-27.58,27.59Z"/>
            <path class="cls-21" d="M542.41,445.85c0,12.99-10.23,27.59-27.58,27.59-15.24,0-27.59-12.36-27.59-27.59,0-12.99,10.24-27.58,27.59-27.58,15.24,0,27.58,12.35,27.58,27.58Z"/>
          </g>
          <g class="cls-13">
            <text class="cls-16" transform="translate(491.14 452.65)"><tspan x="0" y="0">2023</tspan></text>
          </g>
        </g>
        <g>
          <line class="cls-2" x1="347.86" y1="418.45" x2="470.41" y2="418.45"/>
          <path class="cls-22" d="M513.54,393.37c-27.99,0-50.77,22.77-50.77,50.76,0,4.64.63,9.15,1.8,13.42h2.05c-1.22-4.26-1.88-8.77-1.88-13.42,0-26.9,21.89-48.79,48.8-48.79,9.27,0,17.94,2.6,25.34,7.11l1.56-1.32c-7.8-4.91-17.02-7.75-26.9-7.75h0Z"/>
          <circle class="cls-22" cx="466.03" cy="458.31" r="3.35"/>
          <circle class="cls-22" cx="539.18" cy="402.25" r="3.35"/>
        </g>
      </g>
      <g>
        <g>
          <g>
            <path class="cls-6" d="M427.77,28.3c-19.56,0-35.42,15.84-35.42,35.41,0,.37,0,.74.03,1.11.76,24.56,35.39,64.6,35.39,64.6,0,0,34.63-40.05,35.37-64.6.02-.38.03-.75.03-1.11,0-19.56-15.85-35.41-35.41-35.41h0ZM427.77,91.28c-15.24,0-27.59-12.36-27.59-27.59,0-12.99,10.24-27.58,27.59-27.58,15.24,0,27.58,12.35,27.58,27.58,0,12.99-10.23,27.59-27.58,27.59Z"/>
            <path class="cls-21" d="M455.35,63.7c0,12.99-10.23,27.59-27.58,27.59-15.24,0-27.59-12.36-27.59-27.59,0-12.99,10.24-27.58,27.59-27.58,15.24,0,27.58,12.35,27.58,27.58Z"/>
          </g>
          <g class="cls-13">
            <text class="cls-16" transform="translate(404.08 70.51)"><tspan x="0" y="0">2021</tspan></text>
          </g>
        </g>
        <g>
          <g class="cls-13">
            <text class="cls-14" transform="translate(566.78 43.63)"><tspan x="0" y="0">Assu</tspan></text>
            <text class="cls-14" transform="translate(630.27 43.63)"><tspan x="0" y="0">r</tspan></text>
            <text class="cls-14" transform="translate(641.29 43.63)"><tspan x="0" y="0">e</tspan></text>
          </g>
          <g class="cls-13">
            <text class="cls-17" transform="translate(489.18 63.07)"><tspan x="0" y="0">Govern. Digitize. Ene</tspan></text>
            <text class="cls-17" transform="translate(615.97 63.07)"><tspan x="0" y="0">r</tspan></text>
            <text class="cls-17" transform="translate(620.59 63.07)"><tspan x="0" y="0">gize – St</tspan></text>
            <text class="cls-17" transform="translate(671.2 63.07)"><tspan x="0" y="0">r</tspan></text>
            <text class="cls-17" transform="translate(675.83 63.07)"><tspan x="0" y="0">eamlining</tspan></text>
            <text class="cls-17" transform="translate(512.87 81.03)"><tspan x="0" y="0">Compliance for a G</tspan></text>
            <text class="cls-17" transform="translate(628.26 81.03)"><tspan x="0" y="0">r</tspan></text>
            <text class="cls-17" transform="translate(632.88 81.03)"><tspan x="0" y="0">eener Futu</tspan></text>
            <text class="cls-17" transform="translate(697.63 81.03)"><tspan x="0" y="0">r</tspan></text>
            <text class="cls-17" transform="translate(702.25 81.03)"><tspan x="0" y="0">e</tspan></text>
          </g>
        </g>
        <g>
          <line class="cls-2" x1="558.04" y1="33.73" x2="467.36" y2="33.73"/>
          <path class="cls-22" d="M400.98,21.88l1.56,1.32c7.39-4.5,16.08-7.11,25.34-7.11,26.91,0,48.8,21.89,48.8,48.79,0,4.65-.66,9.16-1.88,13.42h2.05c1.17-4.27,1.8-8.78,1.8-13.42,0-27.98-22.77-50.76-50.77-50.76-9.88,0-19.1,2.84-26.9,7.75h0Z"/>
          <circle class="cls-22" cx="475.39" cy="79.07" r="3.35"/>
          <circle class="cls-22" cx="402.24" cy="23.01" r="3.35"/>
        </g>
      </g>
      <g>
        <g>
          <g>
            <path class="cls-5" d="M764.62,133.35c-19.56,0-35.42,15.84-35.42,35.41,0,.37,0,.74.03,1.11.76,24.56,35.38,64.6,35.38,64.6,0,0,34.63-40.05,35.37-64.6.02-.38.03-.75.03-1.11,0-19.56-15.85-35.41-35.41-35.41h0ZM764.62,196.35c-15.24,0-27.59-12.36-27.59-27.59,0-12.99,10.24-27.58,27.59-27.58,15.24,0,27.58,12.35,27.58,27.58,0,12.99-10.23,27.59-27.58,27.59Z"/>
            <path class="cls-21" d="M792.19,168.75c0,12.99-10.23,27.59-27.58,27.59-15.24,0-27.59-12.36-27.59-27.59,0-12.99,10.24-27.58,27.59-27.58,15.24,0,27.58,12.35,27.58,27.58h0Z"/>
          </g>
          <g class="cls-13">
            <text class="cls-16" transform="translate(740.92 175.56)"><tspan x="0" y="0">2023</tspan></text>
          </g>
        </g>
        <g>
          <g class="cls-13">
            <text class="cls-14" transform="translate(941.81 141.61)"><tspan x="0" y="0">Nexus</tspan></text>
          </g>
          <g class="cls-13">
            <text class="cls-17" transform="translate(908.91 161.06)"><tspan x="0" y="0">Renewable P</tspan></text>
            <text class="cls-17" transform="translate(985.57 161.06)"><tspan x="0" y="0">r</tspan></text>
            <text class="cls-17" transform="translate(990.2 161.06)"><tspan x="0" y="0">ocu</tspan></text>
            <text class="cls-17" transform="translate(1011.64 161.06)"><tspan x="0" y="0">r</tspan></text>
            <text class="cls-17" transform="translate(1016.26 161.06)"><tspan x="0" y="0">ement </tspan></text>
            <text class="cls-17" transform="translate(912.24 179.01)"><tspan x="0" y="0">Simplified </tspan></text>
            <text class="cls-17" transform="translate(974.75 179.01)"><tspan x="0" y="0">T</tspan></text>
            <text class="cls-17" transform="translate(981.08 179.01)"><tspan x="0" y="0">ranspa</tspan></text>
            <text class="cls-17" transform="translate(1020.73 179.01)"><tspan x="0" y="0">r</tspan></text>
            <text class="cls-17" transform="translate(1025.37 179.01)"><tspan x="0" y="0">ently</tspan></text>
          </g>
        </g>
        <g>
          <line class="cls-2" x1="934.62" y1="134.37" x2="805.42" y2="134.37"/>
          <path class="cls-22" d="M739.03,122.5l1.56,1.32c7.39-4.5,16.08-7.11,25.34-7.11,26.91,0,48.8,21.89,48.8,48.79,0,4.65-.66,9.16-1.88,13.42h2.05c1.17-4.27,1.8-8.78,1.8-13.42,0-27.98-22.77-50.76-50.77-50.76-9.88,0-19.1,2.84-26.9,7.75h0Z"/>
          <circle class="cls-22" cx="813.44" cy="179.69" r="3.35"/>
          <circle class="cls-22" cx="740.29" cy="123.64" r="3.35"/>
        </g>
      </g>
      <g>
        <g>
          <g>
            <path class="cls-4" d="M898.02,342.49c-19.56,0-35.42,15.84-35.42,35.41,0,.37,0,.74.03,1.11.76,24.56,35.38,64.6,35.38,64.6,0,0,34.63-40.05,35.37-64.6.02-.38.03-.75.03-1.11,0-19.56-15.85-35.41-35.41-35.41h0ZM898.02,405.48c-15.24,0-27.59-12.36-27.59-27.59,0-12.99,10.24-27.58,27.59-27.58,15.24,0,27.58,12.35,27.58,27.58,0,12.99-10.23,27.59-27.58,27.59Z"/>
            <path class="cls-21" d="M925.59,377.89c0,12.99-10.23,27.59-27.58,27.59-15.24,0-27.59-12.36-27.59-27.59,0-12.99,10.24-27.58,27.59-27.58,15.24,0,27.58,12.35,27.58,27.58Z"/>
          </g>
          <g class="cls-13">
            <text class="cls-16" transform="translate(874.32 384.7)"><tspan x="0" y="0">2023</tspan></text>
          </g>
        </g>
        <g>
          <g class="cls-13">
            <text class="cls-14" transform="translate(1066.99 350.06)"><tspan x="0" y="0">Horizon</tspan></text>
          </g>
          <g class="cls-13">
            <text class="cls-17" transform="translate(1010.97 369.51)"><tspan x="0" y="0">P</tspan></text>
            <text class="cls-17" transform="translate(1018.76 369.51)"><tspan x="0" y="0">r</tspan></text>
            <text class="cls-17" transform="translate(1023.38 369.51)"><tspan x="0" y="0">ecision Fo</tspan></text>
            <text class="cls-17" transform="translate(1083.27 369.51)"><tspan x="0" y="0">r</tspan></text>
            <text class="cls-17" transform="translate(1087.89 369.51)"><tspan x="0" y="0">ecasting for Renewable</tspan></text>
            <text class="cls-17" transform="translate(1004.65 387.47)"><tspan x="0" y="0">Ene</tspan></text>
            <text class="cls-17" transform="translate(1027.29 387.47)"><tspan x="0" y="0">r</tspan></text>
            <text class="cls-17" transform="translate(1031.92 387.47)"><tspan x="0" y="0">gy – Optimize, Save, and Succeed</tspan></text>
          </g>
        </g>
        <g>
          <line class="cls-2" x1="1061.55" y1="340.4" x2="936.91" y2="340.4"/>
          <path class="cls-22" d="M873.26,331.27l1.56,1.32c7.39-4.5,16.08-7.11,25.34-7.11,26.91,0,48.8,21.89,48.8,48.79,0,4.65-.66,9.16-1.88,13.42h2.05c1.17-4.27,1.8-8.78,1.8-13.42,0-27.98-22.77-50.76-50.77-50.76-9.88,0-19.1,2.84-26.9,7.75h0Z"/>
          <circle class="cls-22" cx="947.68" cy="388.47" r="3.35"/>
          <circle class="cls-22" cx="874.52" cy="332.42" r="3.35"/>
        </g>
      </g>
      <g class="cls-19">
        <g>
          <g>
            <g>
              <path class="cls-3" d="M407.78,207.22c-19.56,0-35.42,15.84-35.42,35.41,0,.37,0,.74.03,1.11.76,24.56,35.39,64.6,35.39,64.6,0,0,34.63-40.05,35.37-64.6.02-.38.03-.75.03-1.11,0-19.56-15.85-35.41-35.41-35.41h0ZM407.78,270.22c-15.24,0-27.59-12.36-27.59-27.59,0-12.99,10.24-27.58,27.59-27.58,15.24,0,27.58,12.35,27.58,27.58,0,12.99-10.23,27.59-27.58,27.59Z"/>
              <path class="cls-21" d="M435.35,242.62c0,12.99-10.23,27.59-27.58,27.59-15.24,0-27.59-12.36-27.59-27.59,0-12.99,10.24-27.58,27.59-27.58,15.24,0,27.58,12.35,27.58,27.58Z"/>
            </g>
            <g class="cls-13">
              <text class="cls-16" transform="translate(384.08 249.43)"><tspan x="0" y="0">2022</tspan></text>
            </g>
          </g>
          <g>
            <g class="cls-13">
              <text class="cls-14" transform="translate(170.67 228.06)"><tspan x="0" y="0">Flow</tspan></text>
            </g>
            <g class="cls-13">
              <text class="cls-17" transform="translate(91.66 247.5)"><tspan x="0" y="0">Digitalize Renewable Site Operations</tspan></text>
              <text class="cls-17" transform="translate(127.52 265.46)"><tspan x="0" y="0">for Unmatched E</tspan></text>
              <text class="cls-17" transform="translate(228.29 265.46)"><tspan x="0" y="0">f</tspan></text>
              <text class="cls-17" transform="translate(232.43 265.46)"><tspan x="0" y="0">ficiency</tspan></text>
            </g>
          </g>
          <g>
            <line class="cls-2" x1="244.86" y1="220.05" x2="360.05" y2="220.05"/>
            <path class="cls-22" d="M405.92,190.4c-27.99,0-50.77,22.77-50.77,50.76,0,4.64.63,9.15,1.8,13.42h2.05c-1.22-4.26-1.88-8.77-1.88-13.42,0-26.9,21.89-48.79,48.8-48.79,9.27,0,17.94,2.6,25.34,7.11l1.56-1.32c-7.8-4.91-17.02-7.75-26.9-7.75h0Z"/>
            <circle class="cls-22" cx="358.42" cy="255.34" r="3.35"/>
            <circle class="cls-22" cx="431.57" cy="199.29" r="3.35"/>
          </g>
        </g>
      </g>
      <g class="cls-13">
        <g class="cls-13">
          <text class="cls-15" transform="translate(1026.41 673.91)"><tspan x="0" y="0">B2B Cleantech</tspan><tspan x="11.28" y="28.7">Marketplace</tspan></text>
        </g>
      </g>
    </g>
  </g>
</svg>