<?xml version="1.0" encoding="UTF-8"?>
<svg id="Layer_1" data-name="Layer 1" xmlns="http://www.w3.org/2000/svg" xmlns:xlink="http://www.w3.org/1999/xlink" viewBox="0 0 740 788.44">
  <defs>
    <style>
      .cls-1 {
        fill: #ecfbf4;
      }

      .cls-2 {
        fill: url(#radial-gradient-6);
      }

      .cls-3 {
        fill: url(#radial-gradient-5);
      }

      .cls-4 {
        fill: url(#radial-gradient-4);
      }

      .cls-5 {
        fill: url(#radial-gradient-3);
      }

      .cls-6 {
        fill: url(#radial-gradient-2);
      }

      .cls-7 {
        fill: #a2b1ba;
      }

      .cls-8 {
        fill: url(#radial-gradient);
      }

      .cls-9 {
        fill: #b4ccde;
      }

      .cls-10 {
        fill: none;
        stroke: #20afef;
        stroke-linecap: round;
        stroke-miterlimit: 10;
        stroke-width: 1.66px;
      }

      .cls-11 {
        fill: #ccc;
      }

      .cls-12, .cls-13, .cls-14, .cls-15 {
        isolation: isolate;
      }

      .cls-16 {
        mix-blend-mode: multiply;
      }

      .cls-13 {
        font-size: 17.4px;
      }

      .cls-13, .cls-15 {
        font-family: Avenir-Black, Avenir;
        font-weight: 800;
      }

      .cls-13, .cls-15, .cls-17 {
        fill: #063e63;
      }

      .cls-18 {
        fill: #fff;
      }

      .cls-14 {
        fill: #333;
        font-family: Avenir-Medium, Avenir;
        font-size: 11.09px;
        font-weight: 500;
      }

      .cls-15 {
        font-size: 23.92px;
      }

      .cls-19 {
        fill: #20afef;
      }

      .cls-20 {
        fill: #54abe8;
      }
    </style>
    <radialGradient id="radial-gradient" cx="557.73" cy="123.51" fx="557.73" fy="123.51" r="36.85" gradientTransform="translate(0 437)" gradientUnits="userSpaceOnUse">
      <stop offset="0" stop-color="#00ad6f"/>
      <stop offset="1" stop-color="#035e54"/>
    </radialGradient>
    <radialGradient id="radial-gradient-2" cx="164.1" cy="-165.59" fx="164.1" fy="-165.59" r="36.85" gradientTransform="translate(0 437)" gradientUnits="userSpaceOnUse">
      <stop offset="0" stop-color="#00ad6f"/>
      <stop offset="1" stop-color="#035e54"/>
    </radialGradient>
    <radialGradient id="radial-gradient-3" cx="255.13" cy="27.43" fx="255.13" fy="27.43" r="36.85" gradientTransform="translate(0 437)" gradientUnits="userSpaceOnUse">
      <stop offset="0" stop-color="#00ad6f"/>
      <stop offset="1" stop-color="#035e54"/>
    </radialGradient>
    <radialGradient id="radial-gradient-4" cx="174.12" cy="-313.15" fx="174.12" fy="-313.15" r="36.85" gradientTransform="translate(0 437)" gradientUnits="userSpaceOnUse">
      <stop offset="0" stop-color="#00ad6f"/>
      <stop offset="1" stop-color="#035e54"/>
    </radialGradient>
    <radialGradient id="radial-gradient-5" cx="530.71" cy="-208.74" fx="530.71" fy="-208.74" r="36.85" gradientTransform="translate(0 437)" gradientUnits="userSpaceOnUse">
      <stop offset="0" stop-color="#00ad6f"/>
      <stop offset="1" stop-color="#035e54"/>
    </radialGradient>
    <radialGradient id="radial-gradient-6" cx="554.46" cy="-31.13" fx="554.46" fy="-31.13" r="36.85" gradientTransform="translate(0 437)" gradientUnits="userSpaceOnUse">
      <stop offset="0" stop-color="#00ad6f"/>
      <stop offset="1" stop-color="#035e54"/>
    </radialGradient>
  </defs>
  <rect class="cls-1" x=".38" y=".24" width="739.24" height="788.44"/>
  <g class="cls-12">
    <g id="Layer_11" data-name="Layer 11">
      <g>
        <g class="cls-16">
          <path class="cls-9" d="M575.83,674.23l125.18,19.42v-6.89l-33.93-72.45-24.63,14.31-19.02-10.98-31.7-18.3-1.98-1.15c-.47-.28-.81-.48-1.2-.72-.76-.48-1.48-.96-2.18-1.45-1.39-1-2.63-2.05-3.72-3.15-2.19-2.2-3.79-4.6-4.74-7.1-.24-.64-.44-1.28-.59-1.92.5-2.14,1.48-4.24,2.92-6.22,1.69-2.34,3.99-4.54,6.86-6.48.72-.48,1.47-.96,2.25-1.42l3.87-2.25,7.87-4.57,31.5-18.31,15.75-9.15,2.29-1.35c.93-.54,1.79-1.1,2.67-1.66,1.75-1.12,3.41-2.3,5-3.5,3.19-2.41,6.05-4.97,8.57-7.64,8.21-8.7,12.47-18.57,12.47-28.44v-6.89,6.87-6.87c0-2.26-.24-4.52-.68-6.77-2.37-12.05-11.35-23.74-25.32-32.83-1.4-.91-2.84-1.8-4.33-2.66-5.92-3.42-12.57-6.43-19.79-8.95-9.02-3.14-18.89-5.47-29.11-6.87-2.08-.29-4.18-.54-6.28-.75-18.56-1.86-37.93-.72-55.47,3.31-9.75,2.24-18.92,5.36-27.01,9.21-2.02.96-3.97,1.96-5.87,3.01-2.12,1.17-3.09,1.77-4.47,2.57l-7.88,4.58-31.5,18.3-63.01,36.62-31.5,18.3-7.88,4.58c-1.54.9-2.06,1.2-2.93,1.65-.82.43-1.67.85-2.53,1.24-3.46,1.58-7.34,2.79-11.46,3.67-7.05,1.51-14.9,1.91-22.37,1.16-1.24-.12-2.47-.28-3.68-.47-7.31-1.12-13.99-3.35-19.4-6.47-.9-.52-1.77-1.07-2.6-1.64-5.25-3.6-8.66-8.01-9.77-12.68.76-3.2,2.58-6.29,5.35-9.05,1.1-1.1,2.34-2.15,3.73-3.14.69-.49,1.41-.98,2.18-1.44l3.33-1.95,15.75-9.15,31.5-18.3,63.01-36.62,126-73.22,15.75-9.15,1.97-1.15,2.43-1.43c1.79-1.1,3.52-2.23,5.18-3.41,3.3-2.35,6.31-4.85,8.97-7.46,9.22-9.08,14.06-19.57,14.05-30.05v-6.89c0-1.65-.12-3.3-.36-4.94-.88-6.04-3.33-12.03-7.32-17.67-3.98-5.64-9.5-10.93-16.23-15.6-2.04-1.41-4.18-2.77-6.43-4.07-5.16-2.98-10.87-5.65-17.05-7.96-8.85-3.3-18.59-5.8-28.72-7.4-3.1-.49-6.23-.89-9.38-1.21-17.51-1.76-35.74-.86-52.49,2.64-9.87,2.06-19.21,5.02-27.51,8.72-2.08.93-4.1,1.89-6.04,2.9-.97.51-1.93,1.02-2.86,1.55l-2.36,1.35-7.88,4.58-63,36.61-63,36.61-7.88,4.58-1.97,1.15-1.58.91c-.81.44-1.62.88-2.48,1.28-3.41,1.61-7.18,2.94-11.25,3.9-7.36,1.72-15.67,2.23-23.56,1.44-.82-.08-1.63-.18-2.43-.29-7.83-1.05-14.98-3.35-20.72-6.66-.58-.34-1.15-.68-1.7-1.04-5.76-3.71-9.48-8.34-10.65-13.28.7-2.94,2.28-5.79,4.68-8.37,1.04-1.12,2.23-2.19,3.55-3.2.67-.51,1.37-.99,2.1-1.48.36-.24.75-.48,1.12-.71l1.51-.89,15.75-9.15,31.5-18.31,7.87-4.57,3.94-2.29c1.73-1.02,3.59-2.16,5.27-3.29,6.81-4.59,12.44-9.82,16.55-15.41,5.4-7.37,8.15-15.33,8.15-23.3v-6.89c0-4.16-.76-8.32-2.26-12.41-2.18-5.94-5.95-11.7-11.16-17.01-2.6-2.65-5.55-5.18-8.81-7.57-1.63-1.19-3.34-2.34-5.12-3.46-.88-.56-1.79-1.1-2.71-1.64l-2.06-1.19L-248.56-104.3l-2.9,1.68-.93.54.93-.54s-.91.53-.93.54l-.06.03h-.02l-11.54,6.71-22.65,13.16-.18.1-.74.43.74-.43-.74.43-3,1.74v6.89L216.74,219.89l1.91,1.1c.39.23.78.47,1.15.7.75.49,1.48.96,2.17,1.46,1.38,1.01,2.61,2.06,3.7,3.17,2.17,2.21,3.74,4.62,4.66,7.12.22.59.4,1.19.54,1.79-.52,2.19-1.53,4.33-3.01,6.35-1.72,2.34-4.05,4.5-6.93,6.45-.74.5-1.44.93-2.31,1.44l-3.94,2.29-7.87,4.57-31.5,18.31-15.75,9.15-2.41,1.42c-.89.55-1.79,1.11-2.64,1.67-1.73,1.15-3.39,2.3-4.98,3.51-3.16,2.41-6,4.99-8.48,7.67-6.13,6.6-10.01,13.83-11.5,21.23-.46,2.29-.69,4.6-.69,6.91v6.89c0,2.37.25,4.75.74,7.1,1.25,6.03,4.11,11.96,8.45,17.51,4.34,5.55,10.19,10.72,17.2,15.23,1.27.82,2.58,1.62,3.93,2.4,6.06,3.5,12.89,6.58,20.3,9.13,9.06,3.11,18.95,5.39,29.17,6.77,20.45,2.76,42.25,1.79,61.74-2.76,9.73-2.27,18.85-5.46,26.92-9.31,2.02-.96,3.95-1.98,5.83-3.02l2.38-1.37,1.97-1.15,7.88-4.58,63-36.61,63-36.61,7.88-4.58,1.6-.92c.39-.23.81-.44,1.22-.66.81-.43,1.68-.84,2.55-1.23,3.48-1.56,7.36-2.77,11.49-3.64,8.25-1.73,17.56-1.94,26.07-.6,7.21,1.14,13.82,3.36,19.17,6.45.96.55,1.87,1.13,2.74,1.74,5.17,3.58,8.51,7.96,9.6,12.59-.77,3.23-2.63,6.37-5.46,9.15-1.12,1.09-2.37,2.14-3.77,3.13-.69.49-1.43.97-2.19,1.44l-3.45,2.01-15.75,9.15-126,73.22-63.01,36.62-31.5,18.3-15.75,9.15-1.97,1.15-2.54,1.51c-1.78,1.1-3.5,2.24-5.14,3.42-3.29,2.36-6.27,4.87-8.9,7.5-9.02,9.02-13.76,19.38-13.76,29.75v6.89c0,1.76.14,3.52.41,5.28.93,6.04,3.45,12.01,7.5,17.65,4.04,5.62,9.61,10.9,16.38,15.54,1.93,1.32,3.96,2.6,6.08,3.82,5.29,3.06,11.16,5.79,17.51,8.13,8.88,3.27,18.65,5.74,28.8,7.3,20.3,3.12,42.13,2.55,61.85-1.64,9.85-2.1,19.17-5.06,27.43-8.8,2.06-.93,4.06-1.91,6-2.92,1.89-.99,4-2.21,5.08-2.84l7.88-4.58,31.5-18.3,63.01-36.62,31.5-18.3,7.88-4.58c3.08-1.8,4.1-2.39,5.92-3.26,3.4-1.62,7.22-2.91,11.3-3.85,8.14-1.87,17.41-2.26,26-1.08,7.74,1.07,14.81,3.36,20.49,6.64.64.37,1.26.75,1.86,1.14,5.67,3.69,9.34,8.29,10.48,13.19-.71,2.98-2.35,5.86-4.81,8.48-.52.56-1.08,1.1-1.67,1.63-.6.53-1.23,1.05-1.9,1.56-.67.51-1.36,1-2.12,1.48-.37.23-.74.48-1.13.71l-1.62.95-15.75,9.15-31.5,18.31-7.87,4.57-4.01,2.33c-1.83,1.07-3.59,2.19-5.29,3.34-6.77,4.61-12.35,9.86-16.4,15.47-5.26,7.27-7.93,15.12-7.92,22.97v6.89c0,4.28.8,8.56,2.38,12.75,2.24,5.94,6.08,11.69,11.33,16.98,2.62,2.64,5.6,5.17,8.88,7.54,1.64,1.19,3.37,2.32,5.15,3.44.87.54,1.84,1.11,2.68,1.61l1.98,1.15,31.7,18.3,13.07,7.54-18.67,10.85v6.89l-.04.06h0Z"/>
        </g>
        <path class="cls-11" d="M575.83,674.23l125.18,19.42v-6.89l-33.93-72.45-24.63,14.31-19.02-10.98-31.7-18.3-1.98-1.15c-.47-.28-.81-.48-1.2-.72-.76-.48-1.48-.96-2.18-1.45-1.39-1-2.63-2.05-3.72-3.15-2.19-2.2-3.79-4.6-4.74-7.1-.24-.64-.44-1.28-.59-1.92.5-2.14,1.48-4.24,2.92-6.22,1.69-2.34,3.99-4.54,6.86-6.48.72-.48,1.47-.96,2.25-1.42l3.87-2.25,7.87-4.57,31.5-18.31,15.75-9.15,2.29-1.35c.93-.54,1.79-1.1,2.67-1.66,1.75-1.12,3.41-2.3,5-3.5,3.19-2.41,6.05-4.97,8.57-7.64,8.21-8.7,12.47-18.57,12.47-28.44v-6.89,6.87-6.87c0-2.26-.24-4.52-.68-6.77-2.37-12.05-11.35-23.74-25.32-32.83-1.4-.91-2.84-1.8-4.33-2.66-5.92-3.42-12.57-6.43-19.79-8.95-9.02-3.14-18.89-5.47-29.11-6.87-2.08-.29-4.18-.54-6.28-.75-18.56-1.86-37.93-.72-55.47,3.31-9.75,2.24-18.92,5.36-27.01,9.21-2.02.96-3.97,1.96-5.87,3.01-2.12,1.17-3.09,1.77-4.47,2.57l-7.88,4.58-31.5,18.3-63.01,36.62-31.5,18.3-7.88,4.58c-1.54.9-2.06,1.2-2.93,1.65-.82.43-1.67.85-2.53,1.24-3.46,1.58-7.34,2.79-11.46,3.67-7.05,1.51-14.9,1.91-22.37,1.16-1.24-.12-2.47-.28-3.68-.47-7.31-1.12-13.99-3.35-19.4-6.47-.9-.52-1.77-1.07-2.6-1.64-5.25-3.6-8.66-8.01-9.77-12.68.76-3.2,2.58-6.29,5.35-9.05,1.1-1.1,2.34-2.15,3.73-3.14.69-.49,1.41-.98,2.18-1.44l3.33-1.95,15.75-9.15,31.5-18.3,63.01-36.62,126-73.22,15.75-9.15,1.97-1.15,2.43-1.43c1.79-1.1,3.52-2.23,5.18-3.41,3.3-2.35,6.31-4.85,8.97-7.46,9.22-9.08,14.06-19.57,14.05-30.05v-6.89c0-1.65-.12-3.3-.36-4.94-.88-6.04-3.33-12.03-7.32-17.67-3.98-5.64-9.5-10.93-16.23-15.6-2.04-1.41-4.18-2.77-6.43-4.07-5.16-2.98-10.87-5.65-17.05-7.96-8.85-3.3-18.59-5.8-28.72-7.4-3.1-.49-6.23-.89-9.38-1.21-17.51-1.76-35.74-.86-52.49,2.64-9.87,2.06-19.21,5.02-27.51,8.72-2.08.93-4.1,1.89-6.04,2.9-.97.51-1.93,1.02-2.86,1.55l-2.36,1.35-7.88,4.58-63,36.61-63,36.61-7.88,4.58-1.97,1.15-1.58.91c-.81.44-1.62.88-2.48,1.28-3.41,1.61-7.18,2.94-11.25,3.9-7.36,1.72-15.67,2.23-23.56,1.44-.82-.08-1.63-.18-2.43-.29-7.83-1.05-14.98-3.35-20.72-6.66-.58-.34-1.15-.68-1.7-1.04-5.76-3.71-9.48-8.34-10.65-13.28.7-2.94,2.28-5.79,4.68-8.37,1.04-1.12,2.23-2.19,3.55-3.2.67-.51,1.37-.99,2.1-1.48.36-.24.75-.48,1.12-.71l1.51-.89,15.75-9.15,31.5-18.31,7.87-4.57,3.94-2.29c1.73-1.02,3.59-2.16,5.27-3.29,6.81-4.59,12.44-9.82,16.55-15.41,5.4-7.37,8.15-15.33,8.15-23.3v-6.89c0-4.16-.76-8.32-2.26-12.41-2.18-5.94-5.95-11.7-11.16-17.01-2.6-2.65-5.55-5.18-8.81-7.57-1.63-1.19-3.34-2.34-5.12-3.46-.88-.56-1.79-1.1-2.71-1.64l-2.06-1.19L-248.56-104.3l-2.9,1.68-.93.54.93-.54s-.91.53-.93.54l-.06.03h-.02l-11.54,6.71-22.65,13.16-.18.1-.74.43.74-.43-.74.43-3,1.74v6.89L216.74,219.89l1.91,1.1c.39.23.78.47,1.15.7.75.49,1.48.96,2.17,1.46,1.38,1.01,2.61,2.06,3.7,3.17,2.17,2.21,3.74,4.62,4.66,7.12.22.59.4,1.19.54,1.79-.52,2.19-1.53,4.33-3.01,6.35-1.72,2.34-4.05,4.5-6.93,6.45-.74.5-1.44.93-2.31,1.44l-3.94,2.29-7.87,4.57-31.5,18.31-15.75,9.15-2.41,1.42c-.89.55-1.79,1.11-2.64,1.67-1.73,1.15-3.39,2.3-4.98,3.51-3.16,2.41-6,4.99-8.48,7.67-6.13,6.6-10.01,13.83-11.5,21.23-.46,2.29-.69,4.6-.69,6.91v6.89c0,2.37.25,4.75.74,7.1,1.25,6.03,4.11,11.96,8.45,17.51,4.34,5.55,10.19,10.72,17.2,15.23,1.27.82,2.58,1.62,3.93,2.4,6.06,3.5,12.89,6.58,20.3,9.13,9.06,3.11,18.95,5.39,29.17,6.77,20.45,2.76,42.25,1.79,61.74-2.76,9.73-2.27,18.85-5.46,26.92-9.31,2.02-.96,3.95-1.98,5.83-3.02l2.38-1.37,1.97-1.15,7.88-4.58,63-36.61,63-36.61,7.88-4.58,1.6-.92c.39-.23.81-.44,1.22-.66.81-.43,1.68-.84,2.55-1.23,3.48-1.56,7.36-2.77,11.49-3.64,8.25-1.73,17.56-1.94,26.07-.6,7.21,1.14,13.82,3.36,19.17,6.45.96.55,1.87,1.13,2.74,1.74,5.17,3.58,8.51,7.96,9.6,12.59-.77,3.23-2.63,6.37-5.46,9.15-1.12,1.09-2.37,2.14-3.77,3.13-.69.49-1.43.97-2.19,1.44l-3.45,2.01-15.75,9.15-126,73.22-63.01,36.62-31.5,18.3-15.75,9.15-1.97,1.15-2.54,1.51c-1.78,1.1-3.5,2.24-5.14,3.42-3.29,2.36-6.27,4.87-8.9,7.5-9.02,9.02-13.76,19.38-13.76,29.75v6.89c0,1.76.14,3.52.41,5.28.93,6.04,3.45,12.01,7.5,17.65,4.04,5.62,9.61,10.9,16.38,15.54,1.93,1.32,3.96,2.6,6.08,3.82,5.29,3.06,11.16,5.79,17.51,8.13,8.88,3.27,18.65,5.74,28.8,7.3,20.3,3.12,42.13,2.55,61.85-1.64,9.85-2.1,19.17-5.06,27.43-8.8,2.06-.93,4.06-1.91,6-2.92,1.89-.99,4-2.21,5.08-2.84l7.88-4.58,31.5-18.3,63.01-36.62,31.5-18.3,7.88-4.58c3.08-1.8,4.1-2.39,5.92-3.26,3.4-1.62,7.22-2.91,11.3-3.85,8.14-1.87,17.41-2.26,26-1.08,7.74,1.07,14.81,3.36,20.49,6.64.64.37,1.26.75,1.86,1.14,5.67,3.69,9.34,8.29,10.48,13.19-.71,2.98-2.35,5.86-4.81,8.48-.52.56-1.08,1.1-1.67,1.63-.6.53-1.23,1.05-1.9,1.56-.67.51-1.36,1-2.12,1.48-.37.23-.74.48-1.13.71l-1.62.95-15.75,9.15-31.5,18.31-7.87,4.57-4.01,2.33c-1.83,1.07-3.59,2.19-5.29,3.34-6.77,4.61-12.35,9.86-16.4,15.47-5.26,7.27-7.93,15.12-7.92,22.97v6.89c0,4.28.8,8.56,2.38,12.75,2.24,5.94,6.08,11.69,11.33,16.98,2.62,2.64,5.6,5.17,8.88,7.54,1.64,1.19,3.37,2.32,5.15,3.44.87.54,1.84,1.11,2.68,1.61l1.98,1.15,31.7,18.3,13.07,7.54-18.67,10.85v6.89l-.04.06h0Z"/>
        <path class="cls-7" d="M701.01,686.75l-33.92-72.45-24.63,14.31-19.02-10.98-31.7-18.3-1.98-1.15c-.47-.28-.81-.48-1.2-.72-.76-.48-1.48-.96-2.18-1.45-1.39-1-2.63-2.05-3.72-3.15-2.19-2.21-3.79-4.6-4.74-7.1-1.89-5-1.07-10.36,2.32-15.04,1.69-2.34,4-4.52,6.86-6.48.72-.48,1.47-.96,2.25-1.42l3.87-2.25,7.87-4.57,31.5-18.31,15.75-9.15,2.29-1.35c.93-.54,1.79-1.1,2.67-1.66,1.75-1.13,3.41-2.3,5-3.5,3.19-2.41,6.05-4.97,8.57-7.64,10.1-10.69,14.22-23.16,11.79-35.21-2.31-12.06-11.34-23.76-25.32-32.83-1.4-.91-2.84-1.8-4.33-2.66-5.92-3.42-12.57-6.44-19.79-8.95-9.02-3.14-18.89-5.48-29.11-6.87-20.42-2.83-42.22-1.94-61.76,2.56-9.75,2.24-18.92,5.37-27.01,9.21-2.02.96-3.97,1.97-5.87,3.01-2.12,1.18-3.09,1.77-4.47,2.57l-7.88,4.58-31.5,18.3-63.01,36.62-31.5,18.3-7.88,4.58c-1.54.9-2.07,1.19-2.93,1.65-.82.43-1.67.84-2.53,1.24-3.47,1.56-7.34,2.8-11.46,3.67-8.22,1.77-17.53,2.01-26.05.69-7.31-1.11-13.99-3.35-19.4-6.47-.9-.52-1.77-1.07-2.6-1.64-5.72-3.91-9.23-8.79-10-13.91-.8-5.12,1.2-10.34,5.59-14.72,1.09-1.1,2.34-2.14,3.73-3.14.69-.49,1.41-.98,2.18-1.44l3.33-1.95,15.75-9.15,31.5-18.3,63.01-36.62,126-73.22,15.75-9.15,1.97-1.15,2.43-1.43c1.79-1.1,3.52-2.23,5.18-3.41,3.31-2.34,6.31-4.85,8.97-7.46,10.67-10.51,15.47-22.9,13.69-34.99-.87-6.04-3.34-12.03-7.32-17.67-3.99-5.64-9.5-10.93-16.23-15.6-2.04-1.41-4.18-2.77-6.43-4.07-5.16-2.98-10.87-5.65-17.05-7.96-8.85-3.3-18.59-5.81-28.72-7.4-20.28-3.2-42.11-2.71-61.87,1.44-9.87,2.06-19.2,5.02-27.51,8.72-2.08.93-4.1,1.89-6.04,2.9-.97.51-1.93,1.02-2.86,1.55l-2.36,1.35-7.88,4.58-63,36.61-63,36.61-7.88,4.58-1.97,1.15-1.58.91c-.81.44-1.62.88-2.48,1.28-3.4,1.63-7.18,2.94-11.25,3.9-8.13,1.9-17.39,2.32-25.99,1.15-7.83-1.04-14.98-3.35-20.72-6.66-.58-.34-1.15-.68-1.7-1.04-5.94-3.82-9.7-8.62-10.75-13.73-1.06-5.09.63-10.36,4.78-14.82,1.04-1.12,2.23-2.19,3.55-3.2.67-.51,1.36-1,2.1-1.48.36-.25.75-.48,1.12-.71l1.51-.89,15.75-9.15,31.5-18.31,7.87-4.57,3.94-2.29c1.73-1.02,3.59-2.16,5.27-3.29,6.82-4.58,12.45-9.81,16.55-15.41,8.24-11.2,10.29-23.81,5.9-35.7-2.18-5.94-5.95-11.71-11.16-17.01-2.6-2.65-5.54-5.19-8.81-7.57-1.62-1.2-3.34-2.35-5.12-3.46-.88-.56-1.79-1.1-2.71-1.64l-2.06-1.19L-248.56-104.3l-3.83,2.22.93-.54-1.01.59.08-.05-34.44,20.02.18-.1,22.65-13.16-23.57,13.69.74-.43-3.74,2.17L216.74,213l1.91,1.1c.39.23.79.46,1.15.7.76.48,1.48.96,2.17,1.46,1.38,1.01,2.61,2.06,3.7,3.17,2.16,2.21,3.74,4.61,4.66,7.12,1.86,5.01.97,10.36-2.47,15.03-1.72,2.34-4.04,4.51-6.93,6.45-.74.5-1.44.93-2.31,1.44l-3.94,2.29-7.87,4.57-31.5,18.31-15.75,9.15-2.41,1.42c-.89.55-1.79,1.1-2.64,1.67-1.74,1.13-3.38,2.31-4.98,3.51-3.15,2.42-6,4.99-8.48,7.67-10,10.72-13.98,23.2-11.46,35.25,1.24,6.03,4.11,11.96,8.45,17.51,4.34,5.55,10.19,10.72,17.2,15.23,1.27.82,2.58,1.62,3.93,2.4,6.06,3.5,12.89,6.58,20.3,9.13,9.06,3.11,18.95,5.4,29.17,6.77,20.45,2.77,42.26,1.8,61.74-2.76,9.73-2.27,18.86-5.44,26.92-9.31,2.02-.96,3.95-1.98,5.83-3.02l2.38-1.37,1.97-1.15,7.88-4.58,63-36.61,63-36.61,7.88-4.58,1.6-.92c.39-.23.81-.44,1.22-.66.81-.43,1.68-.84,2.55-1.23,3.49-1.55,7.35-2.78,11.49-3.64,8.25-1.74,17.56-1.95,26.07-.6,7.22,1.13,13.82,3.36,19.17,6.45.96.55,1.87,1.13,2.74,1.74,5.68,3.92,9.13,8.82,9.85,13.94.77,5.12-1.28,10.33-5.71,14.7-1.12,1.09-2.37,2.14-3.77,3.13-.69.49-1.43.97-2.19,1.44l-3.45,2.01-15.75,9.15-126,73.22-63.01,36.62-31.5,18.3-15.75,9.15-1.97,1.15-2.54,1.51c-1.78,1.1-3.5,2.24-5.14,3.42-3.29,2.36-6.28,4.87-8.9,7.5-10.57,10.53-15.24,22.94-13.35,35.03.92,6.04,3.44,12.02,7.5,17.65,4.03,5.62,9.61,10.9,16.38,15.54,1.93,1.32,3.96,2.6,6.08,3.82,5.29,3.06,11.16,5.78,17.51,8.13,8.88,3.27,18.64,5.75,28.8,7.3,20.3,3.13,42.13,2.57,61.85-1.64,9.85-2.09,19.16-5.08,27.43-8.8,2.06-.94,4.06-1.91,6-2.92,1.89-.99,4-2.21,5.08-2.84l7.88-4.58,31.5-18.3,63.01-36.62,31.5-18.3,7.88-4.58c3.08-1.8,4.1-2.39,5.92-3.26,3.41-1.62,7.22-2.91,11.3-3.85,8.13-1.89,17.41-2.27,26-1.08,7.74,1.06,14.81,3.36,20.49,6.64.64.37,1.26.75,1.86,1.14,5.9,3.83,9.62,8.65,10.6,13.76,1.04,5.1-.72,10.36-4.93,14.8-1.04,1.12-2.23,2.18-3.58,3.19-.67.51-1.36,1-2.12,1.48-.37.23-.74.48-1.13.71l-1.62.95-15.75,9.15-31.5,18.31-7.87,4.57-4.01,2.33c-1.83,1.07-3.59,2.19-5.29,3.34-6.78,4.61-12.36,9.86-16.4,15.47-8.14,11.23-10.05,23.84-5.54,35.72,2.24,5.94,6.08,11.69,11.33,16.98,2.62,2.65,5.6,5.17,8.88,7.54,1.64,1.19,3.36,2.34,5.15,3.44.86.55,1.84,1.11,2.68,1.61l1.98,1.15,31.7,18.3,19.02,10.98-24.62,14.31,125.18,19.42-.02.02h0Z"/>
        <path class="cls-17" d="M693.13,682.21l-28.88-61.69-21.77,12.65-22.96-13.26-31.7-18.3-1.98-1.15c-.49-.3-.9-.53-1.33-.81-.86-.53-1.68-1.08-2.46-1.64-1.56-1.13-2.97-2.32-4.2-3.57-2.47-2.49-4.3-5.2-5.35-8.02-2.15-5.64-1.23-11.68,2.62-16.97,1.91-2.65,4.53-5.11,7.75-7.31.81-.54,1.65-1.08,2.54-1.59l3.87-2.26,7.87-4.57,31.5-18.31,15.75-9.15,2.24-1.31c.87-.51,1.69-1.04,2.53-1.57,1.65-1.07,3.21-2.18,4.72-3.31,3.01-2.28,5.74-4.69,8.1-7.22,9.55-10.11,13.44-21.91,11.15-33.31-2.18-11.42-10.71-22.47-23.96-31.05-1.32-.86-2.7-1.7-4.11-2.52-5.6-3.23-11.88-6.09-18.71-8.46-8.53-2.97-17.86-5.18-27.52-6.5-19.32-2.69-39.96-1.85-58.43,2.42-9.23,2.12-17.9,5.07-25.56,8.71-1.9.91-3.76,1.86-5.55,2.84-.98.55-1.73.98-2.41,1.38-.68.39-1.28.75-1.96,1.14l-7.88,4.58-31.5,18.3-63.01,36.62-31.5,18.3-7.88,4.58-.14.08c-1.4.82-2.06,1.19-3,1.68-.92.48-1.87.95-2.86,1.39-3.92,1.77-8.29,3.17-12.94,4.16-9.29,1.99-19.77,2.26-29.38.77-8.27-1.26-15.84-3.8-21.93-7.31-1.01-.58-1.99-1.2-2.91-1.83-6.44-4.4-10.43-9.93-11.29-15.7-.91-5.77,1.34-11.66,6.31-16.61,1.24-1.24,2.64-2.43,4.21-3.55.79-.56,1.59-1.11,2.45-1.63l1.47-.87,1.97-1.15,15.75-9.15,31.5-18.3,63.01-36.62,126-73.22,15.75-9.15,1.97-1.15,2.35-1.38c1.7-1.04,3.33-2.11,4.9-3.22,3.13-2.22,5.97-4.59,8.48-7.06,10.08-9.93,14.63-21.66,12.95-33.09-.81-5.72-3.15-11.38-6.92-16.72-3.77-5.34-8.98-10.34-15.35-14.75-1.93-1.34-3.97-2.63-6.1-3.86-4.88-2.82-10.27-5.34-16.11-7.52-8.37-3.12-17.58-5.49-27.17-6.99-19.18-3.03-39.85-2.56-58.53,1.36-9.34,1.95-18.16,4.75-26.02,8.24-1.96.88-3.87,1.79-5.71,2.75-.91.48-1.82.97-2.7,1.46l-2.28,1.32-7.88,4.58-63,36.61-63,36.61-7.88,4.58-1.97,1.15-1.65.94c-.9.5-1.82,1-2.79,1.45-3.83,1.84-8.11,3.32-12.71,4.4-9.18,2.15-19.63,2.62-29.33,1.3-8.82-1.17-16.92-3.79-23.38-7.51-.66-.38-1.3-.77-1.92-1.18-6.7-4.3-10.96-9.74-12.14-15.5-1.2-5.74.7-11.68,5.41-16.72,1.16-1.27,2.51-2.47,4-3.62.75-.58,1.54-1.14,2.36-1.67.4-.27.85-.53,1.27-.8l1.59-.94,15.75-9.15,31.5-18.31,7.87-4.57,3.94-2.29c1.66-.97,3.4-2.04,5-3.11,6.46-4.34,11.77-9.29,15.66-14.59,7.79-10.59,9.74-22.52,5.57-33.78-2.06-5.62-5.63-11.07-10.55-16.09-2.47-2.51-5.26-4.9-8.34-7.16-1.54-1.13-3.17-2.22-4.84-3.27-.83-.53-1.7-1.04-2.56-1.55l-2.05-1.19L-252.48-102.03l-.99.58-.67.39-3.38,1.96-.33.19-.33.19-10.8,6.28-1.15.67-11.18,6.5-.63.37-1.01.59-.52.3-3.17,1.84,3.11-1.81-.09.05-2.7,1.57-.32.18L220.66,210.73l1.92,1.12c.44.25.88.52,1.3.78.85.54,1.67,1.08,2.43,1.65,1.55,1.13,2.95,2.33,4.17,3.58,2.46,2.49,4.24,5.22,5.27,8.04,2.1,5.64,1.11,11.68-2.79,16.95-1.94,2.65-4.56,5.1-7.82,7.28-.83.56-1.63,1.06-2.58,1.62l-3.94,2.29-7.87,4.57-31.5,18.31-15.75,9.15-2.32,1.37c-.85.52-1.7,1.04-2.51,1.58-1.64,1.07-3.2,2.18-4.69,3.33-2.99,2.29-5.68,4.71-8.04,7.25-9.45,10.14-13.22,21.95-10.83,33.34,1.18,5.7,3.89,11.31,8,16.56s9.64,10.14,16.27,14.41c.68.44,1.37.87,2.07,1.3.49.3,1,.6,1.5.89l.16.09c.18.1.36.21.54.31,2.17,1.23,4.43,2.41,6.79,3.52.39.19.79.37,1.19.55,2.27,1.04,4.61,2.01,7.03,2.93,1.2.45,2.41.89,3.64,1.32,8.56,2.94,17.92,5.11,27.59,6.41,19.34,2.63,39.97,1.7,58.4-2.61,9.21-2.14,17.83-5.14,25.46-8.8,1.91-.91,3.74-1.87,5.52-2.86l2.3-1.33,1.97-1.15,7.88-4.58,63-36.61,63-36.61,7.88-4.58,1.68-.96c.45-.26.91-.5,1.36-.74.93-.49,1.9-.94,2.87-1.38,3.94-1.76,8.32-3.14,12.98-4.12,9.32-1.97,19.79-2.2,29.4-.68.39.06.78.13,1.17.19,7.44,1.28,14.29,3.61,19.91,6.76.19.11.38.21.57.32.05.03.09.05.13.08,1.03.6,2.01,1.22,2.95,1.88,6.42,4.43,10.33,9.97,11.14,15.75.85,5.76-1.46,11.65-6.47,16.58-1.27,1.24-2.68,2.42-4.25,3.54-.79.56-1.62,1.09-2.48,1.62l-3.53,2.07-15.75,9.15-126,73.22-63,36.61-31.5,18.31-15.75,9.15-1.97,1.15-2.43,1.44c-1.69,1.04-3.31,2.12-4.87,3.24-3.11,2.23-5.93,4.6-8.41,7.09-10,9.96-14.41,21.7-12.63,33.14,1.69,11.43,9.71,22.61,22.58,31.39,1.03.7,2.09,1.4,3.17,2.07.76.48,1.54.94,2.33,1.4.08.05.17.1.25.15.08.05.16.09.24.14,4.76,2.73,10,5.18,15.66,7.3.23.08.45.17.68.25,8.39,3.1,17.63,5.44,27.23,6.91,16.81,2.59,34.73,2.5,51.44-.23,2.39-.39,4.75-.83,7.08-1.33,9.31-1.97,18.12-4.8,25.94-8.32,1.96-.89,3.85-1.81,5.68-2.77,1.45-.76,3.02-1.65,4.16-2.31.26-.15.5-.29.71-.42l7.88-4.58,31.5-18.3,63.01-36.62,31.5-18.3,7.88-4.58.28-.16,1.01-.59.59-.34c-.12.07-.23.13-.36.21,1.99-1.16,3.17-1.81,4.81-2.58,3.84-1.82,8.14-3.29,12.76-4.34.62-.14,1.25-.27,1.88-.4.29-.06.57-.12.86-.18.53-.1,1.06-.19,1.59-.28.46-.08.91-.16,1.37-.23.5-.07,1-.14,1.51-.21.5-.07,1-.13,1.51-.18.49-.05.98-.1,1.48-.15.52-.05,1.05-.09,1.58-.13.48-.04.97-.07,1.46-.1.55-.03,1.1-.05,1.64-.07.47-.02.95-.04,1.42-.05.58-.01,1.17,0,1.75,0h1.32c.98.02,1.95.05,2.92.1,1.13.06,2.26.13,3.38.24,1.23.11,2.45.25,3.67.42.37.05.74.1,1.1.16,1.51.23,3,.5,4.46.81,6.43,1.37,12.32,3.54,17.27,6.35.1.06.2.11.3.17.06.03.12.07.18.1.3.17.59.35.88.53.35.21.69.43,1.03.65,6.65,4.32,10.87,9.78,11.98,15.54,1.16,5.74-.83,11.68-5.58,16.7-1.17,1.26-2.53,2.46-4.04,3.61-.75.57-1.54,1.13-2.38,1.66-.42.26-.83.54-1.27.8l-1.69.99-15.75,9.15-31.5,18.31-7.87,4.57-3.99,2.32c-1.74,1.01-3.41,2.07-5.01,3.16-6.41,4.36-11.68,9.33-15.51,14.63-7.69,10.62-9.51,22.56-5.25,33.79,2.11,5.62,5.75,11.06,10.72,16.06,2.47,2.5,5.29,4.89,8.4,7.13,1.55,1.13,3.18,2.21,4.87,3.26.83.52,1.74,1.05,2.55,1.52l1.98,1.15,31.7,18.3,22.96,13.26-21.76,12.64,106.58,16.53v.02h0Z"/>
        <path class="cls-18" d="M695.16,683.38l-30.18-64.47-22.5,13.08-21.93-12.66-31.7-18.3-1.98-1.15c-.49-.29-.89-.51-1.3-.78-.84-.51-1.62-1.05-2.38-1.59-1.51-1.09-2.88-2.25-4.08-3.46-2.4-2.42-4.17-5.05-5.19-7.78-2.09-5.48-1.18-11.34,2.55-16.47,1.85-2.57,4.38-4.96,7.51-7.09.79-.53,1.6-1.05,2.46-1.55l3.88-2.26,7.87-4.57,31.5-18.31,15.75-9.15,2.25-1.33c.88-.51,1.72-1.05,2.56-1.59,1.67-1.08,3.26-2.21,4.81-3.36,3.05-2.31,5.8-4.76,8.21-7.33,9.7-10.26,13.65-22.23,11.33-33.8-2.22-11.58-10.88-22.81-24.32-31.51-1.35-.88-2.75-1.74-4.19-2.57-5.68-3.28-12.05-6.17-18.96-8.57-8.67-3.02-18.13-5.26-27.95-6.6-19.6-2.72-40.55-1.87-59.29,2.46-9.36,2.15-18.16,5.16-25.93,8.84-1.94.93-3.82,1.89-5.63,2.89-2.01,1.13-3.03,1.74-4.41,2.53l-7.88,4.58-31.5,18.3-63.01,36.62-31.5,18.3-7.88,4.58c-1.51.88-2.13,1.24-3.08,1.74-.9.46-1.83.92-2.77,1.35-3.81,1.71-8.04,3.07-12.56,4.03-9.02,1.93-19.18,2.2-28.52.75-8.01-1.22-15.35-3.68-21.27-7.09-.98-.57-1.93-1.16-2.83-1.78-6.25-4.27-10.12-9.63-10.95-15.24-.88-5.59,1.3-11.31,6.12-16.11,1.21-1.21,2.58-2.36,4.08-3.44.76-.54,1.55-1.08,2.39-1.59l1.43-.85,1.97-1.15,15.75-9.15,31.5-18.3,63.01-36.62,126-73.22,15.75-9.15,1.97-1.15,2.37-1.4c1.71-1.06,3.38-2.15,4.97-3.27,3.18-2.26,6.05-4.66,8.61-7.17,10.24-10.08,14.85-21.97,13.14-33.58-.83-5.81-3.2-11.56-7.03-16.97-3.82-5.42-9.11-10.49-15.57-14.97-1.96-1.36-4.02-2.66-6.18-3.91-4.96-2.86-10.44-5.43-16.36-7.64-8.49-3.17-17.84-5.58-27.57-7.11-19.47-3.07-40.44-2.6-59.4,1.38-9.48,1.98-18.44,4.82-26.41,8.37-1.99.89-3.93,1.81-5.79,2.78-.93.49-1.85.98-2.74,1.48l-2.31,1.32-7.88,4.58-63,36.61-63,36.61-7.88,4.58-1.97,1.15-1.63.94c-.88.48-1.78.96-2.71,1.4-3.72,1.78-7.87,3.22-12.33,4.26-8.91,2.09-19.05,2.55-28.46,1.27-8.58-1.14-16.44-3.68-22.72-7.31-.63-.37-1.25-.74-1.85-1.13-6.49-4.17-10.62-9.45-11.76-15.03-1.18-5.57.68-11.34,5.25-16.23,1.13-1.23,2.43-2.4,3.88-3.51.74-.56,1.5-1.1,2.3-1.62.4-.26.82-.52,1.23-.78l1.57-.92,15.75-9.15,31.5-18.31,7.87-4.57,3.94-2.29c1.67-.98,3.45-2.07,5.07-3.16,6.55-4.4,11.95-9.43,15.89-14.8,7.9-10.75,9.88-22.86,5.66-34.28-2.09-5.7-5.71-11.24-10.71-16.33-2.5-2.55-5.33-4.98-8.47-7.26-1.56-1.15-3.2-2.26-4.91-3.32-.85-.54-1.72-1.06-2.6-1.58l-2.05-1.19L-251.46-102.62l-1.02.59L254.83,190.87l2.05,1.19c.86.51,1.73,1.02,2.56,1.55,1.67,1.06,3.31,2.15,4.84,3.27,3.08,2.26,5.87,4.65,8.34,7.16,4.92,5.02,8.49,10.47,10.55,16.09,4.17,11.25,2.22,23.19-5.57,33.78-3.88,5.3-9.2,10.24-15.66,14.59-1.59,1.08-3.33,2.15-5,3.11l-3.94,2.29-7.87,4.57-31.5,18.31-15.75,9.15-1.59.94c-.42.26-.87.52-1.27.8-.82.54-1.61,1.1-2.36,1.67-1.49,1.15-2.84,2.35-4,3.62-4.71,5.04-6.61,10.98-5.41,16.72,1.18,5.75,5.44,11.19,12.14,15.5.62.4,1.27.8,1.92,1.18,6.46,3.73,14.56,6.34,23.38,7.51,9.7,1.32,20.15.85,29.33-1.3,4.6-1.08,8.88-2.56,12.71-4.4.97-.45,1.89-.95,2.79-1.45l1.65-.94,1.97-1.15,7.88-4.58,63-36.61,63-36.61,7.88-4.58,2.28-1.32c.88-.49,1.79-.98,2.7-1.46,1.84-.96,3.76-1.87,5.71-2.75,7.86-3.5,16.68-6.3,26.02-8.24,18.68-3.92,39.35-4.38,58.53-1.36,9.59,1.5,18.8,3.87,27.17,6.99,5.83,2.18,11.23,4.71,16.11,7.52,2.13,1.23,4.17,2.52,6.1,3.86,6.37,4.41,11.58,9.42,15.35,14.75,3.77,5.34,6.11,10.99,6.92,16.72,1.68,11.44-2.86,23.17-12.95,33.09-2.51,2.47-5.36,4.84-8.48,7.06-1.57,1.11-3.2,2.18-4.9,3.22l-2.35,1.38-1.97,1.15-15.75,9.15-126,73.22-63.01,36.62-31.5,18.3-15.75,9.15-1.97,1.15-1.47.87c-.86.53-1.66,1.08-2.45,1.63-1.57,1.12-2.97,2.31-4.21,3.55-4.97,4.95-7.22,10.84-6.31,16.61.86,5.77,4.85,11.3,11.29,15.7.93.64,1.9,1.25,2.91,1.83,6.09,3.52,13.66,6.06,21.93,7.31,9.62,1.49,20.09,1.22,29.38-.77,4.65-.99,9.02-2.39,12.94-4.16.99-.44,1.94-.91,2.86-1.39.94-.5,1.6-.87,3-1.68.05-.03.09-.05.14-.08l7.88-4.58,31.5-18.3,63.01-36.62,31.5-18.3,7.88-4.58c.68-.4,1.28-.75,1.96-1.14s1.43-.83,2.41-1.38c1.79-.98,3.64-1.94,5.55-2.84,7.66-3.64,16.32-6.6,25.56-8.71,18.47-4.26,39.1-5.1,58.43-2.42,9.67,1.32,18.99,3.53,27.52,6.5,6.82,2.37,13.11,5.23,18.71,8.46,1.41.82,2.78,1.66,4.11,2.52,13.24,8.58,21.78,19.63,23.96,31.05,2.29,11.4-1.6,23.2-11.15,33.31-2.37,2.53-5.09,4.94-8.1,7.22-1.51,1.14-3.07,2.25-4.72,3.31-.84.53-1.66,1.06-2.53,1.57l-2.24,1.31-15.75,9.15-31.5,18.31-7.87,4.57-3.87,2.26c-.88.51-1.72,1.05-2.54,1.59-3.22,2.2-5.84,4.66-7.75,7.31-3.85,5.29-4.77,11.33-2.62,16.97,1.06,2.81,2.88,5.52,5.35,8.02,1.23,1.25,2.64,2.44,4.2,3.57.78.56,1.6,1.11,2.46,1.64.43.28.84.5,1.33.81l1.98,1.15,31.7,18.3,22.96,13.26,21.77-12.65,28.88,61.69-106.58-16.53,21.76-12.64-22.96-13.26-31.7-18.3-1.98-1.15c-.81-.48-1.73-1.01-2.55-1.52-1.69-1.05-3.31-2.13-4.87-3.26-3.11-2.24-5.93-4.63-8.4-7.13-4.97-5-8.61-10.44-10.72-16.06-4.26-11.23-2.44-23.17,5.25-33.79,3.83-5.31,9.1-10.27,15.51-14.63,1.6-1.09,3.27-2.15,5.01-3.16l3.99-2.32,7.87-4.57,31.5-18.31,15.75-9.15,1.69-.99c.44-.25.85-.53,1.27-.8.84-.54,1.63-1.1,2.38-1.66,1.51-1.15,2.87-2.35,4.04-3.61,4.75-5.02,6.74-10.96,5.58-16.7-1.12-5.76-5.34-11.21-11.98-15.54-.34-.22-.68-.44-1.03-.65-.29-.18-.59-.35-.88-.53-.06-.03-.12-.07-.18-.1-.1-.06-.2-.12-.3-.17-4.95-2.81-10.84-4.97-17.27-6.35-1.46-.31-2.95-.58-4.46-.81-.37-.06-.73-.11-1.1-.16-9.69-1.35-20.14-.92-29.34,1.22-4.61,1.05-8.91,2.52-12.76,4.34-1.7.81-2.91,1.48-5.05,2.72-.32.18-.65.38-1.01.59-.09.05-.18.11-.28.16l-7.88,4.58-31.5,18.3-63.01,36.62-31.5,18.3-7.88,4.58c-.21.12-.45.26-.71.42-1.14.66-2.71,1.55-4.16,2.31-1.83.96-3.72,1.88-5.68,2.77-7.82,3.52-16.62,6.35-25.94,8.32-18.65,3.98-39.31,4.52-58.52,1.56-9.61-1.47-18.84-3.82-27.23-6.91-.23-.08-.45-.17-.68-.25-5.65-2.12-10.9-4.57-15.66-7.3-.08-.05-.16-.09-.24-.14s-.17-.1-.25-.15c-.79-.46-1.57-.93-2.33-1.4-1.08-.68-2.14-1.37-3.17-2.07-12.87-8.78-20.89-19.96-22.58-31.39-1.78-11.44,2.63-23.18,12.63-33.14,2.49-2.49,5.31-4.86,8.41-7.09,1.56-1.12,3.18-2.2,4.87-3.24l2.43-1.44,1.97-1.15,15.75-9.15,31.5-18.3,63.01-36.62,126-73.22,15.75-9.15,3.53-2.07c.86-.53,1.69-1.06,2.48-1.62,1.57-1.12,2.98-2.3,4.25-3.54,5.01-4.93,7.32-10.82,6.47-16.58-.82-5.77-4.73-11.32-11.14-15.75-.94-.65-1.92-1.28-2.95-1.88-.04-.03-.09-.05-.13-.08-.19-.11-.38-.22-.57-.32-5.63-3.14-12.47-5.47-19.91-6.76-.39-.07-.78-.13-1.17-.19-9.61-1.51-20.08-1.29-29.4.68-4.66.97-9.04,2.36-12.98,4.12-.98.44-1.95.89-2.87,1.38-.45.24-.92.48-1.36.74l-1.68.96-7.88,4.58-63,36.61-63,36.61-7.88,4.58-1.97,1.15-2.3,1.33c-1.78.99-3.61,1.95-5.52,2.86-7.63,3.66-16.25,6.66-25.46,8.8-18.43,4.31-39.06,5.24-58.4,2.61-9.67-1.3-19.04-3.46-27.59-6.41-1.23-.42-2.45-.86-3.64-1.32-2.42-.92-4.77-1.9-7.03-2.93-.4-.18-.79-.37-1.19-.55-2.36-1.11-4.63-2.29-6.79-3.52-.18-.1-.36-.21-.54-.31-.05-.03-.11-.06-.16-.09-.51-.29-1.01-.59-1.5-.89-.7-.43-1.4-.86-2.07-1.3-6.63-4.26-12.16-9.16-16.27-14.41s-6.82-10.86-8-16.56c-2.39-11.4,1.38-23.21,10.83-33.34,2.35-2.54,5.05-4.96,8.04-7.25,1.49-1.15,3.06-2.26,4.69-3.33.81-.54,1.66-1.06,2.51-1.58l2.32-1.37,15.75-9.15,31.5-18.31,7.87-4.57,3.94-2.29c.95-.56,1.75-1.06,2.58-1.62,3.26-2.18,5.88-4.64,7.82-7.28,3.89-5.27,4.89-11.31,2.79-16.95-1.03-2.82-2.81-5.54-5.27-8.04-1.22-1.25-2.61-2.45-4.17-3.58-.77-.57-1.59-1.12-2.43-1.65-.42-.26-.86-.53-1.3-.78l-1.92-1.12L-286.65-82.17l-1.02.59L219.64,211.32l1.92,1.11c.42.25.85.5,1.26.77.83.52,1.62,1.05,2.37,1.6,1.5,1.1,2.85,2.26,4.04,3.47,2.39,2.42,4.11,5.06,5.11,7.8,2.04,5.48,1.07,11.34-2.7,16.46-1.87,2.57-4.44,4.95-7.59,7.07-.81.55-1.59,1.02-2.51,1.57l-3.94,2.29-7.87,4.57-31.5,18.31-15.75,9.15-2.35,1.38c-.86.53-1.71,1.06-2.54,1.6-1.66,1.09-3.25,2.22-4.77,3.37-3.03,2.32-5.76,4.79-8.15,7.36-9.59,10.28-13.42,22.26-10.99,33.84,1.19,5.78,3.93,11.48,8.11,16.81,4.17,5.33,9.79,10.29,16.52,14.62,1.23.8,2.5,1.57,3.81,2.33,5.81,3.35,12.35,6.3,19.45,8.74,8.69,2.99,18.19,5.19,28.01,6.51,19.63,2.66,40.56,1.73,59.26-2.65,9.35-2.18,18.11-5.22,25.85-8.93,1.93-.92,3.79-1.9,5.6-2.9l2.32-1.33,1.97-1.15,7.88-4.58,63-36.61,63-36.61,7.88-4.58,1.65-.95c.43-.25.88-.48,1.33-.72.9-.47,1.84-.91,2.79-1.34,3.82-1.7,8.08-3.04,12.59-3.99,9.04-1.9,19.22-2.13,28.53-.66,7.92,1.24,15.17,3.69,21.03,7.07,1.04.6,2.04,1.23,2.98,1.89,6.22,4.29,10.01,9.67,10.8,15.27.82,5.6-1.42,11.31-6.28,16.1-1.21,1.2-2.58,2.34-4.11,3.43-.77.54-1.58,1.07-2.41,1.58l-3.51,2.05-15.75,9.15-126,73.22-63.01,36.62-31.5,18.3-15.75,9.15-1.97,1.15-2.45,1.46c-1.72,1.05-3.36,2.15-4.94,3.28-3.15,2.26-6.02,4.68-8.54,7.2-10.14,10.1-14.63,22.02-12.81,33.62,1.71,11.6,9.85,22.95,22.91,31.86,1.85,1.27,3.8,2.49,5.83,3.67,5.08,2.94,10.72,5.56,16.82,7.81,8.52,3.14,17.89,5.52,27.64,7.01,19.49,3.01,40.46,2.47,59.38-1.58,9.46-2.01,18.4-4.87,26.32-8.45,1.99-.9,3.91-1.83,5.77-2.8,1.81-.95,3.81-2.11,4.92-2.76l7.88-4.58,31.5-18.3,63.01-36.62,31.5-18.3,7.88-4.58c3.02-1.76,4.25-2.48,6.22-3.42,3.73-1.78,7.9-3.19,12.37-4.22,8.92-2.07,19.08-2.48,28.48-1.18,8.46,1.15,16.22,3.68,22.43,7.26.7.41,1.39.83,2.05,1.26,6.45,4.19,10.55,9.49,11.63,15.08,1.12,5.57-.8,11.33-5.4,16.21-1.15,1.22-2.46,2.39-3.92,3.5-.75.55-1.51,1.1-2.31,1.61-.41.26-.81.52-1.24.77l-1.67.98-15.75,9.15-31.5,18.31-7.87,4.57-4,2.33c-1.76,1.03-3.45,2.1-5.07,3.21-6.51,4.42-11.85,9.47-15.73,14.85-7.83,10.78-9.67,22.89-5.34,34.29,2.15,5.7,5.83,11.22,10.88,16.3,2.52,2.54,5.38,4.96,8.53,7.24,1.57,1.14,3.23,2.24,4.95,3.3.83.53,1.76,1.07,2.58,1.55l1.98,1.15,31.7,18.3,21.93,12.66-22.5,13.08,111.4,17.27h-.04Z"/>
        <path class="cls-20" d="M46.78,91.21l9.59,5.53,1.15-.67-9.59-5.53-1.15.67ZM62.12,100.07l9.59,5.53,1.15-.67-9.59-5.53-1.15.67ZM31.44,82.35l9.59,5.53,1.15-.67-9.59-5.53-1.15.67ZM16.1,73.5l9.59,5.53,1.15-.67-9.59-5.53-1.15.67ZM92.8,117.78l9.59,5.53,1.15-.67-9.59-5.53s-1.15.67-1.15.67ZM123.48,135.5l9.59,5.53,1.15-.67-9.59-5.53-1.15.67ZM77.46,108.92l9.59,5.53,1.15-.67-9.59-5.53-1.15.67ZM.76,64.64l9.6,5.54,1.15-.67-9.6-5.54s-1.15.67-1.15.67ZM108.14,126.64l9.59,5.53,1.15-.67-9.59-5.53s-1.15.67-1.15.67ZM-14.58,55.79l9.59,5.53,1.15-.67-9.59-5.53-1.15.67ZM-106.62,2.65l9.59,5.53,1.15-.67-9.59-5.53-1.15.67ZM-75.94,20.36l9.59,5.53,1.15-.67-9.59-5.53s-1.15.67-1.15.67ZM-121.96-6.21l9.59,5.53,1.15-.67-9.59-5.53-1.15.67ZM-91.28,11.5l9.59,5.53,1.15-.67-9.59-5.53s-1.15.67-1.15.67ZM-60.6,29.21l9.59,5.53,1.15-.67-9.59-5.53-1.15.67ZM-29.92,46.93l9.59,5.53,1.15-.67-9.59-5.53-1.15.67ZM-45.26,38.07l9.59,5.53,1.15-.67-9.59-5.53-1.15.67ZM-137.3-15.07l9.59,5.54,1.15-.67-9.6-5.54-1.15.67h0ZM138.82,144.35l9.6,5.54,1.15-.67-9.6-5.54-1.15.67ZM195.84,363.69c3.98,1.3,8.17,2.37,12.49,3.21l.51-.89c-4.23-.82-8.32-1.87-12.21-3.14l-.79.82h0ZM184.84,170.92l9.59,5.53,1.15-.67-9.59-5.53-1.15.67ZM181.45,294.89l1.16.67,9.52-5.53-1.16-.67-9.52,5.53ZM216.24,368.15c4.46.57,9,.88,13.55.95l.04-.94c-4.46-.07-8.9-.38-13.25-.93l-.34.92h0ZM200.18,179.78l9.59,5.53,1.15-.67-9.59-5.53-1.15.67ZM179.73,355.32l-1.17.65c.37.21.72.43,1.1.64,2.86,1.65,5.97,3.17,9.25,4.53l.93-.76c-3.22-1.33-6.24-2.81-9.05-4.43-.36-.21-.72-.42-1.06-.63ZM221.45,271.64l-9.52,5.53,1.16.67,9.52-5.53-1.16-.67ZM206.2,280.5l-9.52,5.53,1.16.67,9.52-5.53-1.16-.67ZM158.96,333.71c.79,2.6,2.02,5.16,3.62,7.63l1.52-.33c-1.57-2.42-2.77-4.92-3.54-7.46l-1.6.16h0ZM159.98,321.21l-1.61-.11c-.54,2.62-.67,5.27-.39,7.9l1.62-.06c-.28-2.58-.15-5.16.38-7.73ZM167.87,304.72l1.4.47c2.24-2.22,4.85-4.32,7.77-6.27l-1.22-.62c-2.98,1.99-5.65,4.13-7.95,6.41h0ZM164.89,158.07l-9.59-5.53-1.15.67,9.59,5.53,1.15-.67ZM161.39,316.64h0ZM167.34,345.26l-1.45.42c2.07,2.36,4.52,4.6,7.31,6.69l1.28-.57c-2.72-2.05-5.11-4.24-7.13-6.54h0ZM159.81,316.42l1.58.22c1.02-2.51,2.43-4.97,4.23-7.32l-1.48-.38c-1.84,2.41-3.28,4.92-4.33,7.48ZM-244.68-77.06l9.59,5.53,1.15-.67-9.59-5.53-1.15.67ZM379.29,301.21l-1.16-.67-9.52,5.53,1.16.67,9.52-5.53ZM394.53,292.35l-1.16-.67-9.52,5.53,1.16.67,9.52-5.53ZM357.8,313.7l6.25-3.63-1.16-.67-6.25,3.63-3.27,1.9,1.16.67,3.27-1.9ZM-152.64-23.92l9.59,5.53,1.15-.67-9.59-5.53-1.15.67ZM456.18,262.13c1.41-.29,2.82-.56,4.25-.8l-.46-.9c-1.46.25-2.91.52-4.35.83-2.84.59-5.63,1.29-8.33,2.08l.74.84c2.64-.77,5.36-1.45,8.14-2.04h0ZM294.8,350.31l8.29-4.82-1.16-.67-8.29,4.82-1.23.72,1.16.67,1.23-.72ZM348.81,318.93l-1.16-.67-9.52,5.53,1.16.67,9.52-5.53ZM318.33,336.64l-1.16-.67-9.52,5.53,1.16.67,9.52-5.53ZM637.39,463.4l1.36-.5c-2.1-1.91-4.47-3.72-7.07-5.41-.43-.28-.87-.56-1.31-.84l-1.18.64c.43.27.85.54,1.29.82,2.54,1.65,4.85,3.43,6.91,5.29h0ZM278.76,359.35c2.3-1.09,4.41-2.28,6.48-3.49.56-.32,1.12-.65,1.68-.98l.93-.54-1.16-.67-.93.54c-.56.32-1.11.66-1.67.98-2.06,1.2-4.14,2.37-6.37,3.42-.27.12-.52.25-.78.37l1.01.73c.27-.13.54-.25.81-.38v.02ZM647.64,474.44c-1.23-2.55-2.85-5.02-4.87-7.39l-1.46.41c1.97,2.32,3.57,4.74,4.76,7.23l1.56-.25h.01ZM624.44,453.37c-3.47-1.72-7.2-3.25-11.15-4.58l-.81.81c3.86,1.3,7.52,2.79,10.91,4.48l1.05-.71h0ZM550.6,446.72c4.16-.92,8.46-1.61,12.85-2.07l-.29-.92c-4.48.46-8.88,1.17-13.14,2.12l.58.87h0ZM552.84,298.23l1.61-.07v-.1c-.38-2.6-1.16-5.17-2.34-7.68l-1.56.24c1.15,2.46,1.93,4.98,2.27,7.52l.03.1h-.01ZM551.41,310.54l1.59.2c.97-2.58,1.53-5.21,1.67-7.84l-1.63-.03c-.13,2.58-.68,5.15-1.63,7.67h0ZM522.65,266.29c-3.75-1.5-7.74-2.8-11.91-3.88l-.65.86c4.07,1.06,7.97,2.33,11.64,3.79l.92-.77ZM409.77,283.5l-1.16-.67-9.53,5.54,1.16.67,9.53-5.54ZM-229.34-68.21l9.59,5.53,1.15-.67-9.59-5.53-1.15.67ZM236.69,262.79c-.22.13-.45.26-.67.39-.27.15-.53.31-.79.46l-7.87,4.57-.2.11,1.16.67.2-.11,7.87-4.57h0c.25-.16.51-.31.77-.46.22-.13.45-.26.68-.38l-1.16-.67h0ZM-214-59.35l9.59,5.53,1.15-.67-9.59-5.53-1.15.67ZM258.57,365.22l.6.87.28-.06c4.13-.96,8.1-2.15,11.86-3.53l-.87-.79c-3.67,1.36-7.55,2.51-11.59,3.45l-.27.07h-.01ZM-183.32-41.64l9.59,5.53,1.15-.67-9.59-5.53-1.15.67ZM-167.98-32.78l9.59,5.53,1.15-.67-9.59-5.53-1.15.67ZM-270.14-91.76l4.37,2.53,1.15-.67-4.37-2.53-1.15.67ZM-198.66-50.5l9.59,5.53,1.15-.67-9.59-5.53-1.15.67ZM-260.02-85.92l9.59,5.53,1.15-.67-9.59-5.53-1.15.67ZM259.66,237.23l1.61.12c.59-2.62.75-5.27.51-7.9l-1.62.05c.24,2.58.07,5.17-.5,7.73ZM254.07,505.16l1.62.12c.56-2.56,1.53-5.09,2.89-7.54l-1.54-.29c-1.4,2.51-2.39,5.1-2.97,7.71h0ZM259.26,224.89l1.6-.15c-.18-.61-.38-1.22-.6-1.83-.72-1.97-1.69-3.92-2.89-5.82l-1.53.32c1.17,1.86,2.13,3.76,2.83,5.69.22.59.42,1.19.6,1.78h0ZM226.25,193.5l-9.59-5.53-1.15.67,9.59,5.53,1.15-.67ZM255.33,249.48c.24-.31.47-.61.7-.93,1.55-2.11,2.81-4.3,3.75-6.54l-1.57-.22c-.92,2.18-2.14,4.32-3.67,6.39-.21.3-.44.61-.68.91l1.48.39h0ZM180.24,166.93l-9.59-5.53-1.15.67,9.59,5.53,1.15-.67ZM237.19,201.14c.43.24.86.48,1.29.73.66.38,1.3.76,1.93,1.16l1.17-.64c-.64-.4-1.3-.79-1.97-1.18-.44-.25-.87-.5-1.31-.75l-6.3-3.64-1.15.67,6.32,3.65h.02ZM333.57,327.78l-1.16-.67-9.52,5.53,1.16.67,9.52-5.53ZM536.31,274.78c.35.24.68.48,1.02.73l1.27-.59c-.35-.25-.7-.49-1.05-.74-1.46-1.02-3-2-4.62-2.93-1.23-.71-2.48-1.38-3.79-2.04l-1.06.71c1.28.64,2.5,1.31,3.7,2,1.58.91,3.1,1.87,4.53,2.86h0ZM531.07,452.05l1,.74c3.51-1.59,7.27-2.98,11.23-4.16l-.75-.83c-4.04,1.21-7.89,2.64-11.48,4.26h0ZM532.04,332.4c2.13-1.24,4.23-2.5,6.15-3.88.92-.65,1.8-1.33,2.65-2.01l-1.31-.55c-.83.66-1.7,1.32-2.6,1.96-1.85,1.34-3.92,2.58-6.03,3.81l-.11.06,1.15.66.11-.06h-.01ZM515.53,340.65l1.16.67,9.52-5.53-1.16-.67-9.52,5.53ZM549.28,315c-1.42,2.45-3.24,4.81-5.43,7.05l1.42.46c2.23-2.3,4.08-4.71,5.54-7.21l-1.53-.31h0ZM548.11,583.27l-1.63.06c.24,2.07.76,4.12,1.52,6.15.22.55.44,1.1.69,1.65l1.57-.23c-.24-.54-.46-1.07-.67-1.61-.75-1.98-1.25-4-1.49-6.02h0ZM549.53,285.86c-1.68-2.46-3.75-4.83-6.18-7.06l-1.36.5c2.37,2.18,4.39,4.5,6.03,6.9l1.51-.34h0ZM521.55,457.11l-6.18,3.59,1.16.67,6.18-3.59,3.35-1.94-1.14-.67-3.37,1.94h0ZM549.74,570.97l-1.58-.21c-1.02,2.57-1.61,5.2-1.8,7.83l1.62.04c.18-2.58.77-5.15,1.75-7.66h.01ZM500.29,349.51l1.16.67,9.52-5.53-1.16-.67-9.52,5.53ZM468.24,260.28c4.38-.44,8.84-.65,13.29-.62v-.94c-4.54-.03-9.1.17-13.57.63l.28.93ZM469.81,367.22l1.16.67,9.52-5.53-1.16-.67-9.52,5.53ZM484.9,478.41l1.16.67,9.52-5.53-1.16-.67-9.52,5.53ZM485.05,358.37l1.16.67,9.53-5.54-1.16-.67-9.53,5.54ZM500.14,469.55l1.16.67,9.52-5.53-1.16-.67-9.52,5.53ZM503.07,260.73c-.99-.18-1.99-.35-3-.51-3.39-.54-6.85-.93-10.34-1.18l-.19.93c3.42.24,6.8.63,10.13,1.15.98.15,1.95.31,2.92.49l.49-.89h-.01ZM649.87,481.04c-.13-.65-.29-1.31-.47-1.97l-1.6.15c.18.64.33,1.28.45,1.92.38,1.93.54,3.87.45,5.79l1.62.03c.08-1.98-.07-3.96-.46-5.93h0ZM616.46,523.25l-1.16-.67-4.42,2.57-5.1,2.96,1.16.67,5.1-2.96,4.42-2.57ZM592.28,624.64l9.59,5.53,1.15-.67-9.59-5.53-1.15.67ZM628.7,516.15c1.01-.59,1.99-1.2,2.95-1.81l-1.21-.63c-.93.6-1.9,1.2-2.9,1.77-.3.17-.6.35-.91.52h0l-5.61,3.26,1.16.67,5.6-3.25c.31-.18.63-.35.93-.53h0ZM593.48,444.22c-.15-.02-.32-.04-.47-.06l-.36.91c.16.03.32.04.47.06,4.19.57,8.28,1.37,12.22,2.37l.64-.86c-4.02-1.02-8.21-1.84-12.49-2.42h-.01ZM469.66,487.27l1.16.67,9.52-5.53-1.16-.67-9.52,5.53ZM643.6,503.8l-1.47-.39c-.67.84-1.38,1.66-2.15,2.47-1.37,1.45-2.88,2.86-4.54,4.21l1.32.54c1.7-1.37,3.25-2.81,4.65-4.3.78-.82,1.5-1.66,2.19-2.52h0ZM645.06,499.09l1.55.3c1.42-2.51,2.45-5.08,3.06-7.7l-1.6-.13c-.61,2.56-1.61,5.08-3.01,7.53h0ZM571.3,611.2h0c-.49-.27-.97-.55-1.45-.82-2.35-1.36-4.57-2.79-6.61-4.29l-1.28.57c2.09,1.54,4.35,3.01,6.74,4.39.48.28.98.56,1.48.83l1.02.59,1.15-.67-1.03-.59h-.02,0ZM569.99,550.24c.24-.14.49-.28.75-.42l-1.16-.67c-.25.14-.5.29-.74.43-1.75,1.02-3.49,2.05-5.09,3.16-1.11.75-2.16,1.52-3.18,2.32l1.31.56c.98-.77,2.02-1.53,3.11-2.27,1.56-1.08,3.26-2.09,5-3.1h0ZM600.06,531.44l-9.52,5.53,1.16.67,9.52-5.53-1.16-.67ZM557.54,601.19c-1.87-1.87-3.48-3.84-4.82-5.86l-1.52.33c1.38,2.07,3.02,4.08,4.94,6,.36.37.74.74,1.12,1.1l1.37-.49c-.37-.35-.74-.71-1.09-1.07h0ZM553.5,564.2c1.16-1.61,2.5-3.18,4.01-4.7l-1.4-.47c-1.54,1.54-2.92,3.15-4.1,4.8-.57.78-1.09,1.57-1.58,2.38l1.53.31c.47-.78.99-1.55,1.54-2.32ZM584.92,443.34c-4.53-.31-9.1-.37-13.64-.19l.13.94c4.44-.18,8.91-.11,13.34.18l.18-.93h-.01ZM576.93,615.78l9.59,5.53,1.15-.67-9.59-5.53-1.15.67ZM585.97,540.97l-1.16-.67-5.44,3.16-4.08,2.37,1.16.67,4.08-2.37,5.44-3.16ZM363.13,429.22l1.16.67,9.52-5.53-1.16-.67-9.52,5.53ZM347.89,438.08l1.16.67,9.53-5.54-1.16-.67-9.53,5.54ZM328.09,450.92l-1.16-.67-2.32,1.35-7.2,4.18,1.16.67,7.2-4.18,2.32-1.35ZM299.07,549.14l-.64.86c3.26.81,6.63,1.48,10.07,2,.97.15,1.95.29,2.94.41l.35-.91c-.96-.12-1.92-.26-2.87-.41-3.36-.51-6.65-1.17-9.84-1.96h-.01ZM279.87,543.37c3.49,1.7,7.26,3.22,11.22,4.52l.79-.82c-3.88-1.28-7.55-2.76-10.97-4.42l-1.04.72ZM293.11,469.91l-6.19,3.6,1.16.67,6.19-3.6,3.33-1.94-1.16-.67-3.33,1.94ZM352.39,549.95c-3.7.79-7.52,1.4-11.39,1.82l.31.92c3.96-.43,7.86-1.05,11.65-1.86.49-.1.96-.21,1.45-.32l-.6-.87c-.47.1-.94.21-1.42.31h0ZM342.18,441.4l-9.52,5.53,1.16.67,9.52-5.53-1.16-.67ZM319.7,552.26l-.17.94c4.53.28,9.1.32,13.64.12l-.13-.94c-4.45.19-8.92.15-13.35-.12h.01ZM302.17,464.65l1.16.67,9.52-5.53-1.16-.67-9.52,5.53ZM255.11,509.92l-1.62-.02c-.04,1.49.05,2.98.29,4.47h0c.18,1.14.42,2.28.76,3.41l1.6-.15c-.32-1.11-.57-2.23-.74-3.35-.22-1.45-.33-2.91-.28-4.36h0ZM252.26,210.72c-1.6-1.64-3.4-3.21-5.37-4.71l-1.29.57c1.93,1.46,3.68,3,5.25,4.6.64.65,1.25,1.31,1.82,1.97l1.44-.42c-.58-.68-1.2-1.35-1.85-2.01h0ZM242.93,259c-.21.14-.43.29-.65.43l1.22.63c.22-.15.45-.3.67-.45,2.74-1.84,5.22-3.83,7.37-5.92l-1.4-.49c-2.1,2.05-4.53,3.99-7.21,5.8h0ZM272.13,537.57c-1.93-1.33-3.73-2.72-5.36-4.17l-1.36.51c1.67,1.49,3.5,2.91,5.49,4.27.96.66,1.96,1.31,2.99,1.94l1.17-.65c-1.01-.61-1.98-1.25-2.93-1.89h0ZM454.57,376.08l1.16.67,9.52-5.53-1.16-.67-9.52,5.53ZM256.37,522.41c1.25,2.54,2.93,5.01,4.97,7.37l1.44-.42c-2-2.31-3.63-4.73-4.87-7.21l-1.55.26h0ZM266.71,486.16c-1.19.99-2.32,2.01-3.36,3.05-1.23,1.24-2.37,2.51-3.38,3.81l1.48.39c.99-1.28,2.08-2.52,3.3-3.73,1.02-1.02,2.11-2.02,3.29-2.98l-1.33-.55h0ZM281.22,476.82l-3.85,2.24c-.45.26-.89.52-1.33.77-1.46.85-2.91,1.71-4.28,2.61l1.22.62c1.35-.87,2.76-1.72,4.21-2.57.44-.25.88-.51,1.33-.76h0l3.85-2.24-1.16-.67h.01ZM424.09,393.79l1.16.67,9.52-5.53-1.16-.67-9.52,5.53ZM440.22,265.72c-1.47.56-2.92,1.16-4.32,1.78-2.21.98-4.31,2.04-6.31,3.16l1.13.67c1.96-1.09,4.02-2.13,6.18-3.08,1.36-.61,2.78-1.2,4.22-1.74l-.9-.79h0ZM423.94,513.84l1.16.67,9.52-5.53-1.16-.67-9.52,5.53ZM408.85,402.65l1.16.67,9.52-5.53-1.16-.67-9.52,5.53ZM423.85,273.97l-4.21,2.45-5.31,3.09,1.16.67,5.32-3.09,4.21-2.45-1.16-.67h-.01ZM371.61,543.78c-3.29,1.48-6.82,2.8-10.53,3.93l.77.83c3.78-1.16,7.38-2.5,10.75-4.02.22-.1.44-.19.65-.3l-1.01-.73c-.21.09-.42.19-.63.29h0ZM439.17,504.98l1.16.67,9.53-5.54-1.16-.67-9.53,5.54ZM439.33,384.94l1.16.67,9.52-5.53-1.16-.67-9.52,5.53ZM454.41,496.13l1.16.67,9.52-5.53-1.16-.67-9.52,5.53ZM393.45,531.55l1.16.67,9.52-5.53-1.16-.67-9.52,5.53ZM387.62,414.99l-9.25,5.38,1.16.67,9.25-5.38.27-.16-1.16-.67-.27.16ZM408.7,522.69l1.16.67,9.52-5.53-1.16-.67-9.52,5.53ZM387.68,534.91l-7.88,4.58c-.27.16-.53.32-.8.47-.26.15-.51.3-.78.44l1.15.67c.26-.15.51-.3.78-.45.26-.15.53-.31.81-.47l7.88-4.58.06-.03-1.16-.67-.06.03h0ZM393.61,411.5l1.16.67,9.52-5.53-1.16-.67-9.52,5.53ZM237.84,368.03l.14.94c4.53-.21,9.04-.67,13.43-1.37l-.44-.91c-4.3.68-8.7,1.13-13.13,1.34ZM638.28,651.2l9.59,5.53,1.15-.67-9.59-5.53-1.15.67ZM607.6,633.49l9.59,5.53,1.15-.67-9.59-5.53-1.15.67ZM622.94,642.35l9.59,5.53,1.15-.67-9.59-5.53-1.15.67ZM654.77,659.39l-1.15.67,9.59,5.53,1.15-.67-9.59-5.53Z"/>
      </g>
      <g>
        <g>
          <g>
            <path class="cls-8" d="M557.74,517.81c-16.52,0-29.9,13.38-29.9,29.9,0,.31,0,.62.02.94.64,20.74,29.88,54.55,29.88,54.55,0,0,29.24-33.81,29.87-54.55.02-.32.02-.63.02-.94,0-16.52-13.39-29.9-29.9-29.9h.01ZM557.74,571c-12.87,0-23.3-10.43-23.3-23.3,0-10.96,8.65-23.29,23.3-23.29,12.87,0,23.29,10.42,23.29,23.29,0,10.96-8.64,23.3-23.29,23.3Z"/>
            <path class="cls-18" d="M581.03,547.7c0,10.96-8.64,23.3-23.29,23.3-12.87,0-23.3-10.43-23.3-23.3,0-10.96,8.65-23.29,23.3-23.29,12.87,0,23.29,10.42,23.29,23.29Z"/>
          </g>
          <g class="cls-12">
            <g class="cls-12">
              <text class="cls-13" transform="translate(537.73 553.45)"><tspan x="0" y="0">2024</tspan></text>
            </g>
          </g>
        </g>
        <g>
          <g class="cls-12">
            <g class="cls-12">
              <text class="cls-15" transform="translate(346.31 627.77)"><tspan x="0" y="0">Solar</tspan></text>
            </g>
            <g class="cls-12">
              <text class="cls-15" transform="translate(403.44 627.77)"><tspan x="0" y="0">V</tspan></text>
            </g>
            <g class="cls-12">
              <text class="cls-15" transform="translate(420.52 627.77)"><tspan x="0" y="0">ision.AI</tspan></text>
            </g>
          </g>
          <g class="cls-12">
            <g class="cls-12">
              <text class="cls-14" transform="translate(337.72 644.19)"><tspan x="0" y="0">Intelligent Diagnostic</tspan></text>
            </g>
            <g class="cls-12">
              <text class="cls-14" transform="translate(447.84 644.19)"><tspan x="0" y="0">T</tspan></text>
            </g>
            <g class="cls-12">
              <text class="cls-14" transform="translate(452.98 644.19)"><tspan x="0" y="0">ool for Solar</tspan></text>
            </g>
          </g>
        </g>
        <g>
          <path class="cls-10" d="M514.23,548.85h-68.95c-9.44,0-17.08,5.31-17.08,11.87v40.99"/>
          <path class="cls-19" d="M556.82,503.8c-23.64,0-42.87,19.23-42.87,42.86,0,3.92.53,7.72,1.52,11.33h1.73c-1.03-3.6-1.59-7.4-1.59-11.33,0-22.72,18.48-41.2,41.21-41.2,7.83,0,15.16,2.2,21.4,6l1.32-1.12c-6.59-4.15-14.38-6.54-22.72-6.54h0Z"/>
          <circle class="cls-19" cx="516.7" cy="558.63" r="2.83"/>
          <circle class="cls-19" cx="578.47" cy="511.3" r="2.83"/>
        </g>
      </g>
      <g>
        <g>
          <path class="cls-6" d="M164.1,228.72c-16.52,0-29.9,13.38-29.9,29.9,0,.31,0,.62.02.94.64,20.74,29.88,54.55,29.88,54.55,0,0,29.24-33.81,29.87-54.55.02-.32.02-.63.02-.94,0-16.52-13.39-29.9-29.9-29.9h0ZM164.1,281.91c-12.87,0-23.3-10.43-23.3-23.3,0-10.96,8.65-23.29,23.3-23.29,12.87,0,23.29,10.42,23.29,23.29,0,10.96-8.64,23.3-23.29,23.3Z"/>
          <path class="cls-18" d="M187.39,258.62c0,10.96-8.64,23.3-23.29,23.3-12.87,0-23.3-10.43-23.3-23.3,0-10.96,8.65-23.29,23.3-23.29,12.87,0,23.29,10.42,23.29,23.29h0Z"/>
        </g>
        <g class="cls-12">
          <g class="cls-12">
            <text class="cls-13" transform="translate(144.09 264.36)"><tspan x="0" y="0">2022</tspan></text>
          </g>
        </g>
      </g>
      <g>
        <g>
          <g class="cls-12">
            <g class="cls-12">
              <text class="cls-15" transform="translate(93.63 433.87)"><tspan x="0" y="0">Pulse</tspan></text>
            </g>
          </g>
          <g class="cls-12">
            <g class="cls-12">
              <text class="cls-14" transform="translate(37.65 450.29)"><tspan x="0" y="0">360° Renewable Insights – Drive</tspan></text>
            </g>
            <g class="cls-12">
              <text class="cls-14" transform="translate(60.61 465.45)"><tspan x="0" y="0">Performance with Data</tspan></text>
            </g>
          </g>
        </g>
        <g>
          <g>
            <path class="cls-5" d="M255.13,421.74c-16.52,0-29.9,13.38-29.9,29.9,0,.31,0,.62.02.94.64,20.74,29.88,54.55,29.88,54.55,0,0,29.24-33.81,29.87-54.55.02-.32.02-.63.02-.94,0-16.52-13.39-29.9-29.9-29.9h0ZM255.13,474.93c-12.87,0-23.3-10.43-23.3-23.3,0-10.96,8.65-23.29,23.3-23.29,12.87,0,23.29,10.42,23.29,23.29,0,10.96-8.64,23.3-23.29,23.3Z"/>
            <path class="cls-18" d="M278.42,451.63c0,10.96-8.64,23.3-23.29,23.3-12.87,0-23.3-10.43-23.3-23.3,0-10.96,8.65-23.29,23.3-23.29,12.87,0,23.29,10.42,23.29,23.29Z"/>
          </g>
          <g class="cls-12">
            <g class="cls-12">
              <text class="cls-13" transform="translate(235.12 457.38)"><tspan x="0" y="0">2023</tspan></text>
            </g>
          </g>
        </g>
        <g>
          <line class="cls-10" x1="161.61" y1="428.5" x2="217.62" y2="428.5"/>
          <path class="cls-19" d="M254.04,407.32c-23.64,0-42.87,19.23-42.87,42.86,0,3.92.53,7.72,1.52,11.33h1.73c-1.03-3.6-1.59-7.4-1.59-11.33,0-22.72,18.48-41.2,41.21-41.2,7.83,0,15.16,2.2,21.4,6l1.32-1.12c-6.59-4.15-14.38-6.54-22.72-6.54h0Z"/>
          <circle class="cls-19" cx="213.93" cy="462.15" r="2.83"/>
          <circle class="cls-19" cx="275.7" cy="414.82" r="2.83"/>
        </g>
      </g>
      <g>
        <g>
          <g>
            <path class="cls-4" d="M174.12,81.16c-16.52,0-29.9,13.38-29.9,29.9,0,.31,0,.62.02.94.64,20.74,29.88,54.55,29.88,54.55,0,0,29.24-33.81,29.87-54.55.02-.32.02-.63.02-.94,0-16.52-13.39-29.9-29.9-29.9h0ZM174.12,134.36c-12.87,0-23.3-10.43-23.3-23.3,0-10.96,8.65-23.29,23.3-23.29,12.87,0,23.29,10.42,23.29,23.29,0,10.96-8.64,23.3-23.29,23.3Z"/>
            <path class="cls-18" d="M197.41,111.06c0,10.96-8.64,23.3-23.29,23.3-12.87,0-23.3-10.43-23.3-23.3,0-10.96,8.65-23.29,23.3-23.29,12.87,0,23.29,10.42,23.29,23.29Z"/>
          </g>
          <g class="cls-12">
            <g class="cls-12">
              <text class="cls-13" transform="translate(154.11 116.8)"><tspan x="0" y="0">2021</tspan></text>
            </g>
          </g>
        </g>
        <g>
          <g class="cls-12">
            <g class="cls-12">
              <text class="cls-15" transform="translate(291.5 94.11)"><tspan x="0" y="0">Assu</tspan></text>
            </g>
            <g class="cls-12">
              <text class="cls-15" transform="translate(345.11 94.11)"><tspan x="0" y="0">r</tspan></text>
            </g>
            <g class="cls-12">
              <text class="cls-15" transform="translate(354.42 94.11)"><tspan x="0" y="0">e</tspan></text>
            </g>
          </g>
          <g class="cls-12">
            <g class="cls-12">
              <text class="cls-14" transform="translate(225.97 110.53)"><tspan x="0" y="0">Govern. Digitize. Ene</tspan></text>
            </g>
            <g class="cls-12">
              <text class="cls-14" transform="translate(333.03 110.53)"><tspan x="0" y="0">r</tspan></text>
            </g>
            <g class="cls-12">
              <text class="cls-14" transform="translate(336.94 110.53)"><tspan x="0" y="0">gize – St</tspan></text>
            </g>
            <g class="cls-12">
              <text class="cls-14" transform="translate(379.67 110.53)"><tspan x="0" y="0">r</tspan></text>
            </g>
            <g class="cls-12">
              <text class="cls-14" transform="translate(383.58 110.53)"><tspan x="0" y="0">eamlining</tspan></text>
            </g>
            <g class="cls-12">
              <text class="cls-14" transform="translate(245.97 125.69)"><tspan x="0" y="0">Compliance for a G</tspan></text>
            </g>
            <g class="cls-12">
              <text class="cls-14" transform="translate(343.41 125.69)"><tspan x="0" y="0">r</tspan></text>
            </g>
            <g class="cls-12">
              <text class="cls-14" transform="translate(347.31 125.69)"><tspan x="0" y="0">eener Futu</tspan></text>
            </g>
            <g class="cls-12">
              <text class="cls-14" transform="translate(401.98 125.69)"><tspan x="0" y="0">r</tspan></text>
            </g>
            <g class="cls-12">
              <text class="cls-14" transform="translate(405.89 125.69)"><tspan x="0" y="0">e</tspan></text>
            </g>
          </g>
        </g>
        <g>
          <line class="cls-10" x1="284.12" y1="85.76" x2="207.55" y2="85.76"/>
          <path class="cls-19" d="M151.49,75.75l1.32,1.12c6.24-3.8,13.57-6,21.4-6,22.73,0,41.21,18.48,41.21,41.2,0,3.93-.56,7.73-1.59,11.33h1.73c.99-3.61,1.52-7.41,1.52-11.33,0-23.63-19.23-42.86-42.87-42.86-8.34,0-16.13,2.39-22.72,6.54h0Z"/>
          <circle class="cls-19" cx="214.33" cy="124.04" r="2.83"/>
          <circle class="cls-19" cx="152.56" cy="76.71" r="2.83"/>
        </g>
      </g>
      <g>
        <g>
          <g>
            <path class="cls-3" d="M530.71,185.57c-16.52,0-29.9,13.38-29.9,29.9,0,.31,0,.62.02.94.64,20.74,29.88,54.55,29.88,54.55,0,0,29.24-33.81,29.87-54.55.02-.32.02-.63.02-.94,0-16.52-13.39-29.9-29.9-29.9h.01ZM530.71,238.76c-12.87,0-23.3-10.43-23.3-23.3,0-10.96,8.65-23.29,23.3-23.29,12.87,0,23.29,10.42,23.29,23.29,0,10.96-8.64,23.3-23.29,23.3Z"/>
            <path class="cls-18" d="M554,215.46c0,10.96-8.64,23.3-23.29,23.3-12.87,0-23.3-10.43-23.3-23.3,0-10.96,8.65-23.29,23.3-23.29,12.87,0,23.29,10.42,23.29,23.29h0Z"/>
          </g>
          <g class="cls-12">
            <g class="cls-12">
              <text class="cls-13" transform="translate(510.71 221.21)"><tspan x="0" y="0">2023</tspan></text>
            </g>
          </g>
        </g>
        <g>
          <g class="cls-12">
            <g class="cls-12">
              <text class="cls-15" transform="translate(363.69 194.81)"><tspan x="0" y="0">Nexus</tspan></text>
            </g>
          </g>
          <g class="cls-12">
            <g class="cls-12">
              <text class="cls-14" transform="translate(335.91 211.23)"><tspan x="0" y="0">Renewable P</tspan></text>
            </g>
            <g class="cls-12">
              <text class="cls-14" transform="translate(400.65 211.23)"><tspan x="0" y="0">r</tspan></text>
            </g>
            <g class="cls-12">
              <text class="cls-14" transform="translate(404.55 211.23)"><tspan x="0" y="0">ocu</tspan></text>
            </g>
            <g class="cls-12">
              <text class="cls-14" transform="translate(422.66 211.23)"><tspan x="0" y="0">r</tspan></text>
            </g>
            <g class="cls-12">
              <text class="cls-14" transform="translate(426.56 211.23)"><tspan x="0" y="0">ement</tspan></text>
            </g>
            <g class="cls-12">
              <text class="cls-14" transform="translate(338.72 226.39)"><tspan x="0" y="0">Simplified</tspan></text>
            </g>
            <g class="cls-12">
              <text class="cls-14" transform="translate(391.5 226.39)"><tspan x="0" y="0">T</tspan></text>
            </g>
            <g class="cls-12">
              <text class="cls-14" transform="translate(396.85 226.39)"><tspan x="0" y="0">ranspa</tspan></text>
            </g>
            <g class="cls-12">
              <text class="cls-14" transform="translate(430.34 226.39)"><tspan x="0" y="0">r</tspan></text>
            </g>
            <g class="cls-12">
              <text class="cls-14" transform="translate(434.25 226.39)"><tspan x="0" y="0">ently</tspan></text>
            </g>
          </g>
        </g>
        <g>
          <line class="cls-10" x1="441.12" y1="190.38" x2="497.07" y2="190.38"/>
          <path class="cls-19" d="M530.41,173.82c-23.64,0-42.87,19.23-42.87,42.86,0,3.92.53,7.72,1.52,11.33h1.73c-1.03-3.6-1.59-7.4-1.59-11.33,0-22.72,18.48-41.2,41.21-41.2,7.83,0,15.16,2.2,21.4,6l1.32-1.12c-6.59-4.15-14.38-6.54-22.72-6.54h0Z"/>
          <path class="cls-19" d="M493.12,228.66c0,1.56-1.27,2.83-2.83,2.83s-2.83-1.27-2.83-2.83,1.27-2.83,2.83-2.83,2.83,1.27,2.83,2.83Z"/>
          <path class="cls-19" d="M554.89,181.33c0,1.56-1.27,2.83-2.83,2.83s-2.83-1.27-2.83-2.83,1.27-2.83,2.83-2.83,2.83,1.27,2.83,2.83Z"/>
        </g>
      </g>
      <g>
        <g>
          <g>
            <path class="cls-2" d="M554.47,363.18c-16.52,0-29.9,13.38-29.9,29.9,0,.31,0,.62.02.94.64,20.74,29.88,54.55,29.88,54.55,0,0,29.24-33.81,29.87-54.55.02-.32.02-.63.02-.94,0-16.52-13.39-29.9-29.9-29.9h.01ZM554.47,416.37c-12.87,0-23.3-10.43-23.3-23.3,0-10.96,8.65-23.29,23.3-23.29,12.87,0,23.29,10.42,23.29,23.29,0,10.96-8.64,23.3-23.29,23.3Z"/>
            <path class="cls-18" d="M577.76,393.08c0,10.96-8.64,23.3-23.29,23.3-12.87,0-23.3-10.43-23.3-23.3,0-10.96,8.65-23.29,23.3-23.29,12.87,0,23.29,10.42,23.29,23.29Z"/>
          </g>
          <g class="cls-12">
            <g class="cls-12">
              <text class="cls-13" transform="translate(534.46 398.82)"><tspan x="0" y="0">2023</tspan></text>
            </g>
          </g>
        </g>
        <g>
          <line class="cls-10" x1="617.05" y1="361.42" x2="587.32" y2="361.42"/>
          <path class="cls-19" d="M533.57,353.71l1.32,1.12c6.24-3.8,13.57-6,21.4-6,22.73,0,41.21,18.48,41.21,41.2,0,3.93-.56,7.73-1.59,11.33h1.73c.99-3.61,1.52-7.41,1.52-11.33,0-23.63-19.23-42.86-42.87-42.86-8.34,0-16.13,2.39-22.72,6.54h0Z"/>
          <circle class="cls-19" cx="596.4" cy="402.01" r="2.83"/>
          <circle class="cls-19" cx="534.63" cy="354.67" r="2.83"/>
        </g>
      </g>
      <g>
        <g class="cls-12">
          <g class="cls-12">
            <text class="cls-15" transform="translate(36.15 241.22)"><tspan x="0" y="0">Flow</tspan></text>
          </g>
        </g>
        <g class="cls-12">
          <g class="cls-12">
            <text class="cls-14" transform="translate(11.07 257.75)"><tspan x="0" y="0">Digitalize Renewable</tspan></text>
          </g>
          <g class="cls-12">
            <text class="cls-14" transform="translate(15.48 272.91)"><tspan x="0" y="0">Site Operations for</tspan></text>
          </g>
          <g class="cls-12">
            <text class="cls-14" transform="translate(10.74 288.08)"><tspan x="0" y="0">Unmatched E</tspan></text>
          </g>
          <g class="cls-12">
            <text class="cls-14" transform="translate(78.36 288.08)"><tspan x="0" y="0">f</tspan></text>
          </g>
          <g class="cls-12">
            <text class="cls-14" transform="translate(81.86 288.08)"><tspan x="0" y="0">ficiency</tspan></text>
          </g>
        </g>
      </g>
      <g>
        <g class="cls-12">
          <g class="cls-12">
            <text class="cls-15" transform="translate(626.14 369.9)"><tspan x="0" y="0">Horizon</tspan></text>
          </g>
        </g>
        <g class="cls-12">
          <g class="cls-12">
            <text class="cls-14" transform="translate(615.11 386.33)"><tspan x="0" y="0">P</tspan></text>
          </g>
          <g class="cls-12">
            <text class="cls-14" transform="translate(621.69 386.33)"><tspan x="0" y="0">r</tspan></text>
          </g>
          <g class="cls-12">
            <text class="cls-14" transform="translate(625.59 386.33)"><tspan x="0" y="0">ecision Fo</tspan></text>
          </g>
          <g class="cls-12">
            <text class="cls-14" transform="translate(676.16 386.33)"><tspan x="0" y="0">r</tspan></text>
          </g>
          <g class="cls-12">
            <text class="cls-14" transform="translate(680.07 386.33)"><tspan x="0" y="0">ecasting</tspan></text>
          </g>
          <g class="cls-12">
            <text class="cls-14" transform="translate(608.74 401.49)"><tspan x="0" y="0">for Renewable Ene</tspan></text>
          </g>
          <g class="cls-12">
            <text class="cls-14" transform="translate(703.49 401.49)"><tspan x="0" y="0">r</tspan></text>
          </g>
          <g class="cls-12">
            <text class="cls-14" transform="translate(707.39 401.49)"><tspan x="0" y="0">gy –</tspan></text>
          </g>
          <g class="cls-12">
            <text class="cls-14" transform="translate(629 416.66)"><tspan x="0" y="0">Optimize, Save,</tspan></text>
          </g>
          <g class="cls-12">
            <text class="cls-14" transform="translate(643.47 431.82)"><tspan x="0" y="0">&amp; Succeed</tspan></text>
          </g>
        </g>
      </g>
      <g>
        <path class="cls-19" d="M164.91,216.81c-23.64,0-42.87,19.23-42.87,42.86,0,3.92.53,7.72,1.52,11.33h1.73c-1.03-3.6-1.59-7.4-1.59-11.33,0-22.72,18.48-41.2,41.21-41.2,7.83,0,15.16,2.2,21.4,6l1.32-1.12c-6.59-4.15-14.38-6.54-22.72-6.54Z"/>
        <circle class="cls-19" cx="124.8" cy="271.64" r="2.83"/>
        <circle class="cls-19" cx="186.57" cy="224.31" r="2.83"/>
      </g>
      <line class="cls-10" x1="98.17" y1="235.33" x2="129.66" y2="235.33"/>
    </g>
  </g>
  <g class="cls-12">
    <g class="cls-12">
      <text class="cls-15" transform="translate(546.37 731.97)"><tspan x="0" y="0">B2B Cleantech</tspan><tspan x="11.28" y="28.7">Marketplace</tspan></text>
    </g>
  </g>
</svg>