<svg width="17" height="16" viewBox="0 0 17 16" fill="none" xmlns="http://www.w3.org/2000/svg">
<path d="M16.558 7.63661V8.39193C16.5478 8.44611 16.5327 8.49925 16.529 8.55394C16.4795 9.20969 16.3606 9.85357 16.133 10.4732C15.3233 12.6747 13.769 14.2034 11.5337 15.0996C11.1302 15.2616 10.7014 15.3648 10.2651 15.501V10.0832H11.7897C11.9054 9.37324 12.0179 8.68344 12.1341 7.97042H9.81475C9.81475 7.47254 9.81098 6.99479 9.81582 6.51703C9.82174 5.92113 10.201 5.50787 10.8213 5.46298C11.3018 5.42841 11.7865 5.44234 12.2691 5.43461C12.3299 5.43357 12.3907 5.43461 12.4531 5.43461V3.58137C11.6967 3.48696 10.9483 3.39822 10.1881 3.46219C8.75812 3.58344 7.74076 4.5441 7.64392 5.91597C7.59981 6.54283 7.6181 7.17382 7.60842 7.80325C7.60734 7.8564 7.60842 7.91005 7.60842 7.97609H5.854V10.0914H7.59981V15.4623C7.57667 15.4623 7.56053 15.4643 7.54547 15.4623C6.50175 15.2869 5.51399 14.9629 4.61392 14.4201C1.46339 12.5189 0.282487 8.93573 1.29662 5.77822C2.50388 2.01861 6.52273 -0.187519 10.526 0.694727C13.5501 1.36131 15.9388 3.79961 16.4337 6.72857C16.4849 7.03039 16.5166 7.33479 16.5575 7.63764L16.558 7.63661Z" fill="white"/>
</svg>
