<svg width="29" height="28" viewBox="0 0 29 28" fill="none" xmlns="http://www.w3.org/2000/svg">
<g clip-path="url(#clip0_493_22)">
<path d="M26.3294 0.027771H2.60072C1.46405 0.027771 0.544922 0.922776 0.544922 2.02933V25.7931C0.544922 26.8996 1.46405 27.8 2.60072 27.8H26.3294C27.4661 27.8 28.3906 26.8996 28.3906 25.7985V2.02933C28.3906 0.922776 27.4661 0.027771 26.3294 0.027771ZM8.80618 23.6939H4.67283V10.437H8.80618V23.6939ZM6.7395 8.63067C5.41248 8.63067 4.34108 7.56209 4.34108 6.24399C4.34108 4.92589 5.41248 3.85731 6.7395 3.85731C8.06109 3.85731 9.13249 4.92589 9.13249 6.24399C9.13249 7.55666 8.06109 8.63067 6.7395 8.63067ZM24.2736 23.6939H20.1457V17.2498C20.1457 15.7148 20.1185 13.7349 17.9974 13.7349C15.8492 13.7349 15.5229 15.411 15.5229 17.1414V23.6939H11.4004V10.437H15.3597V12.2487H15.4141C15.9634 11.2072 17.3122 10.1061 19.319 10.1061C23.5013 10.1061 24.2736 12.8508 24.2736 16.4199V23.6939V23.6939Z" fill="white"/>
</g>
<defs>
<clipPath id="clip0_493_22">
<rect width="27.8457" height="27.7723" fill="white" transform="translate(0.544922 0.027771)"/>
</clipPath>
</defs>
</svg>
