<svg width="15" height="15" viewBox="0 0 15 15" fill="none" xmlns="http://www.w3.org/2000/svg">
<g clip-path="url(#clip0_486_43)">
<path d="M13.7137 0.500732H1.78359C1.21211 0.500732 0.75 0.951904 0.75 1.50972V13.489C0.75 14.0468 1.21211 14.5007 1.78359 14.5007H13.7137C14.2852 14.5007 14.75 14.0468 14.75 13.4917V1.50972C14.75 0.951904 14.2852 0.500732 13.7137 0.500732ZM4.90352 12.4308H2.82539V5.748H4.90352V12.4308ZM3.86445 4.83745C3.19727 4.83745 2.65859 4.29878 2.65859 3.63433C2.65859 2.96987 3.19727 2.4312 3.86445 2.4312C4.52891 2.4312 5.06758 2.96987 5.06758 3.63433C5.06758 4.29604 4.52891 4.83745 3.86445 4.83745ZM12.6801 12.4308H10.6047V9.18237C10.6047 8.40854 10.591 7.4105 9.52461 7.4105C8.44453 7.4105 8.28047 8.25542 8.28047 9.12769V12.4308H6.20781V5.748H8.19844V6.66128H8.22578C8.50195 6.13628 9.18008 5.5812 10.1891 5.5812C12.2918 5.5812 12.6801 6.96479 12.6801 8.76401V12.4308V12.4308Z" fill="white"/>
</g>
<defs>
<clipPath id="clip0_486_43">
<rect width="14" height="14" fill="white" transform="translate(0.75 0.500732)"/>
</clipPath>
</defs>
</svg>
