<svg width="17" height="12" viewBox="0 0 17 12" fill="none" xmlns="http://www.w3.org/2000/svg">
<path d="M2.11589 11.5009H15.386C15.5148 11.4593 15.6437 11.4178 15.7119 11.3963C14.1691 9.82393 12.6133 8.23863 11.048 6.6433C10.8218 6.87093 10.6161 7.08186 10.4057 7.28802C9.59728 8.08067 8.45195 8.22765 7.52662 7.62684C7.24458 7.44359 7.01074 7.18446 6.76307 6.95158C6.66094 6.85566 6.58077 6.73731 6.46671 6.60083C4.86898 8.22861 3.31515 9.81105 1.76656 11.3887C1.85819 11.4183 1.98704 11.4593 2.11589 11.5009Z" fill="white"/>
<path d="M16.5781 1.69426C16.5366 1.56541 16.4951 1.43657 16.4416 1.27002C14.8678 2.87393 13.3144 4.45733 11.7988 6.00255C13.3092 7.54156 14.8654 9.12734 16.4421 10.7336C16.4956 10.5676 16.5371 10.4387 16.5781 10.3094C16.5781 7.43753 16.5781 4.56613 16.5781 1.69426Z" fill="white"/>
<path d="M15.814 0.603586C15.563 0.565886 15.3511 0.509098 15.1387 0.506712C14.1046 0.497168 13.07 0.502417 12.0358 0.502417C8.82555 0.502417 5.61576 0.500508 2.4055 0.506235C2.18121 0.506235 1.95739 0.561114 1.7331 0.590701C1.73119 0.607881 1.72928 0.625538 1.72737 0.642718C1.75505 0.674691 1.78082 0.708573 1.8104 0.73816C3.78228 2.69903 5.75368 4.66038 7.72699 6.61982C8.22521 7.11469 8.85466 7.21061 9.44308 6.87942C9.56525 6.8107 9.67692 6.71526 9.77713 6.616C11.7476 4.66086 13.7156 2.70333 15.6842 0.746273C15.7161 0.714777 15.7448 0.67994 15.8145 0.603586H15.814Z" fill="white"/>
<path d="M5.71094 5.9906C4.1991 4.45111 2.64766 2.87058 1.09621 1.29053C1.07665 1.2953 1.0566 1.30055 1.03703 1.30532C1.00077 1.46853 0.961158 1.63126 0.929184 1.79542C0.917731 1.85459 0.924412 1.91711 0.924412 1.97819C0.924412 4.66156 0.922025 7.34446 0.928229 10.0278C0.928706 10.2516 0.985018 10.4755 1.01508 10.6993C1.03608 10.704 1.05708 10.7088 1.07808 10.7131C2.63191 9.12924 4.18526 7.54537 5.71046 5.9906H5.71094Z" fill="white"/>
</svg>
