<svg width="30" height="20" viewBox="0 0 30 20" fill="none" xmlns="http://www.w3.org/2000/svg">
<path d="M2.37143 19.5038H27.5657C27.8104 19.4316 28.055 19.3593 28.1846 19.322C25.2553 16.5857 22.3016 13.827 19.3298 11.0509C18.9004 11.447 18.5099 11.8141 18.1103 12.1728C16.5755 13.5521 14.401 13.8079 12.6441 12.7624C12.1087 12.4435 11.6647 11.9926 11.1945 11.5874C11.0006 11.4204 10.8484 11.2145 10.6318 10.977C7.59839 13.8096 4.64832 16.5633 1.70821 19.3087C1.88217 19.3602 2.1268 19.4316 2.37143 19.5038Z" fill="white"/>
<path d="M29.8271 2.43832C29.7483 2.21411 29.6695 1.98989 29.568 1.70007C26.5799 4.49114 23.6307 7.2465 20.7531 9.93542C23.6208 12.6136 26.5754 15.3731 29.5689 18.1683C29.6704 17.8793 29.7492 17.6551 29.8271 17.43C29.8271 12.4325 29.8271 7.43583 29.8271 2.43832Z" fill="white"/>
<path d="M28.3741 0.54074C27.8975 0.475136 27.4952 0.376315 27.092 0.372163C25.1287 0.355554 23.1644 0.364689 21.201 0.364689C15.106 0.364689 9.01198 0.361367 2.91703 0.371332C2.4912 0.371332 2.06626 0.466831 1.64042 0.518318C1.6368 0.548213 1.63317 0.578939 1.62955 0.608835C1.6821 0.664473 1.73103 0.723434 1.7872 0.77492C5.53097 4.18715 9.27382 7.6002 13.0203 11.0099C13.9662 11.8711 15.1613 12.038 16.2784 11.4617C16.5104 11.3421 16.7224 11.176 16.9127 11.0033C20.6537 7.60103 24.3902 4.19462 28.1277 0.789037C28.1884 0.734229 28.2427 0.673608 28.375 0.54074H28.3741Z" fill="white"/>
<path d="M9.19336 9.91429C6.32302 7.23533 3.37748 4.48496 0.431935 1.73541C0.394788 1.74372 0.356732 1.75285 0.319585 1.76116C0.250725 2.04516 0.175526 2.32834 0.11482 2.61401C0.0930758 2.71698 0.10576 2.82576 0.10576 2.93206C0.10576 7.60155 0.101229 12.2702 0.113007 16.9397C0.113913 17.3292 0.220827 17.7187 0.277907 18.1081C0.317773 18.1164 0.357639 18.1247 0.397506 18.1322C3.34758 15.376 6.29674 12.6198 9.19245 9.91429H9.19336Z" fill="white"/>
</svg>
