<?xml version="1.0" encoding="UTF-8"?>
<svg id="Layer_1" data-name="Layer 1" xmlns="http://www.w3.org/2000/svg" viewBox="0 0 70 70">
  <defs>
    <style>
      .cls-1 {
        opacity: .25;
      }

      .cls-2 {
        fill: #00ad6f;
      }
    </style>
  </defs>
  <g id="U5fD7y" class="cls-1">
    <g>
      <path class="cls-2" d="M32.78,15.65c.86-.15,3.2-.12,4.12-.03,2.02.18,1.99,2.25,2.62,3.73l3.26,1.38c1.41-.29,2.8-1.99,4.29-1.01.47.31,2.59,2.47,2.99,2.98,1.33,1.69-.26,2.81-.78,4.45l1.34,3.28c1.25.68,3.51.64,3.76,2.46.12.87.11,3.25.01,4.14-.21,1.9-2.34,1.89-3.72,2.5l-1.38,3.26c.36,1.63,2.12,2.79.83,4.48-.48.63-2.17,2.31-2.8,2.81-1.69,1.34-2.82-.27-4.45-.78l-3.28,1.34c-.68,1.25-.64,3.51-2.46,3.76-.87.12-3.25.11-4.14.01-1.88-.21-1.91-2.34-2.5-3.72l-3.26-1.38c-1.46.31-2.82,2.03-4.36.96-.43-.3-2.81-2.68-3.11-3.11-1.04-1.48.53-2.86.97-4.27l-1.34-3.28c-1.25-.68-3.51-.64-3.76-2.46-.12-.87-.11-3.25-.01-4.14.21-1.88,2.34-1.91,3.72-2.5l1.38-3.26c-.29-1.41-1.99-2.8-1.01-4.29.25-.38,2.77-2.9,3.16-3.18,1.48-1.04,2.86.53,4.27.97l3.28-1.34c.66-1.19.65-3.45,2.36-3.74ZM45.83,35c0-5.98-4.85-10.83-10.83-10.83s-10.83,4.85-10.83,10.83,4.85,10.83,10.83,10.83,10.83-4.85,10.83-10.83Z"/>
      <path class="cls-2" d="M61.71,55.25l-10.49,2.44,2.44-10.36c.21-.05.24.09.37.18.36.27,1.98,2.13,2.13,2.13,8.49-11.98,4.86-28.79-7.51-36.51-7.39-4.61-16.62-5.1-24.55-1.53l-2.99-2.87-.12-.3c3.14-1.5,6.48-2.7,9.95-3.16,20.38-2.7,37.28,15.16,33.54,35.37-.8,4.32-2.68,8.44-5.19,12.01l2.42,2.6Z"/>
      <path class="cls-2" d="M18.79,12.33l-2.44,10.36c-.21.05-.24-.09-.37-.18-.36-.27-1.98-2.13-2.13-2.13-5.94,8.2-6.08,19.73-.72,28.28,6.92,11.04,20.87,15.15,32.78,9.76l2.99,2.87.12.3c-2.5,1.16-5.07,2.21-7.78,2.77C20.21,68.69,1.59,50.52,5.53,29.37c.81-4.33,2.66-8.43,5.19-12.01l-2.42-2.6,10.49-2.44Z"/>
      <circle class="cls-2" cx="35" cy="35.01" r="5.32"/>
    </g>
  </g>
</svg>