<?xml version="1.0" encoding="UTF-8"?>
<svg id="Layer_1" data-name="Layer 1" xmlns="http://www.w3.org/2000/svg" viewBox="0 0 70 70">
  <defs>
    <style>
      .cls-1 {
        opacity: .25;
      }

      .cls-2 {
        fill: #00ad6f;
      }
    </style>
  </defs>
  <g id="vSuiNo" class="cls-1">
    <g>
      <path class="cls-2" d="M49.01,28.55v14.19c0,.52,1.21,1.32,1.7,1.32h3.34v2.08c0,.12-.2.5-.19.69l-9.98,5.66c-5.36-2.79-11.49-4.92-17.43-6.12-3.04-.62-5.97-.97-8.85.47-.67-4.7.98-9.46,2.92-13.67,2.6-5.64,6.38-11.21,10.83-15.53l8.39-.07c.2-.03.33.03.5.13.27.15,1.46,1.44,1.76,1.77,1.15,1.25,2.12,2.67,3.21,3.98-.8,1-3.03,2.45-2.72,3.86.11.5.75,1.25,1.27,1.25h5.24ZM43.57,35.68c0-4.3-3.49-7.79-7.79-7.79s-7.79,3.49-7.79,7.79,3.49,7.79,7.79,7.79,7.79-3.49,7.79-7.79Z"/>
      <path class="cls-2" d="M19.39,60.83l-5.57-10.51c2.96-1.13,5.75-2.9,9.03-2.72,2.84.15,6.51,1.27,9.27,2.09,3.79,1.13,7.71,2.47,11.08,4.54-.53,1.22-1.37,1.84-2.7,1.96-3.45.31-7.31-.86-10.61-1.76-1.07.06-1.39,1.26-.34,1.73s3.09.88,4.3,1.12c2.42.49,6.52,1.23,8.77.14,1.47-.71,2.05-2.17,2.56-3.62l11.15-6.26c2.43-1.21,4.45,1.76,2.57,3.71-.17.18-.44.34-.64.49-4.64,3.6-13.07,9.44-18.58,11.06-6.83,2-8.84-.81-14.86-1.92-1.87-.35-3.55-.39-5.43-.06Z"/>
      <path class="cls-2" d="M64.53,26.78h-5.61c-.07,0-.57.39-.57.44v14.89l-.19.19h-7.38v-14.82c0-.09-.51-.69-.57-.69h-5.74l8.7-9.15c.84-.64,1.65-.77,2.53-.13l8.83,9.28Z"/>
      <path class="cls-2" d="M29.23,5.99l1.55-.99c.67.16,2.02,1.54,2.62,1.45.53-.08,2.16-1.47,2.43-1.45.57.26,1.84,1.45,2.4,1.46.65.01,1.86-1.23,2.52-1.46l1.56,1.05c.18,2.32-.36,4.81-2.09,6.45h-8.78c-1.49-1.74-2.19-4.24-2.2-6.51Z"/>
      <rect class="cls-2" x="11.57" y="50.11" width="3.67" height="14.15" transform="translate(-25.4 13.1) rotate(-28.16)"/>
      <path class="cls-2" d="M13.06,64.12c-.9.24-1.87,1.49-2.71.5l-4.76-8.86c-.58-1.38,1.07-1.56,1.92-2.11l5.55,10.47Z"/>
      <path class="cls-2" d="M28.67,14.32l14.1-.03c.98.02,1.17,1.39.13,1.52l-14.65-.12-.3-.58c.05-.38.34-.69.71-.79Z"/>
      <path class="cls-2" d="M34.87,40.55c-.06-.09-1.3-.44-1.8-1.04-.56-.67-.87-1.98.27-2.11.77-.09.89.88,1.3,1.17,1.12.82,3.33-.21,2.39-1.51-.61-.85-1.75-.71-2.61-1.05-2.49-.99-2.15-4.6.45-5.09-.05-.93-.04-1.99,1.21-1.75.84.16.41,1.32.63,1.64.12.17,1.46.51,1.82,1.21s.06,1.52-.79,1.43c-.51-.05-.71-.58-1.12-.78-.94-.46-2.44,0-2.08,1.2.2.66,1.49.65,2.06.84,2.67.87,3.4,3.93.9,5.46-.2.12-.71.23-.79.35-.23.34.25,1.8-.98,1.73s-.67-1.42-.86-1.71Z"/>
    </g>
  </g>
</svg>