<?xml version="1.0" encoding="UTF-8"?>
<svg id="Layer_1" data-name="Layer 1" xmlns="http://www.w3.org/2000/svg" viewBox="0 0 70 70">
  <defs>
    <style>
      .cls-1 {
        opacity: .25;
      }

      .cls-2 {
        fill: #00ad6f;
      }
    </style>
  </defs>
  <g id="N7zi0m" class="cls-1">
    <g>
      <path class="cls-2" d="M60.06,38.05l-.92-.06c-.51-1.36-1.08-2.6-2.36-3.4-2.04-1.27-7.07-1.26-9.28-.4-1.7.66-2.66,2.16-3.16,3.84-2-.13-3.47-.36-5.13.96s-4.22,5.73-4.29,7.9c-.05,1.6.84,2.92,1.82,4.08-.93,1.49-1.95,2.64-1.8,4.55.17,2.17,2.86,6.84,4.74,7.96,1.45.87,2.84.85,4.46.51l.87,1.69h-27.3c-2.86,0-6.51-3.98-6.48-6.88V12.71c.3-3.63,3.16-6.54,6.74-7h25.4c.98.09,1.91.49,2.68,1.11,3.85,4.37,8.98,8.3,12.7,12.7.44.52,1.31,1.84,1.31,2.49v16.04ZM56.27,23.13c.02-.31-.22-.51-.39-.72-3.45-4.31-8.87-8.21-12.5-12.5l-.72-.39v11.46c0,.76,1.53,2.16,2.29,2.16h11.33ZM21.27,19.62c-2.31.58-2.2,3.68.11,4.15h13.07c2.47-.34,2.5-3.71.13-4.17l-13.31.02ZM21.27,29.44c-2.29.57-2.21,3.7.11,4.15h20.02c2.5-.36,2.57-3.66.12-4.17l-20.25.02ZM21.14,39.26c-2.25.72-2.02,3.78.4,4.13,3.03.44,6.91-.25,10.04.02,2.31-.31,2.69-3.37.51-4.15h-10.94ZM20.17,52.54c.24.24.86.53,1.2.57,3.23.4,7.28-.3,10.6-.01,2.28-.66,1.97-3.86-.4-4.17-3.13.24-6.86-.37-9.93,0-1.84.22-2.81,2.27-1.48,3.61Z"/>
      <path class="cls-2" d="M57.09,40.37c.07.08,1.11.68,1.22.69.68.09,2.1-.41,2.87-.4.96,0,1.47.61,2.02,1.26.94,1.12,2.71,4.03,2.48,5.49-.16,1.03-1.77,2.2-2.02,2.96-.02.06-.05,1.13-.04,1.21.13.82,2.02,2.06,2.08,3.43s-2.07,5.06-3.15,5.9c-1.49,1.16-3.22-.18-4.55.3-1.71.61-1.35,3.18-2.8,4.01-1.15.66-5.42.61-6.67.14-.45-.17-.81-.51-1.05-.91-.36-.59-.84-2.41-1.18-2.75-.11-.11-1.06-.58-1.24-.6-1.11-.12-2.44.6-3.68.15-.76-.28-2.02-2.19-2.44-2.93-.57-1.02-1.34-2.5-1.15-3.68.16-.98,1.54-1.92,1.86-2.73.83-2.08-1.74-2.95-1.87-4.61-.12-1.56,2.16-5.76,3.58-6.38s3,.43,3.98.05c1.84-.7,1.39-3.11,2.79-4.02,1.02-.66,4.17-.63,5.41-.45.85.12,1.76.25,2.29.99.49.69.84,2.41,1.24,2.89ZM55.22,51.06c0-1.93-1.56-3.49-3.49-3.49s-3.49,1.56-3.49,3.49,1.56,3.49,3.49,3.49,3.49-1.56,3.49-3.49Z"/>
    </g>
  </g>
</svg>