<?xml version="1.0" encoding="UTF-8"?>
<svg id="Layer_1" data-name="Layer 1" xmlns="http://www.w3.org/2000/svg" viewBox="0 0 70 70">
  <defs>
    <style>
      .cls-1 {
        opacity: .25;
      }

      .cls-2 {
        fill: #00ad6f;
      }
    </style>
  </defs>
  <g id="Q87Lh5" class="cls-1">
    <g>
      <path class="cls-2" d="M31.48,5.83c1.3-.21,5.45-.18,6.82-.03,1.23.13,2.45,1.22,2.65,2.46.13.8-.12,4.49.08,4.77.8.3,1.64.49,2.43.8.7.28,2.75,1.47,3.21,1.54.14.02.24.01.35-.1,1.16-.91,2.78-3.41,4.24-3.61.97-.13,1.81.03,2.6.61.71.53,4.7,4.58,4.98,5.23,1.31,2.97-2.2,4.37-3.55,6.41.87,1.84,1.82,3.66,2.3,5.67.21.28,3.92.05,4.61.12,1.27.14,2.5,1.29,2.67,2.56.18,1.39.17,5.29.01,6.71-.13,1.22-1.23,2.45-2.46,2.65-.8.13-4.49-.12-4.77.08-.35,1.12-.72,2.22-1.18,3.3-.23.53-1.1,1.95-1.16,2.34-.02.14-.01.24.1.35,1.73,1.96,5.28,3.87,2.99,6.84-.72.94-3.54,3.77-4.48,4.49-.82.63-1.64.81-2.67.67-1.59-.22-3.12-2.92-4.49-3.72-1.84.87-3.66,1.82-5.67,2.3-.28.21-.05,3.92-.12,4.61-.14,1.27-1.29,2.5-2.56,2.67-1.39.18-5.29.17-6.71.01-1.22-.13-2.45-1.23-2.65-2.46-.13-.8.12-4.49-.08-4.77-.85-.38-3.48-.93-3.96-1.65-.31-.47-.23-.78.08-1.22l4.67-4.55c.46-.14,2.18.44,2.84.54,14.49,2.07,24.1-14.91,14.59-26.05-10.43-12.21-30.24-3.22-27.98,12.66.09.66.68,2.38.54,2.84l-4.55,4.67c-1.83,1.31-2.32-2.82-2.86-3.87-.28-.19-3.82.02-4.55-.05-1.27-.14-2.5-1.29-2.67-2.56-.18-1.39-.17-5.29-.01-6.71.13-1.22,1.23-2.45,2.46-2.65.8-.13,4.49.12,4.77-.08.35-1.12.72-2.22,1.18-3.3.23-.53,1.1-1.95,1.16-2.34.02-.14.01-.24-.1-.35-1.52-1.83-4.67-3.34-3.43-6.16.29-.67,4.18-4.6,4.92-5.17.82-.63,1.64-.81,2.67-.67,1.59.22,3.12,2.92,4.49,3.72,1.84-.87,3.66-1.82,5.67-2.3.28-.21.05-3.92.12-4.61.13-1.22,1.24-2.45,2.46-2.65Z"/>
      <path class="cls-2" d="M37.02,33.66c.28.28,2.59.8,3.12,1.01.39-.1,3.63-3.75,4.39-4.34,1.75-1.34,2.19,1.13,2.3,2.43.59,7.18-5.68,12.22-12.57,10.7l-20.73,20.74c-4.83,4.02-11.07-2.2-7.04-7.04l20.74-20.73c-.42-2.28-.39-4.3.5-6.46,1.71-4.17,5.85-6.5,10.33-6.1,1.2.11,3.58.6,2.36,2.23l-4.39,4.46c-.04.16.89,3,1.01,3.12Z"/>
    </g>
  </g>
</svg>