<?xml version="1.0" encoding="UTF-8"?>
<svg id="Layer_1" data-name="Layer 1" xmlns="http://www.w3.org/2000/svg" viewBox="0 0 70 70">
  <defs>
    <style>
      .cls-1 {
        opacity: .25;
      }

      .cls-2 {
        fill: #00ad6f;
      }
    </style>
  </defs>
  <g id="pz1mOE" class="cls-1">
    <g>
      <path class="cls-2" d="M35.55,64.97c-.39.05-1.25.05-1.64,0-.33-.04-1.14-.31-1.49-.45-1.97-.78-3.36-2.6-3.79-4.65-4.73-1.15-8.37-3.54-11.96-6.67-.16-.14-.27-.47-.42-.52-.13-.04-1.14.31-1.5.34-5.5.47-8.81-5.52-5.5-9.96.2-.27.84-.73.87-1.01-1.3-4.6-1.31-9.58-.01-14.18-.02-.26-.67-.74-.86-1-3.34-4.49.08-10.52,5.61-9.95.4.04,1.2.41,1.46.3.22-.1,1.84-1.8,2.29-2.17,2.9-2.36,6.41-4,10.02-4.98,1.43-6.75,10.76-6.76,12.18,0,4.65,1.24,9.04,3.59,12.31,7.15.22.1,1.18-.26,1.58-.3,5.49-.51,8.79,5.53,5.5,9.95-.2.27-.84.73-.87,1.01,1.3,4.6,1.3,9.58.01,14.18.02.26.67.74.86,1,3.29,4.42,0,10.46-5.5,9.95-.4-.04-1.35-.4-1.58-.3s-1.85,1.81-2.29,2.17c-2.26,1.85-5.09,3.38-7.84,4.34-.38.13-2.02.5-2.17.64-.08.07-.48,1.53-.68,1.9-.83,1.57-2.82,2.99-4.59,3.2ZM56.05,29.24c-5.3.32-8.75-5.38-5.63-9.8-2.7-2.8-6.22-4.8-9.98-5.79-2.42,4.74-8.93,4.85-11.33.04-.24-.16-2.68.79-3.13.98-2.54,1.09-4.95,2.76-6.9,4.71,2.52,3.67.67,8.81-3.77,9.69-.58.11-1.35.25-1.9.03-.92,3.76-1.1,7.89.08,11.61,5.27-.35,8.68,5.43,5.57,9.78,2.7,2.8,6.22,4.79,9.98,5.79,2.42-4.74,8.93-4.85,11.33-.04.26.17,2.68-.79,3.13-.98,2.54-1.1,5-2.79,6.93-4.77-2.62-3.61-.63-8.77,3.74-9.64.58-.11,1.35-.25,1.9-.03.94-3.77,1.03-7.83-.01-11.59Z"/>
      <g>
        <polygon class="cls-2" points="36.49 48.21 36.49 35.9 47.16 29.81 47.16 42.05 36.49 48.21"/>
        <path class="cls-2" d="M32.98,35.9v12.3c-.95-.44-1.86-.98-2.77-1.5-2.65-1.51-5.3-3.07-7.89-4.65v-12.25l10.66,6.09Z"/>
        <path class="cls-2" d="M45.28,26.65c.15.21-.68.61-.86.72-3.01,1.86-6.21,3.44-9.21,5.32l-.52.17-10.3-5.88-.2-.27,10.61-6.03,10.49,5.97Z"/>
      </g>
    </g>
  </g>
</svg>