<?xml version="1.0" encoding="UTF-8"?>
<svg id="Layer_1" data-name="Layer 1" xmlns="http://www.w3.org/2000/svg" viewBox="0 0 70 70">
  <defs>
    <style>
      .cls-1 {
        opacity: .25;
      }

      .cls-2 {
        fill: #00ad6f;
      }
    </style>
  </defs>
  <g id="ontf1z" class="cls-1">
    <path class="cls-2" d="M62.22,22.46c1.56,4.11-.34,8.83-5.04,9.35-.7.08-1.94-.25-2.44-.04-1.06.43-.78,1.53-.35,2.34,1.54,2.9,3.71,5.73,5.3,8.61.63,1.14,1.21,1.92-.14,2.75-3.36,1.38-6.74,3.68-10.08,4.98-1,.39-2.44.12-3.05-.8-.81-1.21-.12-2.2-.53-3.4-2.03-5.99-12.44-.48-8.75,4.45.58.77,1.49,1.01,1.96,1.69.83,1.19.35,2.86-.86,3.6-3.13,1.91-7.09,3.21-10.3,5.09-.73.29-1.3-.05-1.66-.71-1.5-3.44-2.59-7.21-4.11-10.62-.24-.54-.69-1.3-1.39-1.07-1.08.35-1.19,1.51-1.92,2.31-3.31,3.6-8.32,1.65-10.46-2.14-2.37-4.2-1.14-9.88,4.22-10.65.72-.1,2.05.22,2.52.06,1.17-.39.91-1.52.45-2.38-1.54-2.9-3.7-5.73-5.3-8.61-.62-1.13-1.21-1.93.14-2.75,3.36-1.38,6.74-3.68,10.08-4.98,1.05-.41,2.5-.1,3.11.89.72,1.16.08,2.15.47,3.31,1.95,5.75,11.52.88,9.21-3.74-.63-1.25-1.24-1.23-2.04-1.97-1.28-1.17-.95-3.16.48-4.03l10.59-5.2c.67-.04,1.04.25,1.37.82,1.5,3.44,2.59,7.21,4.11,10.62.24.54.69,1.3,1.39,1.07,1.08-.35,1.19-1.51,1.92-2.31,3.09-3.36,8.02-1.85,10.23,1.68.27.44.7,1.3.88,1.79Z"/>
  </g>
</svg>