<?xml version="1.0" encoding="UTF-8"?>
<svg id="Layer_1" data-name="Layer 1" xmlns="http://www.w3.org/2000/svg" viewBox="0 0 70 70">
  <defs>
    <style>
      .cls-1 {
        opacity: .25;
      }

      .cls-2 {
        fill: #00ad6f;
      }
    </style>
  </defs>
  <g id="LxLXBo" class="cls-1">
    <g>
      <path class="cls-2" d="M7.89,31.77v-.74l.37-.53c5.41-5.32,10.67-10.81,16.15-16.04.5-.21.98-.15,1.43.16l11.59,11.6c.75.55,1.41.46,2.07-.16l10.31-10.34c1.3-1.92-1.77-2.25-.85-4.03.32-.62.88-.69,1.48-.85,3.32-.85,6.9-1.25,10.25-2.04.72,0,1.42.71,1.43,1.42l-2.14,10.79c-.17.77-.83,1.23-1.62,1.12-1.05-.16-1.57-2.12-3.13-1.1-5.43,5.33-10.71,10.85-16.21,16.09-.59.26-1.02.22-1.54-.16l-11.49-11.49c-.58-.52-1.44-.52-2.02,0-3.6,3.52-7.05,7.25-10.77,10.62-.51.24-1.02.12-1.46-.19-.58-.4-3.09-2.95-3.55-3.55-.15-.2-.16-.41-.32-.58Z"/>
      <g>
        <g>
          <path class="cls-2" d="M23.74,35.82c1.73.14,4.02-.27,5.69-.02.62.1,1.01.65,1.09,1.24l.03,22.53c-.09.87-.47,1.38-1.35,1.51-1.01.15-4.02.15-5.04.02-.62-.08-1.13-.39-1.31-1.02l-.03-23.17c0-.4.57-1.01.92-1.09Z"/>
          <path class="cls-2" d="M17.49,60.65c-.22.23-.76.42-1.08.46-1.1.12-3.77.12-4.87,0-.67-.07-1.13-.44-1.38-1.06l-.05-16.58c.12-.98.7-1.35,1.64-1.43,1.14-.1,3.54-.12,4.65.02.61.07,1.12.37,1.37.96.12,5.69.12,11.43,0,17.12-.08.17-.15.38-.28.51Z"/>
        </g>
        <g>
          <path class="cls-2" d="M35.88,45.26c.2-.19.59-.32.86-.35,1.1-.12,4.1-.13,5.19,0,.56.07.97.44,1.17.95l.05,14.04c-.13.8-.77,1.15-1.53,1.22-1.1.1-3.81.13-4.87-.01-.84-.11-1.27-.71-1.34-1.52-.37-4.22.29-8.97,0-13.25,0-.31.25-.86.46-1.07Z"/>
          <path class="cls-2" d="M48.48,32.66c.27-.26.81-.42,1.18-.46,1.13-.12,3.41-.1,4.55,0,.85.08,1.42.36,1.62,1.24l.03,26.24c-.09.8-.55,1.28-1.35,1.4-.97.14-4.07.15-5.05.02-.61-.08-1.1-.43-1.31-1.02l.03-26.93c.1-.15.19-.37.31-.49Z"/>
        </g>
      </g>
    </g>
  </g>
</svg>