<?xml version="1.0" encoding="UTF-8"?>
<svg id="Layer_1" data-name="Layer 1" xmlns="http://www.w3.org/2000/svg" viewBox="0 0 70 70">
  <defs>
    <style>
      .cls-1 {
        opacity: .25;
      }

      .cls-2 {
        fill: #00ad6f;
      }
    </style>
  </defs>
  <g id="S1QisW" class="cls-1">
    <g>
      <path class="cls-2" d="M38.81,27.72l2.62-20.3c.05-1.68-1.86-1.9-2.49-.44l-19.22,33.79c-.3.44.46,1.51.83,1.51h15.98l-2.05,19.96c-.31,1.5,1.31,2.47,2.26,1.12,6.32-11.48,12.95-22.8,19.13-34.33.19-.39-.58-1.31-.86-1.31h-16.21Z"/>
      <path class="cls-2" d="M38.81,27.72h16.21c.28,0,1.05.92.86,1.31-6.18,11.53-12.82,22.86-19.13,34.33-.95,1.34-2.57.38-2.26-1.12l2.05-19.96h-15.98c-.37,0-1.13-1.07-.83-1.51L38.95,6.98c.63-1.46,2.54-1.24,2.49.44l-2.62,20.3Z"/>
    </g>
  </g>
</svg>