<?xml version="1.0" encoding="UTF-8"?>
<svg id="Layer_1" data-name="Layer 1" xmlns="http://www.w3.org/2000/svg" viewBox="0 0 70 70">
  <defs>
    <style>
      .cls-1 {
        opacity: .25;
      }

      .cls-2 {
        fill: #00ad6f;
      }
    </style>
  </defs>
  <g id="YDljc8" class="cls-1">
    <g>
      <path class="cls-2" d="M6.77,62.86v-.91l.51-.8,10.75-10.72c1.89-1.34,3.78.87,2.32,2.55l-10.68,10.68c-1.17.87-2.3.45-2.9-.8Z"/>
      <path class="cls-2" d="M32.56,56.85c6.09-1.13,11.69-3.95,16.69-7.5-.56,3.11.42,6.18-2.35,8.39s-6.53,4.1-9.5,6.17c-1.04.45-2.37.15-3.2-.59-1.41-1.25-1.24-4.69-1.64-6.47Z"/>
      <path class="cls-2" d="M23.78,55.16c1.62-.34,2.74,1.15,1.9,2.58l-6.08,6.08c-1.65.91-3.33-.87-2.25-2.48.63-.93,4.81-5.08,5.77-5.81.19-.14.42-.32.65-.37Z"/>
      <g>
        <path class="cls-2" d="M61.75,5.95c2.13.2,3.03,1.41,3.18,3.47.36,5.13-.67,11.81-2.27,16.7-3.39,10.36-11.64,18.88-21.09,24.01l-20.78-20.89c5.46-9.93,14.26-18.18,25.29-21.41,3.54-1.04,7.47-1.71,11.13-1.87,1.32-.06,3.26-.12,4.54,0ZM55.13,24.27c0-4.71-3.81-8.52-8.52-8.52s-8.52,3.81-8.52,8.52,3.81,8.52,8.52,8.52,8.52-3.81,8.52-8.52Z"/>
        <path class="cls-2" d="M6.77,34.01c.19-.44.36-.87.59-1.28.99-1.75,2.46-3.77,3.61-5.48.83-1.23,2.02-3.39,3.13-4.25,1.95-1.52,5.12-.89,7.44-1.36-3.56,5-6.37,10.6-7.5,16.69-2.56-.58-6.43.08-7.26-3.17v-1.14Z"/>
        <path class="cls-2" d="M6.77,52.41v-.45l.39-.8,6.04-6c1.74-.95,3.35,1.02,2.14,2.6-1.53,1.99-4.23,3.95-5.95,5.86-1.11.7-2.32-.05-2.63-1.21Z"/>
        <path class="cls-2" d="M38.12,51.73c-2.04.68-4.08,1.46-6.23,1.78-1.37.21-2.03.28-3.15-.64-3.71-3.05-7.04-7.55-10.73-10.73-1.34-1.42-.61-3.52-.19-5.2.36-1.42.88-2.79,1.33-4.18l18.97,18.97Z"/>
        <circle class="cls-2" cx="46.61" cy="24.27" r="5.11"/>
      </g>
    </g>
  </g>
</svg>